G04 #@! TF.FileFunction,Copper,L2,Bot,Signal*
%FSLAX46Y46*%
G04 Gerber Fmt 4.6, Leading zero omitted, Abs format (unit mm)*
G04 Created by KiCad (PCBNEW 4.0.2-1.fc23-product) date Wed 14 Dec 2016 11:24:26 GMT*
%MOMM*%
G01*
G04 APERTURE LIST*
%ADD10C,0.100000*%
%ADD11R,1.727200X1.727200*%
%ADD12C,1.727200*%
%ADD13O,1.727200X1.727200*%
%ADD14R,2.000000X1.600000*%
%ADD15C,1.501140*%
%ADD16C,0.600000*%
%ADD17C,0.500000*%
%ADD18C,0.200000*%
%ADD19C,0.250000*%
%ADD20C,0.254000*%
G04 APERTURE END LIST*
D10*
D11*
X135890000Y-98044000D03*
D12*
X135890000Y-100584000D03*
X133350000Y-98044000D03*
X133350000Y-100584000D03*
X130810000Y-98044000D03*
X130810000Y-100584000D03*
X128270000Y-98044000D03*
X128270000Y-100584000D03*
X125730000Y-98044000D03*
X125730000Y-100584000D03*
X123190000Y-98044000D03*
X123190000Y-100584000D03*
X120650000Y-98044000D03*
X120650000Y-100584000D03*
X118110000Y-98044000D03*
X118110000Y-100584000D03*
D11*
X103620000Y-52260000D03*
D13*
X103620000Y-49720000D03*
X106160000Y-52260000D03*
X106160000Y-49720000D03*
X108700000Y-52260000D03*
X108700000Y-49720000D03*
X111240000Y-52260000D03*
X111240000Y-49720000D03*
X113780000Y-52260000D03*
X113780000Y-49720000D03*
X116320000Y-52260000D03*
X116320000Y-49720000D03*
X118860000Y-52260000D03*
X118860000Y-49720000D03*
X121400000Y-52260000D03*
X121400000Y-49720000D03*
X123940000Y-52260000D03*
X123940000Y-49720000D03*
X126480000Y-52260000D03*
X126480000Y-49720000D03*
X129020000Y-52260000D03*
X129020000Y-49720000D03*
X131560000Y-52260000D03*
X131560000Y-49720000D03*
X134100000Y-52260000D03*
X134100000Y-49720000D03*
X136640000Y-52260000D03*
X136640000Y-49720000D03*
X139180000Y-52260000D03*
X139180000Y-49720000D03*
X141720000Y-52260000D03*
X141720000Y-49720000D03*
X144260000Y-52260000D03*
X144260000Y-49720000D03*
X146800000Y-52260000D03*
X146800000Y-49720000D03*
X149340000Y-52260000D03*
X149340000Y-49720000D03*
X151880000Y-52260000D03*
X151880000Y-49720000D03*
D14*
X142462000Y-65024000D03*
X138462000Y-65024000D03*
X142462000Y-61468000D03*
X138462000Y-61468000D03*
D15*
X145796000Y-61821060D03*
X145796000Y-66702940D03*
D11*
X100330000Y-84582000D03*
D12*
X97790000Y-84582000D03*
X100330000Y-82042000D03*
X97790000Y-82042000D03*
X100330000Y-79502000D03*
X97790000Y-79502000D03*
X100330000Y-76962000D03*
X97790000Y-76962000D03*
X100330000Y-74422000D03*
X97790000Y-74422000D03*
X100330000Y-71882000D03*
X97790000Y-71882000D03*
X100330000Y-69342000D03*
X97790000Y-69342000D03*
X100330000Y-66802000D03*
X97790000Y-66802000D03*
D16*
X116078000Y-98298000D03*
X114046000Y-100330000D03*
X133096000Y-82550000D03*
X131032000Y-84582000D03*
X112776000Y-81026000D03*
X105918000Y-85852000D03*
X121015000Y-81645000D03*
X123444000Y-64262000D03*
X118364000Y-68580000D03*
X104394000Y-56134000D03*
X114808000Y-56642000D03*
X119126000Y-57150000D03*
X123952000Y-71882000D03*
X154940000Y-79502000D03*
X153924000Y-84836000D03*
X114554000Y-74930000D03*
X126270000Y-86646000D03*
X139700000Y-69088000D03*
X142494000Y-75438000D03*
X153670000Y-71882000D03*
X110744000Y-71120000D03*
X113030000Y-68834000D03*
X114808000Y-83566000D03*
X119888000Y-85598000D03*
X106172000Y-66548000D03*
X106934000Y-67310000D03*
X131318000Y-54102000D03*
X136398000Y-54864000D03*
X125984000Y-54102000D03*
X152400000Y-58928000D03*
X151638000Y-58166000D03*
X150876000Y-57404000D03*
X150114000Y-56642000D03*
X122174000Y-87630000D03*
X125984000Y-88900000D03*
D17*
X135890000Y-100584000D02*
X135890000Y-100838000D01*
X114046000Y-100330000D02*
X116078000Y-98298000D01*
X135890000Y-100584000D02*
X135636000Y-100584000D01*
X131032000Y-84582000D02*
X131064000Y-84582000D01*
X121015000Y-81645000D02*
X121126000Y-81534000D01*
X121126000Y-81534000D02*
X121158000Y-81534000D01*
X126270000Y-86646000D02*
X126238000Y-86614000D01*
X118110000Y-100584000D02*
X118110000Y-101346000D01*
X118110000Y-101346000D02*
X119126000Y-102362000D01*
X119126000Y-102362000D02*
X122174000Y-102362000D01*
X122174000Y-102362000D02*
X123190000Y-101346000D01*
X123190000Y-101346000D02*
X123190000Y-100584000D01*
X118110000Y-100584000D02*
X118110000Y-100838000D01*
X110744000Y-71120000D02*
X113030000Y-68834000D01*
X114808000Y-83566000D02*
X116840000Y-85598000D01*
X116840000Y-85598000D02*
X119888000Y-85598000D01*
D18*
X106172000Y-65532000D02*
X106172000Y-66802000D01*
X106160000Y-65520000D02*
X106172000Y-65532000D01*
X106160000Y-52260000D02*
X106160000Y-63996000D01*
X106160000Y-63996000D02*
X106160000Y-65520000D01*
X106172000Y-66802000D02*
X106172000Y-66548000D01*
X108700000Y-53352000D02*
X108700000Y-52260000D01*
X106934000Y-55118000D02*
X106934000Y-64008000D01*
X108700000Y-53352000D02*
X106934000Y-55118000D01*
X106934000Y-65786000D02*
X106934000Y-64008000D01*
X106934000Y-67310000D02*
X106934000Y-65786000D01*
X127762000Y-54102000D02*
X126480000Y-52820000D01*
X131318000Y-54102000D02*
X127762000Y-54102000D01*
X126480000Y-52820000D02*
X126480000Y-52260000D01*
D19*
X142462000Y-65024000D02*
X144117060Y-65024000D01*
X144117060Y-65024000D02*
X145796000Y-66702940D01*
X142462000Y-61468000D02*
X145442940Y-61468000D01*
X145442940Y-61468000D02*
X145796000Y-61821060D01*
D18*
X126746000Y-54864000D02*
X136398000Y-54864000D01*
X125984000Y-54102000D02*
X126746000Y-54864000D01*
D19*
X152400000Y-58928000D02*
X148590000Y-58928000D01*
X139180000Y-53328000D02*
X139180000Y-52260000D01*
X139700000Y-53848000D02*
X139180000Y-53328000D01*
X141478000Y-53848000D02*
X139700000Y-53848000D01*
X145542000Y-57912000D02*
X141478000Y-53848000D01*
X147574000Y-57912000D02*
X145542000Y-57912000D01*
X148590000Y-58928000D02*
X147574000Y-57912000D01*
X151638000Y-58166000D02*
X149098000Y-58166000D01*
X146050000Y-57150000D02*
X141720000Y-52820000D01*
X148082000Y-57150000D02*
X146050000Y-57150000D01*
X149098000Y-58166000D02*
X148082000Y-57150000D01*
X141720000Y-52820000D02*
X141720000Y-52260000D01*
X144018000Y-53848000D02*
X143002000Y-52832000D01*
X141720000Y-50026000D02*
X143002000Y-51308000D01*
X149606000Y-57404000D02*
X148590000Y-56388000D01*
X148590000Y-56388000D02*
X146558000Y-56388000D01*
X146558000Y-56388000D02*
X144018000Y-53848000D01*
X150876000Y-57404000D02*
X149606000Y-57404000D01*
X143002000Y-52832000D02*
X143002000Y-51308000D01*
X141720000Y-50026000D02*
X141720000Y-49720000D01*
X144260000Y-52260000D02*
X144260000Y-52566000D01*
X144260000Y-52566000D02*
X147320000Y-55626000D01*
X147320000Y-55626000D02*
X149098000Y-55626000D01*
X149098000Y-55626000D02*
X150114000Y-56642000D01*
D18*
X107950000Y-55372000D02*
X107950000Y-69342000D01*
X109982000Y-53340000D02*
X107950000Y-55372000D01*
X109982000Y-51054000D02*
X109982000Y-53340000D01*
X111240000Y-49796000D02*
X109982000Y-51054000D01*
X107950000Y-69342000D02*
X100330000Y-76962000D01*
X111240000Y-49720000D02*
X111240000Y-49796000D01*
X108966000Y-56642000D02*
X108712000Y-56896000D01*
X112522000Y-53086000D02*
X108966000Y-56642000D01*
X112522000Y-51054000D02*
X112522000Y-53086000D01*
X113780000Y-49796000D02*
X112522000Y-51054000D01*
X99060000Y-78232000D02*
X97790000Y-76962000D01*
X100838000Y-78232000D02*
X99060000Y-78232000D01*
X108712000Y-70358000D02*
X100838000Y-78232000D01*
X108712000Y-56896000D02*
X108712000Y-70358000D01*
X113780000Y-49720000D02*
X113780000Y-49796000D01*
X124206000Y-88646000D02*
X123190000Y-88646000D01*
X123190000Y-88646000D02*
X122174000Y-87630000D01*
X124206000Y-88646000D02*
X125730000Y-88646000D01*
X125730000Y-88646000D02*
X125984000Y-88900000D01*
D20*
G36*
X158133898Y-47856082D02*
X158883231Y-48356771D01*
X159292502Y-48969288D01*
X158580336Y-48255877D01*
X157394706Y-47763561D01*
X156110926Y-47762441D01*
X154924439Y-48252687D01*
X154015877Y-49159664D01*
X153523561Y-50345294D01*
X153522441Y-51629074D01*
X154012687Y-52815561D01*
X154919664Y-53724123D01*
X156105294Y-54216439D01*
X157389074Y-54217559D01*
X158575561Y-53727313D01*
X159484123Y-52820336D01*
X159573000Y-52606296D01*
X159573000Y-98371818D01*
X159487313Y-98164439D01*
X158580336Y-97255877D01*
X157394706Y-96763561D01*
X156110926Y-96762441D01*
X154924439Y-97252687D01*
X154015877Y-98159664D01*
X153523561Y-99345294D01*
X153522441Y-100629074D01*
X154012687Y-101815561D01*
X154919664Y-102724123D01*
X155133704Y-102813000D01*
X122963266Y-102813000D01*
X123810133Y-101966133D01*
X123833702Y-101930860D01*
X124033254Y-101848406D01*
X124452933Y-101429460D01*
X124459736Y-101413077D01*
X124465594Y-101427254D01*
X124884540Y-101846933D01*
X125432200Y-102074341D01*
X126025198Y-102074859D01*
X126573254Y-101848406D01*
X126992933Y-101429460D01*
X126999736Y-101413077D01*
X127005594Y-101427254D01*
X127424540Y-101846933D01*
X127972200Y-102074341D01*
X128565198Y-102074859D01*
X129113254Y-101848406D01*
X129532933Y-101429460D01*
X129539736Y-101413077D01*
X129545594Y-101427254D01*
X129964540Y-101846933D01*
X130512200Y-102074341D01*
X131105198Y-102074859D01*
X131653254Y-101848406D01*
X132072933Y-101429460D01*
X132079736Y-101413077D01*
X132085594Y-101427254D01*
X132504540Y-101846933D01*
X133052200Y-102074341D01*
X133645198Y-102074859D01*
X134193254Y-101848406D01*
X134612933Y-101429460D01*
X134619736Y-101413077D01*
X134625594Y-101427254D01*
X135044540Y-101846933D01*
X135592200Y-102074341D01*
X136185198Y-102074859D01*
X136733254Y-101848406D01*
X137152933Y-101429460D01*
X137380341Y-100881800D01*
X137380859Y-100288802D01*
X137154406Y-99740746D01*
X136934170Y-99520124D01*
X137113298Y-99445927D01*
X137291927Y-99267299D01*
X137388600Y-99033910D01*
X137388600Y-98329750D01*
X137229850Y-98171000D01*
X136017000Y-98171000D01*
X136017000Y-98191000D01*
X135763000Y-98191000D01*
X135763000Y-98171000D01*
X135743000Y-98171000D01*
X135743000Y-97917000D01*
X135763000Y-97917000D01*
X135763000Y-96704150D01*
X136017000Y-96704150D01*
X136017000Y-97917000D01*
X137229850Y-97917000D01*
X137388600Y-97758250D01*
X137388600Y-97054090D01*
X137291927Y-96820701D01*
X137113298Y-96642073D01*
X136879909Y-96545400D01*
X136175750Y-96545400D01*
X136017000Y-96704150D01*
X135763000Y-96704150D01*
X135604250Y-96545400D01*
X134900091Y-96545400D01*
X134666702Y-96642073D01*
X134488073Y-96820701D01*
X134413865Y-96999854D01*
X134195460Y-96781067D01*
X133647800Y-96553659D01*
X133054802Y-96553141D01*
X132506746Y-96779594D01*
X132087067Y-97198540D01*
X132080264Y-97214923D01*
X132074406Y-97200746D01*
X131655460Y-96781067D01*
X131107800Y-96553659D01*
X130514802Y-96553141D01*
X129966746Y-96779594D01*
X129547067Y-97198540D01*
X129540264Y-97214923D01*
X129534406Y-97200746D01*
X129115460Y-96781067D01*
X128567800Y-96553659D01*
X127974802Y-96553141D01*
X127426746Y-96779594D01*
X127007067Y-97198540D01*
X127000264Y-97214923D01*
X126994406Y-97200746D01*
X126575460Y-96781067D01*
X126027800Y-96553659D01*
X125434802Y-96553141D01*
X124886746Y-96779594D01*
X124467067Y-97198540D01*
X124451092Y-97237012D01*
X124243805Y-97169800D01*
X123369605Y-98044000D01*
X124243805Y-98918200D01*
X124450666Y-98851126D01*
X124465594Y-98887254D01*
X124884540Y-99306933D01*
X124900923Y-99313736D01*
X124886746Y-99319594D01*
X124467067Y-99738540D01*
X124460264Y-99754923D01*
X124454406Y-99740746D01*
X124035460Y-99321067D01*
X123996988Y-99305092D01*
X124064200Y-99097805D01*
X123190000Y-98223605D01*
X122315800Y-99097805D01*
X122382874Y-99304666D01*
X122346746Y-99319594D01*
X121927067Y-99738540D01*
X121920264Y-99754923D01*
X121914406Y-99740746D01*
X121495460Y-99321067D01*
X121479077Y-99314264D01*
X121493254Y-99308406D01*
X121912933Y-98889460D01*
X121928908Y-98850988D01*
X122136195Y-98918200D01*
X123010395Y-98044000D01*
X122136195Y-97169800D01*
X121929334Y-97236874D01*
X121914406Y-97200746D01*
X121704223Y-96990195D01*
X122315800Y-96990195D01*
X123190000Y-97864395D01*
X124064200Y-96990195D01*
X123982259Y-96737484D01*
X123421970Y-96533752D01*
X122826365Y-96559942D01*
X122397741Y-96737484D01*
X122315800Y-96990195D01*
X121704223Y-96990195D01*
X121495460Y-96781067D01*
X120947800Y-96553659D01*
X120354802Y-96553141D01*
X119806746Y-96779594D01*
X119387067Y-97198540D01*
X119371092Y-97237012D01*
X119163805Y-97169800D01*
X118289605Y-98044000D01*
X119163805Y-98918200D01*
X119370666Y-98851126D01*
X119385594Y-98887254D01*
X119804540Y-99306933D01*
X119820923Y-99313736D01*
X119806746Y-99319594D01*
X119387067Y-99738540D01*
X119380264Y-99754923D01*
X119374406Y-99740746D01*
X118955460Y-99321067D01*
X118916988Y-99305092D01*
X118984200Y-99097805D01*
X118110000Y-98223605D01*
X117235800Y-99097805D01*
X117302874Y-99304666D01*
X117266746Y-99319594D01*
X116847067Y-99738540D01*
X116619659Y-100286200D01*
X116619141Y-100879198D01*
X116845594Y-101427254D01*
X117264540Y-101846933D01*
X117466160Y-101930653D01*
X117489867Y-101966133D01*
X118336734Y-102813000D01*
X100368182Y-102813000D01*
X100575561Y-102727313D01*
X101484123Y-101820336D01*
X101976439Y-100634706D01*
X101976544Y-100513583D01*
X113118839Y-100513583D01*
X113259669Y-100854417D01*
X113520211Y-101115414D01*
X113860799Y-101256839D01*
X114229583Y-101257161D01*
X114570417Y-101116331D01*
X114831414Y-100855789D01*
X114881786Y-100734480D01*
X116482306Y-99133960D01*
X116602417Y-99084331D01*
X116839291Y-98847869D01*
X117056195Y-98918200D01*
X117930395Y-98044000D01*
X117056195Y-97169800D01*
X116803484Y-97251741D01*
X116680642Y-97589573D01*
X116603789Y-97512586D01*
X116263201Y-97371161D01*
X115894417Y-97370839D01*
X115553583Y-97511669D01*
X115292586Y-97772211D01*
X115242214Y-97893520D01*
X113641694Y-99494040D01*
X113521583Y-99543669D01*
X113260586Y-99804211D01*
X113119161Y-100144799D01*
X113118839Y-100513583D01*
X101976544Y-100513583D01*
X101977559Y-99350926D01*
X101487313Y-98164439D01*
X100580336Y-97255877D01*
X99940502Y-96990195D01*
X117235800Y-96990195D01*
X118110000Y-97864395D01*
X118984200Y-96990195D01*
X118902259Y-96737484D01*
X118341970Y-96533752D01*
X117746365Y-96559942D01*
X117317741Y-96737484D01*
X117235800Y-96990195D01*
X99940502Y-96990195D01*
X99394706Y-96763561D01*
X98110926Y-96762441D01*
X96924439Y-97252687D01*
X96015877Y-98159664D01*
X95927000Y-98373704D01*
X95927000Y-87813583D01*
X121246839Y-87813583D01*
X121387669Y-88154417D01*
X121648211Y-88415414D01*
X121988799Y-88556839D01*
X122072778Y-88556912D01*
X122675933Y-89160067D01*
X122911789Y-89317660D01*
X122957948Y-89326842D01*
X123190000Y-89373001D01*
X123190005Y-89373000D01*
X125176424Y-89373000D01*
X125197669Y-89424417D01*
X125458211Y-89685414D01*
X125798799Y-89826839D01*
X126167583Y-89827161D01*
X126508417Y-89686331D01*
X126769414Y-89425789D01*
X126910839Y-89085201D01*
X126911161Y-88716417D01*
X126770331Y-88375583D01*
X126509789Y-88114586D01*
X126169201Y-87973161D01*
X126001548Y-87973015D01*
X125962052Y-87965158D01*
X125730000Y-87918999D01*
X125729995Y-87919000D01*
X123491134Y-87919000D01*
X123101089Y-87528955D01*
X123101161Y-87446417D01*
X122960331Y-87105583D01*
X122699789Y-86844586D01*
X122359201Y-86703161D01*
X121990417Y-86702839D01*
X121649583Y-86843669D01*
X121388586Y-87104211D01*
X121247161Y-87444799D01*
X121246839Y-87813583D01*
X95927000Y-87813583D01*
X95927000Y-84350030D01*
X96279752Y-84350030D01*
X96305942Y-84945635D01*
X96483484Y-85374259D01*
X96736195Y-85456200D01*
X97610395Y-84582000D01*
X96736195Y-83707800D01*
X96483484Y-83789741D01*
X96279752Y-84350030D01*
X95927000Y-84350030D01*
X95927000Y-79270030D01*
X96279752Y-79270030D01*
X96305942Y-79865635D01*
X96483484Y-80294259D01*
X96736195Y-80376200D01*
X97610395Y-79502000D01*
X96736195Y-78627800D01*
X96483484Y-78709741D01*
X96279752Y-79270030D01*
X95927000Y-79270030D01*
X95927000Y-67097198D01*
X96299141Y-67097198D01*
X96525594Y-67645254D01*
X96944540Y-68064933D01*
X96960923Y-68071736D01*
X96946746Y-68077594D01*
X96527067Y-68496540D01*
X96299659Y-69044200D01*
X96299141Y-69637198D01*
X96525594Y-70185254D01*
X96944540Y-70604933D01*
X96960923Y-70611736D01*
X96946746Y-70617594D01*
X96527067Y-71036540D01*
X96299659Y-71584200D01*
X96299141Y-72177198D01*
X96525594Y-72725254D01*
X96944540Y-73144933D01*
X96960923Y-73151736D01*
X96946746Y-73157594D01*
X96527067Y-73576540D01*
X96299659Y-74124200D01*
X96299141Y-74717198D01*
X96525594Y-75265254D01*
X96944540Y-75684933D01*
X96960923Y-75691736D01*
X96946746Y-75697594D01*
X96527067Y-76116540D01*
X96299659Y-76664200D01*
X96299141Y-77257198D01*
X96525594Y-77805254D01*
X96944540Y-78224933D01*
X96983012Y-78240908D01*
X96915800Y-78448195D01*
X97790000Y-79322395D01*
X97804143Y-79308253D01*
X97983748Y-79487858D01*
X97969605Y-79502000D01*
X98843805Y-80376200D01*
X99050666Y-80309126D01*
X99065594Y-80345254D01*
X99484540Y-80764933D01*
X99500923Y-80771736D01*
X99486746Y-80777594D01*
X99067067Y-81196540D01*
X99060264Y-81212923D01*
X99054406Y-81198746D01*
X98635460Y-80779067D01*
X98596988Y-80763092D01*
X98664200Y-80555805D01*
X97790000Y-79681605D01*
X96915800Y-80555805D01*
X96982874Y-80762666D01*
X96946746Y-80777594D01*
X96527067Y-81196540D01*
X96299659Y-81744200D01*
X96299141Y-82337198D01*
X96525594Y-82885254D01*
X96944540Y-83304933D01*
X96983012Y-83320908D01*
X96915800Y-83528195D01*
X97790000Y-84402395D01*
X98664200Y-83528195D01*
X98597126Y-83321334D01*
X98633254Y-83306406D01*
X99052933Y-82887460D01*
X99059736Y-82871077D01*
X99065594Y-82885254D01*
X99291896Y-83111952D01*
X99234048Y-83122837D01*
X99020647Y-83260157D01*
X98877483Y-83469683D01*
X98827117Y-83718400D01*
X98827117Y-83724488D01*
X97969605Y-84582000D01*
X97983748Y-84596143D01*
X97804143Y-84775748D01*
X97790000Y-84761605D01*
X96915800Y-85635805D01*
X96997741Y-85888516D01*
X97558030Y-86092248D01*
X98153635Y-86066058D01*
X98582259Y-85888516D01*
X98664199Y-85635807D01*
X98778867Y-85750475D01*
X98867757Y-85661585D01*
X98870837Y-85677952D01*
X99008157Y-85891353D01*
X99217683Y-86034517D01*
X99466400Y-86084883D01*
X101193600Y-86084883D01*
X101425952Y-86041163D01*
X101639353Y-85903843D01*
X101782517Y-85694317D01*
X101832883Y-85445600D01*
X101832883Y-83749583D01*
X113880839Y-83749583D01*
X114021669Y-84090417D01*
X114282211Y-84351414D01*
X114403520Y-84401786D01*
X116219867Y-86218133D01*
X116504387Y-86408242D01*
X116840000Y-86475001D01*
X116840005Y-86475000D01*
X119582774Y-86475000D01*
X119702799Y-86524839D01*
X120071583Y-86525161D01*
X120412417Y-86384331D01*
X120673414Y-86123789D01*
X120814839Y-85783201D01*
X120815161Y-85414417D01*
X120674331Y-85073583D01*
X120413789Y-84812586D01*
X120073201Y-84671161D01*
X119704417Y-84670839D01*
X119583018Y-84721000D01*
X117203266Y-84721000D01*
X115643960Y-83161694D01*
X115594331Y-83041583D01*
X115333789Y-82780586D01*
X114993201Y-82639161D01*
X114624417Y-82638839D01*
X114283583Y-82779669D01*
X114022586Y-83040211D01*
X113881161Y-83380799D01*
X113880839Y-83749583D01*
X101832883Y-83749583D01*
X101832883Y-83718400D01*
X101789163Y-83486048D01*
X101651843Y-83272647D01*
X101442317Y-83129483D01*
X101365973Y-83114023D01*
X101592933Y-82887460D01*
X101820341Y-82339800D01*
X101820859Y-81746802D01*
X101594406Y-81198746D01*
X101175460Y-80779067D01*
X101159077Y-80772264D01*
X101173254Y-80766406D01*
X101592933Y-80347460D01*
X101820341Y-79799800D01*
X101820859Y-79206802D01*
X101594406Y-78658746D01*
X101516965Y-78581169D01*
X108794550Y-71303583D01*
X109816839Y-71303583D01*
X109957669Y-71644417D01*
X110218211Y-71905414D01*
X110558799Y-72046839D01*
X110927583Y-72047161D01*
X111268417Y-71906331D01*
X111529414Y-71645789D01*
X111579786Y-71524480D01*
X113434306Y-69669960D01*
X113554417Y-69620331D01*
X113815414Y-69359789D01*
X113956839Y-69019201D01*
X113957161Y-68650417D01*
X113816331Y-68309583D01*
X113555789Y-68048586D01*
X113215201Y-67907161D01*
X112846417Y-67906839D01*
X112505583Y-68047669D01*
X112244586Y-68308211D01*
X112194214Y-68429520D01*
X110339694Y-70284040D01*
X110219583Y-70333669D01*
X109958586Y-70594211D01*
X109817161Y-70934799D01*
X109816839Y-71303583D01*
X108794550Y-71303583D01*
X109226064Y-70872069D01*
X109226067Y-70872067D01*
X109383660Y-70636211D01*
X109383661Y-70636210D01*
X109439001Y-70358000D01*
X109439000Y-70357995D01*
X109439000Y-65309750D01*
X136827000Y-65309750D01*
X136827000Y-65950310D01*
X136923673Y-66183699D01*
X137102302Y-66362327D01*
X137335691Y-66459000D01*
X138176250Y-66459000D01*
X138335000Y-66300250D01*
X138335000Y-65151000D01*
X138589000Y-65151000D01*
X138589000Y-66300250D01*
X138747750Y-66459000D01*
X139588309Y-66459000D01*
X139821698Y-66362327D01*
X140000327Y-66183699D01*
X140097000Y-65950310D01*
X140097000Y-65309750D01*
X139938250Y-65151000D01*
X138589000Y-65151000D01*
X138335000Y-65151000D01*
X136985750Y-65151000D01*
X136827000Y-65309750D01*
X109439000Y-65309750D01*
X109439000Y-64097690D01*
X136827000Y-64097690D01*
X136827000Y-64738250D01*
X136985750Y-64897000D01*
X138335000Y-64897000D01*
X138335000Y-63747750D01*
X138589000Y-63747750D01*
X138589000Y-64897000D01*
X139938250Y-64897000D01*
X140097000Y-64738250D01*
X140097000Y-64224000D01*
X140822717Y-64224000D01*
X140822717Y-65824000D01*
X140866437Y-66056352D01*
X141003757Y-66269753D01*
X141213283Y-66412917D01*
X141462000Y-66463283D01*
X143462000Y-66463283D01*
X143694352Y-66419563D01*
X143907753Y-66282243D01*
X144050917Y-66072717D01*
X144059568Y-66029996D01*
X144430002Y-66400430D01*
X144418670Y-66427722D01*
X144418192Y-66975753D01*
X144627472Y-67482251D01*
X145014651Y-67870106D01*
X145520782Y-68080270D01*
X146068813Y-68080748D01*
X146575311Y-67871468D01*
X146963166Y-67484289D01*
X147173330Y-66978158D01*
X147173808Y-66430127D01*
X146964528Y-65923629D01*
X146577349Y-65535774D01*
X146071218Y-65325610D01*
X145523187Y-65325132D01*
X145493816Y-65337268D01*
X144648804Y-64492256D01*
X144404838Y-64329243D01*
X144117060Y-64272000D01*
X144101283Y-64272000D01*
X144101283Y-64224000D01*
X144057563Y-63991648D01*
X143920243Y-63778247D01*
X143710717Y-63635083D01*
X143462000Y-63584717D01*
X141462000Y-63584717D01*
X141229648Y-63628437D01*
X141016247Y-63765757D01*
X140873083Y-63975283D01*
X140822717Y-64224000D01*
X140097000Y-64224000D01*
X140097000Y-64097690D01*
X140000327Y-63864301D01*
X139821698Y-63685673D01*
X139588309Y-63589000D01*
X138747750Y-63589000D01*
X138589000Y-63747750D01*
X138335000Y-63747750D01*
X138176250Y-63589000D01*
X137335691Y-63589000D01*
X137102302Y-63685673D01*
X136923673Y-63864301D01*
X136827000Y-64097690D01*
X109439000Y-64097690D01*
X109439000Y-61753750D01*
X136827000Y-61753750D01*
X136827000Y-62394310D01*
X136923673Y-62627699D01*
X137102302Y-62806327D01*
X137335691Y-62903000D01*
X138176250Y-62903000D01*
X138335000Y-62744250D01*
X138335000Y-61595000D01*
X138589000Y-61595000D01*
X138589000Y-62744250D01*
X138747750Y-62903000D01*
X139588309Y-62903000D01*
X139821698Y-62806327D01*
X140000327Y-62627699D01*
X140097000Y-62394310D01*
X140097000Y-61753750D01*
X139938250Y-61595000D01*
X138589000Y-61595000D01*
X138335000Y-61595000D01*
X136985750Y-61595000D01*
X136827000Y-61753750D01*
X109439000Y-61753750D01*
X109439000Y-60541690D01*
X136827000Y-60541690D01*
X136827000Y-61182250D01*
X136985750Y-61341000D01*
X138335000Y-61341000D01*
X138335000Y-60191750D01*
X138589000Y-60191750D01*
X138589000Y-61341000D01*
X139938250Y-61341000D01*
X140097000Y-61182250D01*
X140097000Y-60668000D01*
X140822717Y-60668000D01*
X140822717Y-62268000D01*
X140866437Y-62500352D01*
X141003757Y-62713753D01*
X141213283Y-62856917D01*
X141462000Y-62907283D01*
X143462000Y-62907283D01*
X143694352Y-62863563D01*
X143907753Y-62726243D01*
X144050917Y-62516717D01*
X144101283Y-62268000D01*
X144101283Y-62220000D01*
X144470306Y-62220000D01*
X144627472Y-62600371D01*
X145014651Y-62988226D01*
X145520782Y-63198390D01*
X146068813Y-63198868D01*
X146575311Y-62989588D01*
X146963166Y-62602409D01*
X147173330Y-62096278D01*
X147173808Y-61548247D01*
X146964528Y-61041749D01*
X146577349Y-60653894D01*
X146071218Y-60443730D01*
X145523187Y-60443252D01*
X145016689Y-60652532D01*
X144953110Y-60716000D01*
X144101283Y-60716000D01*
X144101283Y-60668000D01*
X144057563Y-60435648D01*
X143920243Y-60222247D01*
X143710717Y-60079083D01*
X143462000Y-60028717D01*
X141462000Y-60028717D01*
X141229648Y-60072437D01*
X141016247Y-60209757D01*
X140873083Y-60419283D01*
X140822717Y-60668000D01*
X140097000Y-60668000D01*
X140097000Y-60541690D01*
X140000327Y-60308301D01*
X139821698Y-60129673D01*
X139588309Y-60033000D01*
X138747750Y-60033000D01*
X138589000Y-60191750D01*
X138335000Y-60191750D01*
X138176250Y-60033000D01*
X137335691Y-60033000D01*
X137102302Y-60129673D01*
X136923673Y-60308301D01*
X136827000Y-60541690D01*
X109439000Y-60541690D01*
X109439000Y-57197133D01*
X109480064Y-57156069D01*
X109480067Y-57156067D01*
X113036064Y-53600069D01*
X113036067Y-53600067D01*
X113059373Y-53565187D01*
X113420974Y-53714958D01*
X113653000Y-53593817D01*
X113653000Y-52387000D01*
X113633000Y-52387000D01*
X113633000Y-52133000D01*
X113653000Y-52133000D01*
X113653000Y-52113000D01*
X113907000Y-52113000D01*
X113907000Y-52133000D01*
X113927000Y-52133000D01*
X113927000Y-52387000D01*
X113907000Y-52387000D01*
X113907000Y-53593817D01*
X114139026Y-53714958D01*
X114554947Y-53542688D01*
X114986821Y-53148490D01*
X115048269Y-53017379D01*
X115265987Y-53343216D01*
X115749572Y-53666338D01*
X116320000Y-53779803D01*
X116890428Y-53666338D01*
X117374013Y-53343216D01*
X117590000Y-53019969D01*
X117805987Y-53343216D01*
X118289572Y-53666338D01*
X118860000Y-53779803D01*
X119430428Y-53666338D01*
X119914013Y-53343216D01*
X120130000Y-53019969D01*
X120345987Y-53343216D01*
X120829572Y-53666338D01*
X121400000Y-53779803D01*
X121970428Y-53666338D01*
X122454013Y-53343216D01*
X122670000Y-53019969D01*
X122885987Y-53343216D01*
X123369572Y-53666338D01*
X123940000Y-53779803D01*
X124510428Y-53666338D01*
X124994013Y-53343216D01*
X125210000Y-53019969D01*
X125425987Y-53343216D01*
X125429582Y-53345618D01*
X125198586Y-53576211D01*
X125057161Y-53916799D01*
X125056839Y-54285583D01*
X125197669Y-54626417D01*
X125458211Y-54887414D01*
X125798799Y-55028839D01*
X125882779Y-55028912D01*
X126231931Y-55378064D01*
X126231933Y-55378067D01*
X126467789Y-55535660D01*
X126513948Y-55544842D01*
X126746000Y-55591001D01*
X126746005Y-55591000D01*
X135813899Y-55591000D01*
X135872211Y-55649414D01*
X136212799Y-55790839D01*
X136581583Y-55791161D01*
X136922417Y-55650331D01*
X137183414Y-55389789D01*
X137324839Y-55049201D01*
X137325161Y-54680417D01*
X137184331Y-54339583D01*
X136923789Y-54078586D01*
X136583201Y-53937161D01*
X136214417Y-53936839D01*
X135873583Y-54077669D01*
X135814148Y-54137000D01*
X132244970Y-54137000D01*
X132245161Y-53918417D01*
X132138716Y-53660800D01*
X132614013Y-53343216D01*
X132831731Y-53017379D01*
X132893179Y-53148490D01*
X133325053Y-53542688D01*
X133740974Y-53714958D01*
X133973000Y-53593817D01*
X133973000Y-52387000D01*
X133953000Y-52387000D01*
X133953000Y-52133000D01*
X133973000Y-52133000D01*
X133973000Y-52113000D01*
X134227000Y-52113000D01*
X134227000Y-52133000D01*
X134247000Y-52133000D01*
X134247000Y-52387000D01*
X134227000Y-52387000D01*
X134227000Y-53593817D01*
X134459026Y-53714958D01*
X134874947Y-53542688D01*
X135306821Y-53148490D01*
X135368269Y-53017379D01*
X135585987Y-53343216D01*
X136069572Y-53666338D01*
X136640000Y-53779803D01*
X137210428Y-53666338D01*
X137694013Y-53343216D01*
X137910000Y-53019969D01*
X138125987Y-53343216D01*
X138477784Y-53578280D01*
X138485243Y-53615778D01*
X138648256Y-53859744D01*
X139168256Y-54379744D01*
X139412222Y-54542757D01*
X139700000Y-54600000D01*
X141166512Y-54600000D01*
X145010256Y-58443744D01*
X145254222Y-58606757D01*
X145542000Y-58664000D01*
X147262512Y-58664000D01*
X148058256Y-59459744D01*
X148302222Y-59622757D01*
X148590000Y-59680000D01*
X151840855Y-59680000D01*
X151874211Y-59713414D01*
X152214799Y-59854839D01*
X152583583Y-59855161D01*
X152924417Y-59714331D01*
X153185414Y-59453789D01*
X153326839Y-59113201D01*
X153327161Y-58744417D01*
X153186331Y-58403583D01*
X152925789Y-58142586D01*
X152585201Y-58001161D01*
X152565145Y-58001143D01*
X152565161Y-57982417D01*
X152424331Y-57641583D01*
X152163789Y-57380586D01*
X151823201Y-57239161D01*
X151803145Y-57239143D01*
X151803161Y-57220417D01*
X151662331Y-56879583D01*
X151401789Y-56618586D01*
X151061201Y-56477161D01*
X151041145Y-56477143D01*
X151041161Y-56458417D01*
X150900331Y-56117583D01*
X150639789Y-55856586D01*
X150299201Y-55715161D01*
X150250607Y-55715119D01*
X149629744Y-55094256D01*
X149385778Y-54931243D01*
X149098000Y-54874000D01*
X147631489Y-54874000D01*
X146472060Y-53714572D01*
X146800000Y-53779803D01*
X147370428Y-53666338D01*
X147854013Y-53343216D01*
X148070000Y-53019969D01*
X148285987Y-53343216D01*
X148769572Y-53666338D01*
X149340000Y-53779803D01*
X149910428Y-53666338D01*
X150394013Y-53343216D01*
X150611731Y-53017379D01*
X150673179Y-53148490D01*
X151105053Y-53542688D01*
X151520974Y-53714958D01*
X151753000Y-53593817D01*
X151753000Y-52387000D01*
X152007000Y-52387000D01*
X152007000Y-53593817D01*
X152239026Y-53714958D01*
X152654947Y-53542688D01*
X153086821Y-53148490D01*
X153334968Y-52619027D01*
X153214469Y-52387000D01*
X152007000Y-52387000D01*
X151753000Y-52387000D01*
X151733000Y-52387000D01*
X151733000Y-52133000D01*
X151753000Y-52133000D01*
X151753000Y-52113000D01*
X152007000Y-52113000D01*
X152007000Y-52133000D01*
X153214469Y-52133000D01*
X153334968Y-51900973D01*
X153086821Y-51371510D01*
X152662772Y-50984454D01*
X152934013Y-50803216D01*
X153257135Y-50319631D01*
X153370600Y-49749203D01*
X153370600Y-49690797D01*
X153257135Y-49120369D01*
X152934013Y-48636784D01*
X152450428Y-48313662D01*
X151880000Y-48200197D01*
X151309572Y-48313662D01*
X150825987Y-48636784D01*
X150610000Y-48960031D01*
X150394013Y-48636784D01*
X149910428Y-48313662D01*
X149340000Y-48200197D01*
X148769572Y-48313662D01*
X148285987Y-48636784D01*
X148070000Y-48960031D01*
X147854013Y-48636784D01*
X147370428Y-48313662D01*
X146800000Y-48200197D01*
X146229572Y-48313662D01*
X145745987Y-48636784D01*
X145528269Y-48962621D01*
X145466821Y-48831510D01*
X145034947Y-48437312D01*
X144619026Y-48265042D01*
X144387000Y-48386183D01*
X144387000Y-49593000D01*
X144407000Y-49593000D01*
X144407000Y-49847000D01*
X144387000Y-49847000D01*
X144387000Y-49867000D01*
X144133000Y-49867000D01*
X144133000Y-49847000D01*
X144113000Y-49847000D01*
X144113000Y-49593000D01*
X144133000Y-49593000D01*
X144133000Y-48386183D01*
X143900974Y-48265042D01*
X143485053Y-48437312D01*
X143053179Y-48831510D01*
X142991731Y-48962621D01*
X142774013Y-48636784D01*
X142290428Y-48313662D01*
X141720000Y-48200197D01*
X141149572Y-48313662D01*
X140665987Y-48636784D01*
X140448269Y-48962621D01*
X140386821Y-48831510D01*
X139954947Y-48437312D01*
X139539026Y-48265042D01*
X139307000Y-48386183D01*
X139307000Y-49593000D01*
X139327000Y-49593000D01*
X139327000Y-49847000D01*
X139307000Y-49847000D01*
X139307000Y-49867000D01*
X139053000Y-49867000D01*
X139053000Y-49847000D01*
X139033000Y-49847000D01*
X139033000Y-49593000D01*
X139053000Y-49593000D01*
X139053000Y-48386183D01*
X138820974Y-48265042D01*
X138405053Y-48437312D01*
X137973179Y-48831510D01*
X137911731Y-48962621D01*
X137694013Y-48636784D01*
X137210428Y-48313662D01*
X136640000Y-48200197D01*
X136069572Y-48313662D01*
X135585987Y-48636784D01*
X135370000Y-48960031D01*
X135154013Y-48636784D01*
X134670428Y-48313662D01*
X134100000Y-48200197D01*
X133529572Y-48313662D01*
X133045987Y-48636784D01*
X132830000Y-48960031D01*
X132614013Y-48636784D01*
X132130428Y-48313662D01*
X131560000Y-48200197D01*
X130989572Y-48313662D01*
X130505987Y-48636784D01*
X130290000Y-48960031D01*
X130074013Y-48636784D01*
X129590428Y-48313662D01*
X129020000Y-48200197D01*
X128449572Y-48313662D01*
X127965987Y-48636784D01*
X127748269Y-48962621D01*
X127686821Y-48831510D01*
X127254947Y-48437312D01*
X126839026Y-48265042D01*
X126607000Y-48386183D01*
X126607000Y-49593000D01*
X126627000Y-49593000D01*
X126627000Y-49847000D01*
X126607000Y-49847000D01*
X126607000Y-49867000D01*
X126353000Y-49867000D01*
X126353000Y-49847000D01*
X126333000Y-49847000D01*
X126333000Y-49593000D01*
X126353000Y-49593000D01*
X126353000Y-48386183D01*
X126120974Y-48265042D01*
X125705053Y-48437312D01*
X125273179Y-48831510D01*
X125211731Y-48962621D01*
X124994013Y-48636784D01*
X124510428Y-48313662D01*
X123940000Y-48200197D01*
X123369572Y-48313662D01*
X122885987Y-48636784D01*
X122670000Y-48960031D01*
X122454013Y-48636784D01*
X121970428Y-48313662D01*
X121400000Y-48200197D01*
X120829572Y-48313662D01*
X120345987Y-48636784D01*
X120128269Y-48962621D01*
X120066821Y-48831510D01*
X119634947Y-48437312D01*
X119219026Y-48265042D01*
X118987000Y-48386183D01*
X118987000Y-49593000D01*
X119007000Y-49593000D01*
X119007000Y-49847000D01*
X118987000Y-49847000D01*
X118987000Y-49867000D01*
X118733000Y-49867000D01*
X118733000Y-49847000D01*
X118713000Y-49847000D01*
X118713000Y-49593000D01*
X118733000Y-49593000D01*
X118733000Y-48386183D01*
X118500974Y-48265042D01*
X118085053Y-48437312D01*
X117653179Y-48831510D01*
X117591731Y-48962621D01*
X117374013Y-48636784D01*
X116890428Y-48313662D01*
X116320000Y-48200197D01*
X115749572Y-48313662D01*
X115265987Y-48636784D01*
X115050000Y-48960031D01*
X114834013Y-48636784D01*
X114350428Y-48313662D01*
X113780000Y-48200197D01*
X113209572Y-48313662D01*
X112725987Y-48636784D01*
X112510000Y-48960031D01*
X112294013Y-48636784D01*
X111810428Y-48313662D01*
X111240000Y-48200197D01*
X110669572Y-48313662D01*
X110185987Y-48636784D01*
X109968269Y-48962621D01*
X109906821Y-48831510D01*
X109474947Y-48437312D01*
X109059026Y-48265042D01*
X108827000Y-48386183D01*
X108827000Y-49593000D01*
X108847000Y-49593000D01*
X108847000Y-49847000D01*
X108827000Y-49847000D01*
X108827000Y-49867000D01*
X108573000Y-49867000D01*
X108573000Y-49847000D01*
X108553000Y-49847000D01*
X108553000Y-49593000D01*
X108573000Y-49593000D01*
X108573000Y-48386183D01*
X108340974Y-48265042D01*
X107925053Y-48437312D01*
X107493179Y-48831510D01*
X107431731Y-48962621D01*
X107214013Y-48636784D01*
X106730428Y-48313662D01*
X106160000Y-48200197D01*
X105589572Y-48313662D01*
X105105987Y-48636784D01*
X104890000Y-48960031D01*
X104674013Y-48636784D01*
X104190428Y-48313662D01*
X103620000Y-48200197D01*
X103049572Y-48313662D01*
X102565987Y-48636784D01*
X102242865Y-49120369D01*
X102129400Y-49690797D01*
X102129400Y-49749203D01*
X102242865Y-50319631D01*
X102559891Y-50794093D01*
X102524048Y-50800837D01*
X102310647Y-50938157D01*
X102167483Y-51147683D01*
X102117117Y-51396400D01*
X102117117Y-53123600D01*
X102160837Y-53355952D01*
X102298157Y-53569353D01*
X102507683Y-53712517D01*
X102756400Y-53762883D01*
X104483600Y-53762883D01*
X104715952Y-53719163D01*
X104929353Y-53581843D01*
X105072517Y-53372317D01*
X105084824Y-53311543D01*
X105105987Y-53343216D01*
X105433000Y-53561720D01*
X105433000Y-65519995D01*
X105432999Y-65520000D01*
X105445000Y-65580331D01*
X105445000Y-65963899D01*
X105386586Y-66022211D01*
X105245161Y-66362799D01*
X105244839Y-66731583D01*
X105385669Y-67072417D01*
X105646211Y-67333414D01*
X105745759Y-67374750D01*
X105893789Y-67473660D01*
X106007993Y-67496377D01*
X106147669Y-67834417D01*
X106408211Y-68095414D01*
X106748799Y-68236839D01*
X107117583Y-68237161D01*
X107223000Y-68193604D01*
X107223000Y-69040867D01*
X101820583Y-74443284D01*
X101820859Y-74126802D01*
X101594406Y-73578746D01*
X101175460Y-73159067D01*
X101159077Y-73152264D01*
X101173254Y-73146406D01*
X101592933Y-72727460D01*
X101820341Y-72179800D01*
X101820859Y-71586802D01*
X101594406Y-71038746D01*
X101175460Y-70619067D01*
X101159077Y-70612264D01*
X101173254Y-70606406D01*
X101592933Y-70187460D01*
X101820341Y-69639800D01*
X101820859Y-69046802D01*
X101594406Y-68498746D01*
X101175460Y-68079067D01*
X101159077Y-68072264D01*
X101173254Y-68066406D01*
X101592933Y-67647460D01*
X101820341Y-67099800D01*
X101820859Y-66506802D01*
X101594406Y-65958746D01*
X101175460Y-65539067D01*
X100627800Y-65311659D01*
X100034802Y-65311141D01*
X99486746Y-65537594D01*
X99067067Y-65956540D01*
X99060264Y-65972923D01*
X99054406Y-65958746D01*
X98635460Y-65539067D01*
X98087800Y-65311659D01*
X97494802Y-65311141D01*
X96946746Y-65537594D01*
X96527067Y-65956540D01*
X96299659Y-66504200D01*
X96299141Y-67097198D01*
X95927000Y-67097198D01*
X95927000Y-52608182D01*
X96012687Y-52815561D01*
X96919664Y-53724123D01*
X98105294Y-54216439D01*
X99389074Y-54217559D01*
X100575561Y-53727313D01*
X101484123Y-52820336D01*
X101976439Y-51634706D01*
X101977559Y-50350926D01*
X101487313Y-49164439D01*
X100580336Y-48255877D01*
X99394706Y-47763561D01*
X98110926Y-47762441D01*
X96924439Y-48252687D01*
X96209325Y-48966553D01*
X96616771Y-48356769D01*
X97366102Y-47856082D01*
X98316680Y-47667000D01*
X157183320Y-47667000D01*
X158133898Y-47856082D01*
X158133898Y-47856082D01*
G37*
X158133898Y-47856082D02*
X158883231Y-48356771D01*
X159292502Y-48969288D01*
X158580336Y-48255877D01*
X157394706Y-47763561D01*
X156110926Y-47762441D01*
X154924439Y-48252687D01*
X154015877Y-49159664D01*
X153523561Y-50345294D01*
X153522441Y-51629074D01*
X154012687Y-52815561D01*
X154919664Y-53724123D01*
X156105294Y-54216439D01*
X157389074Y-54217559D01*
X158575561Y-53727313D01*
X159484123Y-52820336D01*
X159573000Y-52606296D01*
X159573000Y-98371818D01*
X159487313Y-98164439D01*
X158580336Y-97255877D01*
X157394706Y-96763561D01*
X156110926Y-96762441D01*
X154924439Y-97252687D01*
X154015877Y-98159664D01*
X153523561Y-99345294D01*
X153522441Y-100629074D01*
X154012687Y-101815561D01*
X154919664Y-102724123D01*
X155133704Y-102813000D01*
X122963266Y-102813000D01*
X123810133Y-101966133D01*
X123833702Y-101930860D01*
X124033254Y-101848406D01*
X124452933Y-101429460D01*
X124459736Y-101413077D01*
X124465594Y-101427254D01*
X124884540Y-101846933D01*
X125432200Y-102074341D01*
X126025198Y-102074859D01*
X126573254Y-101848406D01*
X126992933Y-101429460D01*
X126999736Y-101413077D01*
X127005594Y-101427254D01*
X127424540Y-101846933D01*
X127972200Y-102074341D01*
X128565198Y-102074859D01*
X129113254Y-101848406D01*
X129532933Y-101429460D01*
X129539736Y-101413077D01*
X129545594Y-101427254D01*
X129964540Y-101846933D01*
X130512200Y-102074341D01*
X131105198Y-102074859D01*
X131653254Y-101848406D01*
X132072933Y-101429460D01*
X132079736Y-101413077D01*
X132085594Y-101427254D01*
X132504540Y-101846933D01*
X133052200Y-102074341D01*
X133645198Y-102074859D01*
X134193254Y-101848406D01*
X134612933Y-101429460D01*
X134619736Y-101413077D01*
X134625594Y-101427254D01*
X135044540Y-101846933D01*
X135592200Y-102074341D01*
X136185198Y-102074859D01*
X136733254Y-101848406D01*
X137152933Y-101429460D01*
X137380341Y-100881800D01*
X137380859Y-100288802D01*
X137154406Y-99740746D01*
X136934170Y-99520124D01*
X137113298Y-99445927D01*
X137291927Y-99267299D01*
X137388600Y-99033910D01*
X137388600Y-98329750D01*
X137229850Y-98171000D01*
X136017000Y-98171000D01*
X136017000Y-98191000D01*
X135763000Y-98191000D01*
X135763000Y-98171000D01*
X135743000Y-98171000D01*
X135743000Y-97917000D01*
X135763000Y-97917000D01*
X135763000Y-96704150D01*
X136017000Y-96704150D01*
X136017000Y-97917000D01*
X137229850Y-97917000D01*
X137388600Y-97758250D01*
X137388600Y-97054090D01*
X137291927Y-96820701D01*
X137113298Y-96642073D01*
X136879909Y-96545400D01*
X136175750Y-96545400D01*
X136017000Y-96704150D01*
X135763000Y-96704150D01*
X135604250Y-96545400D01*
X134900091Y-96545400D01*
X134666702Y-96642073D01*
X134488073Y-96820701D01*
X134413865Y-96999854D01*
X134195460Y-96781067D01*
X133647800Y-96553659D01*
X133054802Y-96553141D01*
X132506746Y-96779594D01*
X132087067Y-97198540D01*
X132080264Y-97214923D01*
X132074406Y-97200746D01*
X131655460Y-96781067D01*
X131107800Y-96553659D01*
X130514802Y-96553141D01*
X129966746Y-96779594D01*
X129547067Y-97198540D01*
X129540264Y-97214923D01*
X129534406Y-97200746D01*
X129115460Y-96781067D01*
X128567800Y-96553659D01*
X127974802Y-96553141D01*
X127426746Y-96779594D01*
X127007067Y-97198540D01*
X127000264Y-97214923D01*
X126994406Y-97200746D01*
X126575460Y-96781067D01*
X126027800Y-96553659D01*
X125434802Y-96553141D01*
X124886746Y-96779594D01*
X124467067Y-97198540D01*
X124451092Y-97237012D01*
X124243805Y-97169800D01*
X123369605Y-98044000D01*
X124243805Y-98918200D01*
X124450666Y-98851126D01*
X124465594Y-98887254D01*
X124884540Y-99306933D01*
X124900923Y-99313736D01*
X124886746Y-99319594D01*
X124467067Y-99738540D01*
X124460264Y-99754923D01*
X124454406Y-99740746D01*
X124035460Y-99321067D01*
X123996988Y-99305092D01*
X124064200Y-99097805D01*
X123190000Y-98223605D01*
X122315800Y-99097805D01*
X122382874Y-99304666D01*
X122346746Y-99319594D01*
X121927067Y-99738540D01*
X121920264Y-99754923D01*
X121914406Y-99740746D01*
X121495460Y-99321067D01*
X121479077Y-99314264D01*
X121493254Y-99308406D01*
X121912933Y-98889460D01*
X121928908Y-98850988D01*
X122136195Y-98918200D01*
X123010395Y-98044000D01*
X122136195Y-97169800D01*
X121929334Y-97236874D01*
X121914406Y-97200746D01*
X121704223Y-96990195D01*
X122315800Y-96990195D01*
X123190000Y-97864395D01*
X124064200Y-96990195D01*
X123982259Y-96737484D01*
X123421970Y-96533752D01*
X122826365Y-96559942D01*
X122397741Y-96737484D01*
X122315800Y-96990195D01*
X121704223Y-96990195D01*
X121495460Y-96781067D01*
X120947800Y-96553659D01*
X120354802Y-96553141D01*
X119806746Y-96779594D01*
X119387067Y-97198540D01*
X119371092Y-97237012D01*
X119163805Y-97169800D01*
X118289605Y-98044000D01*
X119163805Y-98918200D01*
X119370666Y-98851126D01*
X119385594Y-98887254D01*
X119804540Y-99306933D01*
X119820923Y-99313736D01*
X119806746Y-99319594D01*
X119387067Y-99738540D01*
X119380264Y-99754923D01*
X119374406Y-99740746D01*
X118955460Y-99321067D01*
X118916988Y-99305092D01*
X118984200Y-99097805D01*
X118110000Y-98223605D01*
X117235800Y-99097805D01*
X117302874Y-99304666D01*
X117266746Y-99319594D01*
X116847067Y-99738540D01*
X116619659Y-100286200D01*
X116619141Y-100879198D01*
X116845594Y-101427254D01*
X117264540Y-101846933D01*
X117466160Y-101930653D01*
X117489867Y-101966133D01*
X118336734Y-102813000D01*
X100368182Y-102813000D01*
X100575561Y-102727313D01*
X101484123Y-101820336D01*
X101976439Y-100634706D01*
X101976544Y-100513583D01*
X113118839Y-100513583D01*
X113259669Y-100854417D01*
X113520211Y-101115414D01*
X113860799Y-101256839D01*
X114229583Y-101257161D01*
X114570417Y-101116331D01*
X114831414Y-100855789D01*
X114881786Y-100734480D01*
X116482306Y-99133960D01*
X116602417Y-99084331D01*
X116839291Y-98847869D01*
X117056195Y-98918200D01*
X117930395Y-98044000D01*
X117056195Y-97169800D01*
X116803484Y-97251741D01*
X116680642Y-97589573D01*
X116603789Y-97512586D01*
X116263201Y-97371161D01*
X115894417Y-97370839D01*
X115553583Y-97511669D01*
X115292586Y-97772211D01*
X115242214Y-97893520D01*
X113641694Y-99494040D01*
X113521583Y-99543669D01*
X113260586Y-99804211D01*
X113119161Y-100144799D01*
X113118839Y-100513583D01*
X101976544Y-100513583D01*
X101977559Y-99350926D01*
X101487313Y-98164439D01*
X100580336Y-97255877D01*
X99940502Y-96990195D01*
X117235800Y-96990195D01*
X118110000Y-97864395D01*
X118984200Y-96990195D01*
X118902259Y-96737484D01*
X118341970Y-96533752D01*
X117746365Y-96559942D01*
X117317741Y-96737484D01*
X117235800Y-96990195D01*
X99940502Y-96990195D01*
X99394706Y-96763561D01*
X98110926Y-96762441D01*
X96924439Y-97252687D01*
X96015877Y-98159664D01*
X95927000Y-98373704D01*
X95927000Y-87813583D01*
X121246839Y-87813583D01*
X121387669Y-88154417D01*
X121648211Y-88415414D01*
X121988799Y-88556839D01*
X122072778Y-88556912D01*
X122675933Y-89160067D01*
X122911789Y-89317660D01*
X122957948Y-89326842D01*
X123190000Y-89373001D01*
X123190005Y-89373000D01*
X125176424Y-89373000D01*
X125197669Y-89424417D01*
X125458211Y-89685414D01*
X125798799Y-89826839D01*
X126167583Y-89827161D01*
X126508417Y-89686331D01*
X126769414Y-89425789D01*
X126910839Y-89085201D01*
X126911161Y-88716417D01*
X126770331Y-88375583D01*
X126509789Y-88114586D01*
X126169201Y-87973161D01*
X126001548Y-87973015D01*
X125962052Y-87965158D01*
X125730000Y-87918999D01*
X125729995Y-87919000D01*
X123491134Y-87919000D01*
X123101089Y-87528955D01*
X123101161Y-87446417D01*
X122960331Y-87105583D01*
X122699789Y-86844586D01*
X122359201Y-86703161D01*
X121990417Y-86702839D01*
X121649583Y-86843669D01*
X121388586Y-87104211D01*
X121247161Y-87444799D01*
X121246839Y-87813583D01*
X95927000Y-87813583D01*
X95927000Y-84350030D01*
X96279752Y-84350030D01*
X96305942Y-84945635D01*
X96483484Y-85374259D01*
X96736195Y-85456200D01*
X97610395Y-84582000D01*
X96736195Y-83707800D01*
X96483484Y-83789741D01*
X96279752Y-84350030D01*
X95927000Y-84350030D01*
X95927000Y-79270030D01*
X96279752Y-79270030D01*
X96305942Y-79865635D01*
X96483484Y-80294259D01*
X96736195Y-80376200D01*
X97610395Y-79502000D01*
X96736195Y-78627800D01*
X96483484Y-78709741D01*
X96279752Y-79270030D01*
X95927000Y-79270030D01*
X95927000Y-67097198D01*
X96299141Y-67097198D01*
X96525594Y-67645254D01*
X96944540Y-68064933D01*
X96960923Y-68071736D01*
X96946746Y-68077594D01*
X96527067Y-68496540D01*
X96299659Y-69044200D01*
X96299141Y-69637198D01*
X96525594Y-70185254D01*
X96944540Y-70604933D01*
X96960923Y-70611736D01*
X96946746Y-70617594D01*
X96527067Y-71036540D01*
X96299659Y-71584200D01*
X96299141Y-72177198D01*
X96525594Y-72725254D01*
X96944540Y-73144933D01*
X96960923Y-73151736D01*
X96946746Y-73157594D01*
X96527067Y-73576540D01*
X96299659Y-74124200D01*
X96299141Y-74717198D01*
X96525594Y-75265254D01*
X96944540Y-75684933D01*
X96960923Y-75691736D01*
X96946746Y-75697594D01*
X96527067Y-76116540D01*
X96299659Y-76664200D01*
X96299141Y-77257198D01*
X96525594Y-77805254D01*
X96944540Y-78224933D01*
X96983012Y-78240908D01*
X96915800Y-78448195D01*
X97790000Y-79322395D01*
X97804143Y-79308253D01*
X97983748Y-79487858D01*
X97969605Y-79502000D01*
X98843805Y-80376200D01*
X99050666Y-80309126D01*
X99065594Y-80345254D01*
X99484540Y-80764933D01*
X99500923Y-80771736D01*
X99486746Y-80777594D01*
X99067067Y-81196540D01*
X99060264Y-81212923D01*
X99054406Y-81198746D01*
X98635460Y-80779067D01*
X98596988Y-80763092D01*
X98664200Y-80555805D01*
X97790000Y-79681605D01*
X96915800Y-80555805D01*
X96982874Y-80762666D01*
X96946746Y-80777594D01*
X96527067Y-81196540D01*
X96299659Y-81744200D01*
X96299141Y-82337198D01*
X96525594Y-82885254D01*
X96944540Y-83304933D01*
X96983012Y-83320908D01*
X96915800Y-83528195D01*
X97790000Y-84402395D01*
X98664200Y-83528195D01*
X98597126Y-83321334D01*
X98633254Y-83306406D01*
X99052933Y-82887460D01*
X99059736Y-82871077D01*
X99065594Y-82885254D01*
X99291896Y-83111952D01*
X99234048Y-83122837D01*
X99020647Y-83260157D01*
X98877483Y-83469683D01*
X98827117Y-83718400D01*
X98827117Y-83724488D01*
X97969605Y-84582000D01*
X97983748Y-84596143D01*
X97804143Y-84775748D01*
X97790000Y-84761605D01*
X96915800Y-85635805D01*
X96997741Y-85888516D01*
X97558030Y-86092248D01*
X98153635Y-86066058D01*
X98582259Y-85888516D01*
X98664199Y-85635807D01*
X98778867Y-85750475D01*
X98867757Y-85661585D01*
X98870837Y-85677952D01*
X99008157Y-85891353D01*
X99217683Y-86034517D01*
X99466400Y-86084883D01*
X101193600Y-86084883D01*
X101425952Y-86041163D01*
X101639353Y-85903843D01*
X101782517Y-85694317D01*
X101832883Y-85445600D01*
X101832883Y-83749583D01*
X113880839Y-83749583D01*
X114021669Y-84090417D01*
X114282211Y-84351414D01*
X114403520Y-84401786D01*
X116219867Y-86218133D01*
X116504387Y-86408242D01*
X116840000Y-86475001D01*
X116840005Y-86475000D01*
X119582774Y-86475000D01*
X119702799Y-86524839D01*
X120071583Y-86525161D01*
X120412417Y-86384331D01*
X120673414Y-86123789D01*
X120814839Y-85783201D01*
X120815161Y-85414417D01*
X120674331Y-85073583D01*
X120413789Y-84812586D01*
X120073201Y-84671161D01*
X119704417Y-84670839D01*
X119583018Y-84721000D01*
X117203266Y-84721000D01*
X115643960Y-83161694D01*
X115594331Y-83041583D01*
X115333789Y-82780586D01*
X114993201Y-82639161D01*
X114624417Y-82638839D01*
X114283583Y-82779669D01*
X114022586Y-83040211D01*
X113881161Y-83380799D01*
X113880839Y-83749583D01*
X101832883Y-83749583D01*
X101832883Y-83718400D01*
X101789163Y-83486048D01*
X101651843Y-83272647D01*
X101442317Y-83129483D01*
X101365973Y-83114023D01*
X101592933Y-82887460D01*
X101820341Y-82339800D01*
X101820859Y-81746802D01*
X101594406Y-81198746D01*
X101175460Y-80779067D01*
X101159077Y-80772264D01*
X101173254Y-80766406D01*
X101592933Y-80347460D01*
X101820341Y-79799800D01*
X101820859Y-79206802D01*
X101594406Y-78658746D01*
X101516965Y-78581169D01*
X108794550Y-71303583D01*
X109816839Y-71303583D01*
X109957669Y-71644417D01*
X110218211Y-71905414D01*
X110558799Y-72046839D01*
X110927583Y-72047161D01*
X111268417Y-71906331D01*
X111529414Y-71645789D01*
X111579786Y-71524480D01*
X113434306Y-69669960D01*
X113554417Y-69620331D01*
X113815414Y-69359789D01*
X113956839Y-69019201D01*
X113957161Y-68650417D01*
X113816331Y-68309583D01*
X113555789Y-68048586D01*
X113215201Y-67907161D01*
X112846417Y-67906839D01*
X112505583Y-68047669D01*
X112244586Y-68308211D01*
X112194214Y-68429520D01*
X110339694Y-70284040D01*
X110219583Y-70333669D01*
X109958586Y-70594211D01*
X109817161Y-70934799D01*
X109816839Y-71303583D01*
X108794550Y-71303583D01*
X109226064Y-70872069D01*
X109226067Y-70872067D01*
X109383660Y-70636211D01*
X109383661Y-70636210D01*
X109439001Y-70358000D01*
X109439000Y-70357995D01*
X109439000Y-65309750D01*
X136827000Y-65309750D01*
X136827000Y-65950310D01*
X136923673Y-66183699D01*
X137102302Y-66362327D01*
X137335691Y-66459000D01*
X138176250Y-66459000D01*
X138335000Y-66300250D01*
X138335000Y-65151000D01*
X138589000Y-65151000D01*
X138589000Y-66300250D01*
X138747750Y-66459000D01*
X139588309Y-66459000D01*
X139821698Y-66362327D01*
X140000327Y-66183699D01*
X140097000Y-65950310D01*
X140097000Y-65309750D01*
X139938250Y-65151000D01*
X138589000Y-65151000D01*
X138335000Y-65151000D01*
X136985750Y-65151000D01*
X136827000Y-65309750D01*
X109439000Y-65309750D01*
X109439000Y-64097690D01*
X136827000Y-64097690D01*
X136827000Y-64738250D01*
X136985750Y-64897000D01*
X138335000Y-64897000D01*
X138335000Y-63747750D01*
X138589000Y-63747750D01*
X138589000Y-64897000D01*
X139938250Y-64897000D01*
X140097000Y-64738250D01*
X140097000Y-64224000D01*
X140822717Y-64224000D01*
X140822717Y-65824000D01*
X140866437Y-66056352D01*
X141003757Y-66269753D01*
X141213283Y-66412917D01*
X141462000Y-66463283D01*
X143462000Y-66463283D01*
X143694352Y-66419563D01*
X143907753Y-66282243D01*
X144050917Y-66072717D01*
X144059568Y-66029996D01*
X144430002Y-66400430D01*
X144418670Y-66427722D01*
X144418192Y-66975753D01*
X144627472Y-67482251D01*
X145014651Y-67870106D01*
X145520782Y-68080270D01*
X146068813Y-68080748D01*
X146575311Y-67871468D01*
X146963166Y-67484289D01*
X147173330Y-66978158D01*
X147173808Y-66430127D01*
X146964528Y-65923629D01*
X146577349Y-65535774D01*
X146071218Y-65325610D01*
X145523187Y-65325132D01*
X145493816Y-65337268D01*
X144648804Y-64492256D01*
X144404838Y-64329243D01*
X144117060Y-64272000D01*
X144101283Y-64272000D01*
X144101283Y-64224000D01*
X144057563Y-63991648D01*
X143920243Y-63778247D01*
X143710717Y-63635083D01*
X143462000Y-63584717D01*
X141462000Y-63584717D01*
X141229648Y-63628437D01*
X141016247Y-63765757D01*
X140873083Y-63975283D01*
X140822717Y-64224000D01*
X140097000Y-64224000D01*
X140097000Y-64097690D01*
X140000327Y-63864301D01*
X139821698Y-63685673D01*
X139588309Y-63589000D01*
X138747750Y-63589000D01*
X138589000Y-63747750D01*
X138335000Y-63747750D01*
X138176250Y-63589000D01*
X137335691Y-63589000D01*
X137102302Y-63685673D01*
X136923673Y-63864301D01*
X136827000Y-64097690D01*
X109439000Y-64097690D01*
X109439000Y-61753750D01*
X136827000Y-61753750D01*
X136827000Y-62394310D01*
X136923673Y-62627699D01*
X137102302Y-62806327D01*
X137335691Y-62903000D01*
X138176250Y-62903000D01*
X138335000Y-62744250D01*
X138335000Y-61595000D01*
X138589000Y-61595000D01*
X138589000Y-62744250D01*
X138747750Y-62903000D01*
X139588309Y-62903000D01*
X139821698Y-62806327D01*
X140000327Y-62627699D01*
X140097000Y-62394310D01*
X140097000Y-61753750D01*
X139938250Y-61595000D01*
X138589000Y-61595000D01*
X138335000Y-61595000D01*
X136985750Y-61595000D01*
X136827000Y-61753750D01*
X109439000Y-61753750D01*
X109439000Y-60541690D01*
X136827000Y-60541690D01*
X136827000Y-61182250D01*
X136985750Y-61341000D01*
X138335000Y-61341000D01*
X138335000Y-60191750D01*
X138589000Y-60191750D01*
X138589000Y-61341000D01*
X139938250Y-61341000D01*
X140097000Y-61182250D01*
X140097000Y-60668000D01*
X140822717Y-60668000D01*
X140822717Y-62268000D01*
X140866437Y-62500352D01*
X141003757Y-62713753D01*
X141213283Y-62856917D01*
X141462000Y-62907283D01*
X143462000Y-62907283D01*
X143694352Y-62863563D01*
X143907753Y-62726243D01*
X144050917Y-62516717D01*
X144101283Y-62268000D01*
X144101283Y-62220000D01*
X144470306Y-62220000D01*
X144627472Y-62600371D01*
X145014651Y-62988226D01*
X145520782Y-63198390D01*
X146068813Y-63198868D01*
X146575311Y-62989588D01*
X146963166Y-62602409D01*
X147173330Y-62096278D01*
X147173808Y-61548247D01*
X146964528Y-61041749D01*
X146577349Y-60653894D01*
X146071218Y-60443730D01*
X145523187Y-60443252D01*
X145016689Y-60652532D01*
X144953110Y-60716000D01*
X144101283Y-60716000D01*
X144101283Y-60668000D01*
X144057563Y-60435648D01*
X143920243Y-60222247D01*
X143710717Y-60079083D01*
X143462000Y-60028717D01*
X141462000Y-60028717D01*
X141229648Y-60072437D01*
X141016247Y-60209757D01*
X140873083Y-60419283D01*
X140822717Y-60668000D01*
X140097000Y-60668000D01*
X140097000Y-60541690D01*
X140000327Y-60308301D01*
X139821698Y-60129673D01*
X139588309Y-60033000D01*
X138747750Y-60033000D01*
X138589000Y-60191750D01*
X138335000Y-60191750D01*
X138176250Y-60033000D01*
X137335691Y-60033000D01*
X137102302Y-60129673D01*
X136923673Y-60308301D01*
X136827000Y-60541690D01*
X109439000Y-60541690D01*
X109439000Y-57197133D01*
X109480064Y-57156069D01*
X109480067Y-57156067D01*
X113036064Y-53600069D01*
X113036067Y-53600067D01*
X113059373Y-53565187D01*
X113420974Y-53714958D01*
X113653000Y-53593817D01*
X113653000Y-52387000D01*
X113633000Y-52387000D01*
X113633000Y-52133000D01*
X113653000Y-52133000D01*
X113653000Y-52113000D01*
X113907000Y-52113000D01*
X113907000Y-52133000D01*
X113927000Y-52133000D01*
X113927000Y-52387000D01*
X113907000Y-52387000D01*
X113907000Y-53593817D01*
X114139026Y-53714958D01*
X114554947Y-53542688D01*
X114986821Y-53148490D01*
X115048269Y-53017379D01*
X115265987Y-53343216D01*
X115749572Y-53666338D01*
X116320000Y-53779803D01*
X116890428Y-53666338D01*
X117374013Y-53343216D01*
X117590000Y-53019969D01*
X117805987Y-53343216D01*
X118289572Y-53666338D01*
X118860000Y-53779803D01*
X119430428Y-53666338D01*
X119914013Y-53343216D01*
X120130000Y-53019969D01*
X120345987Y-53343216D01*
X120829572Y-53666338D01*
X121400000Y-53779803D01*
X121970428Y-53666338D01*
X122454013Y-53343216D01*
X122670000Y-53019969D01*
X122885987Y-53343216D01*
X123369572Y-53666338D01*
X123940000Y-53779803D01*
X124510428Y-53666338D01*
X124994013Y-53343216D01*
X125210000Y-53019969D01*
X125425987Y-53343216D01*
X125429582Y-53345618D01*
X125198586Y-53576211D01*
X125057161Y-53916799D01*
X125056839Y-54285583D01*
X125197669Y-54626417D01*
X125458211Y-54887414D01*
X125798799Y-55028839D01*
X125882779Y-55028912D01*
X126231931Y-55378064D01*
X126231933Y-55378067D01*
X126467789Y-55535660D01*
X126513948Y-55544842D01*
X126746000Y-55591001D01*
X126746005Y-55591000D01*
X135813899Y-55591000D01*
X135872211Y-55649414D01*
X136212799Y-55790839D01*
X136581583Y-55791161D01*
X136922417Y-55650331D01*
X137183414Y-55389789D01*
X137324839Y-55049201D01*
X137325161Y-54680417D01*
X137184331Y-54339583D01*
X136923789Y-54078586D01*
X136583201Y-53937161D01*
X136214417Y-53936839D01*
X135873583Y-54077669D01*
X135814148Y-54137000D01*
X132244970Y-54137000D01*
X132245161Y-53918417D01*
X132138716Y-53660800D01*
X132614013Y-53343216D01*
X132831731Y-53017379D01*
X132893179Y-53148490D01*
X133325053Y-53542688D01*
X133740974Y-53714958D01*
X133973000Y-53593817D01*
X133973000Y-52387000D01*
X133953000Y-52387000D01*
X133953000Y-52133000D01*
X133973000Y-52133000D01*
X133973000Y-52113000D01*
X134227000Y-52113000D01*
X134227000Y-52133000D01*
X134247000Y-52133000D01*
X134247000Y-52387000D01*
X134227000Y-52387000D01*
X134227000Y-53593817D01*
X134459026Y-53714958D01*
X134874947Y-53542688D01*
X135306821Y-53148490D01*
X135368269Y-53017379D01*
X135585987Y-53343216D01*
X136069572Y-53666338D01*
X136640000Y-53779803D01*
X137210428Y-53666338D01*
X137694013Y-53343216D01*
X137910000Y-53019969D01*
X138125987Y-53343216D01*
X138477784Y-53578280D01*
X138485243Y-53615778D01*
X138648256Y-53859744D01*
X139168256Y-54379744D01*
X139412222Y-54542757D01*
X139700000Y-54600000D01*
X141166512Y-54600000D01*
X145010256Y-58443744D01*
X145254222Y-58606757D01*
X145542000Y-58664000D01*
X147262512Y-58664000D01*
X148058256Y-59459744D01*
X148302222Y-59622757D01*
X148590000Y-59680000D01*
X151840855Y-59680000D01*
X151874211Y-59713414D01*
X152214799Y-59854839D01*
X152583583Y-59855161D01*
X152924417Y-59714331D01*
X153185414Y-59453789D01*
X153326839Y-59113201D01*
X153327161Y-58744417D01*
X153186331Y-58403583D01*
X152925789Y-58142586D01*
X152585201Y-58001161D01*
X152565145Y-58001143D01*
X152565161Y-57982417D01*
X152424331Y-57641583D01*
X152163789Y-57380586D01*
X151823201Y-57239161D01*
X151803145Y-57239143D01*
X151803161Y-57220417D01*
X151662331Y-56879583D01*
X151401789Y-56618586D01*
X151061201Y-56477161D01*
X151041145Y-56477143D01*
X151041161Y-56458417D01*
X150900331Y-56117583D01*
X150639789Y-55856586D01*
X150299201Y-55715161D01*
X150250607Y-55715119D01*
X149629744Y-55094256D01*
X149385778Y-54931243D01*
X149098000Y-54874000D01*
X147631489Y-54874000D01*
X146472060Y-53714572D01*
X146800000Y-53779803D01*
X147370428Y-53666338D01*
X147854013Y-53343216D01*
X148070000Y-53019969D01*
X148285987Y-53343216D01*
X148769572Y-53666338D01*
X149340000Y-53779803D01*
X149910428Y-53666338D01*
X150394013Y-53343216D01*
X150611731Y-53017379D01*
X150673179Y-53148490D01*
X151105053Y-53542688D01*
X151520974Y-53714958D01*
X151753000Y-53593817D01*
X151753000Y-52387000D01*
X152007000Y-52387000D01*
X152007000Y-53593817D01*
X152239026Y-53714958D01*
X152654947Y-53542688D01*
X153086821Y-53148490D01*
X153334968Y-52619027D01*
X153214469Y-52387000D01*
X152007000Y-52387000D01*
X151753000Y-52387000D01*
X151733000Y-52387000D01*
X151733000Y-52133000D01*
X151753000Y-52133000D01*
X151753000Y-52113000D01*
X152007000Y-52113000D01*
X152007000Y-52133000D01*
X153214469Y-52133000D01*
X153334968Y-51900973D01*
X153086821Y-51371510D01*
X152662772Y-50984454D01*
X152934013Y-50803216D01*
X153257135Y-50319631D01*
X153370600Y-49749203D01*
X153370600Y-49690797D01*
X153257135Y-49120369D01*
X152934013Y-48636784D01*
X152450428Y-48313662D01*
X151880000Y-48200197D01*
X151309572Y-48313662D01*
X150825987Y-48636784D01*
X150610000Y-48960031D01*
X150394013Y-48636784D01*
X149910428Y-48313662D01*
X149340000Y-48200197D01*
X148769572Y-48313662D01*
X148285987Y-48636784D01*
X148070000Y-48960031D01*
X147854013Y-48636784D01*
X147370428Y-48313662D01*
X146800000Y-48200197D01*
X146229572Y-48313662D01*
X145745987Y-48636784D01*
X145528269Y-48962621D01*
X145466821Y-48831510D01*
X145034947Y-48437312D01*
X144619026Y-48265042D01*
X144387000Y-48386183D01*
X144387000Y-49593000D01*
X144407000Y-49593000D01*
X144407000Y-49847000D01*
X144387000Y-49847000D01*
X144387000Y-49867000D01*
X144133000Y-49867000D01*
X144133000Y-49847000D01*
X144113000Y-49847000D01*
X144113000Y-49593000D01*
X144133000Y-49593000D01*
X144133000Y-48386183D01*
X143900974Y-48265042D01*
X143485053Y-48437312D01*
X143053179Y-48831510D01*
X142991731Y-48962621D01*
X142774013Y-48636784D01*
X142290428Y-48313662D01*
X141720000Y-48200197D01*
X141149572Y-48313662D01*
X140665987Y-48636784D01*
X140448269Y-48962621D01*
X140386821Y-48831510D01*
X139954947Y-48437312D01*
X139539026Y-48265042D01*
X139307000Y-48386183D01*
X139307000Y-49593000D01*
X139327000Y-49593000D01*
X139327000Y-49847000D01*
X139307000Y-49847000D01*
X139307000Y-49867000D01*
X139053000Y-49867000D01*
X139053000Y-49847000D01*
X139033000Y-49847000D01*
X139033000Y-49593000D01*
X139053000Y-49593000D01*
X139053000Y-48386183D01*
X138820974Y-48265042D01*
X138405053Y-48437312D01*
X137973179Y-48831510D01*
X137911731Y-48962621D01*
X137694013Y-48636784D01*
X137210428Y-48313662D01*
X136640000Y-48200197D01*
X136069572Y-48313662D01*
X135585987Y-48636784D01*
X135370000Y-48960031D01*
X135154013Y-48636784D01*
X134670428Y-48313662D01*
X134100000Y-48200197D01*
X133529572Y-48313662D01*
X133045987Y-48636784D01*
X132830000Y-48960031D01*
X132614013Y-48636784D01*
X132130428Y-48313662D01*
X131560000Y-48200197D01*
X130989572Y-48313662D01*
X130505987Y-48636784D01*
X130290000Y-48960031D01*
X130074013Y-48636784D01*
X129590428Y-48313662D01*
X129020000Y-48200197D01*
X128449572Y-48313662D01*
X127965987Y-48636784D01*
X127748269Y-48962621D01*
X127686821Y-48831510D01*
X127254947Y-48437312D01*
X126839026Y-48265042D01*
X126607000Y-48386183D01*
X126607000Y-49593000D01*
X126627000Y-49593000D01*
X126627000Y-49847000D01*
X126607000Y-49847000D01*
X126607000Y-49867000D01*
X126353000Y-49867000D01*
X126353000Y-49847000D01*
X126333000Y-49847000D01*
X126333000Y-49593000D01*
X126353000Y-49593000D01*
X126353000Y-48386183D01*
X126120974Y-48265042D01*
X125705053Y-48437312D01*
X125273179Y-48831510D01*
X125211731Y-48962621D01*
X124994013Y-48636784D01*
X124510428Y-48313662D01*
X123940000Y-48200197D01*
X123369572Y-48313662D01*
X122885987Y-48636784D01*
X122670000Y-48960031D01*
X122454013Y-48636784D01*
X121970428Y-48313662D01*
X121400000Y-48200197D01*
X120829572Y-48313662D01*
X120345987Y-48636784D01*
X120128269Y-48962621D01*
X120066821Y-48831510D01*
X119634947Y-48437312D01*
X119219026Y-48265042D01*
X118987000Y-48386183D01*
X118987000Y-49593000D01*
X119007000Y-49593000D01*
X119007000Y-49847000D01*
X118987000Y-49847000D01*
X118987000Y-49867000D01*
X118733000Y-49867000D01*
X118733000Y-49847000D01*
X118713000Y-49847000D01*
X118713000Y-49593000D01*
X118733000Y-49593000D01*
X118733000Y-48386183D01*
X118500974Y-48265042D01*
X118085053Y-48437312D01*
X117653179Y-48831510D01*
X117591731Y-48962621D01*
X117374013Y-48636784D01*
X116890428Y-48313662D01*
X116320000Y-48200197D01*
X115749572Y-48313662D01*
X115265987Y-48636784D01*
X115050000Y-48960031D01*
X114834013Y-48636784D01*
X114350428Y-48313662D01*
X113780000Y-48200197D01*
X113209572Y-48313662D01*
X112725987Y-48636784D01*
X112510000Y-48960031D01*
X112294013Y-48636784D01*
X111810428Y-48313662D01*
X111240000Y-48200197D01*
X110669572Y-48313662D01*
X110185987Y-48636784D01*
X109968269Y-48962621D01*
X109906821Y-48831510D01*
X109474947Y-48437312D01*
X109059026Y-48265042D01*
X108827000Y-48386183D01*
X108827000Y-49593000D01*
X108847000Y-49593000D01*
X108847000Y-49847000D01*
X108827000Y-49847000D01*
X108827000Y-49867000D01*
X108573000Y-49867000D01*
X108573000Y-49847000D01*
X108553000Y-49847000D01*
X108553000Y-49593000D01*
X108573000Y-49593000D01*
X108573000Y-48386183D01*
X108340974Y-48265042D01*
X107925053Y-48437312D01*
X107493179Y-48831510D01*
X107431731Y-48962621D01*
X107214013Y-48636784D01*
X106730428Y-48313662D01*
X106160000Y-48200197D01*
X105589572Y-48313662D01*
X105105987Y-48636784D01*
X104890000Y-48960031D01*
X104674013Y-48636784D01*
X104190428Y-48313662D01*
X103620000Y-48200197D01*
X103049572Y-48313662D01*
X102565987Y-48636784D01*
X102242865Y-49120369D01*
X102129400Y-49690797D01*
X102129400Y-49749203D01*
X102242865Y-50319631D01*
X102559891Y-50794093D01*
X102524048Y-50800837D01*
X102310647Y-50938157D01*
X102167483Y-51147683D01*
X102117117Y-51396400D01*
X102117117Y-53123600D01*
X102160837Y-53355952D01*
X102298157Y-53569353D01*
X102507683Y-53712517D01*
X102756400Y-53762883D01*
X104483600Y-53762883D01*
X104715952Y-53719163D01*
X104929353Y-53581843D01*
X105072517Y-53372317D01*
X105084824Y-53311543D01*
X105105987Y-53343216D01*
X105433000Y-53561720D01*
X105433000Y-65519995D01*
X105432999Y-65520000D01*
X105445000Y-65580331D01*
X105445000Y-65963899D01*
X105386586Y-66022211D01*
X105245161Y-66362799D01*
X105244839Y-66731583D01*
X105385669Y-67072417D01*
X105646211Y-67333414D01*
X105745759Y-67374750D01*
X105893789Y-67473660D01*
X106007993Y-67496377D01*
X106147669Y-67834417D01*
X106408211Y-68095414D01*
X106748799Y-68236839D01*
X107117583Y-68237161D01*
X107223000Y-68193604D01*
X107223000Y-69040867D01*
X101820583Y-74443284D01*
X101820859Y-74126802D01*
X101594406Y-73578746D01*
X101175460Y-73159067D01*
X101159077Y-73152264D01*
X101173254Y-73146406D01*
X101592933Y-72727460D01*
X101820341Y-72179800D01*
X101820859Y-71586802D01*
X101594406Y-71038746D01*
X101175460Y-70619067D01*
X101159077Y-70612264D01*
X101173254Y-70606406D01*
X101592933Y-70187460D01*
X101820341Y-69639800D01*
X101820859Y-69046802D01*
X101594406Y-68498746D01*
X101175460Y-68079067D01*
X101159077Y-68072264D01*
X101173254Y-68066406D01*
X101592933Y-67647460D01*
X101820341Y-67099800D01*
X101820859Y-66506802D01*
X101594406Y-65958746D01*
X101175460Y-65539067D01*
X100627800Y-65311659D01*
X100034802Y-65311141D01*
X99486746Y-65537594D01*
X99067067Y-65956540D01*
X99060264Y-65972923D01*
X99054406Y-65958746D01*
X98635460Y-65539067D01*
X98087800Y-65311659D01*
X97494802Y-65311141D01*
X96946746Y-65537594D01*
X96527067Y-65956540D01*
X96299659Y-66504200D01*
X96299141Y-67097198D01*
X95927000Y-67097198D01*
X95927000Y-52608182D01*
X96012687Y-52815561D01*
X96919664Y-53724123D01*
X98105294Y-54216439D01*
X99389074Y-54217559D01*
X100575561Y-53727313D01*
X101484123Y-52820336D01*
X101976439Y-51634706D01*
X101977559Y-50350926D01*
X101487313Y-49164439D01*
X100580336Y-48255877D01*
X99394706Y-47763561D01*
X98110926Y-47762441D01*
X96924439Y-48252687D01*
X96209325Y-48966553D01*
X96616771Y-48356769D01*
X97366102Y-47856082D01*
X98316680Y-47667000D01*
X157183320Y-47667000D01*
X158133898Y-47856082D01*
M02*
