G04 #@! TF.FileFunction,Legend,Top*
%FSLAX46Y46*%
G04 Gerber Fmt 4.6, Leading zero omitted, Abs format (unit mm)*
G04 Created by KiCad (PCBNEW 4.0.2-1.fc23-product) date Wed 14 Dec 2016 11:24:26 GMT*
%MOMM*%
G01*
G04 APERTURE LIST*
%ADD10C,0.100000*%
%ADD11C,0.200000*%
%ADD12C,0.150000*%
%ADD13C,0.203200*%
%ADD14C,0.152400*%
G04 APERTURE END LIST*
D10*
D11*
X149860000Y-54356000D02*
X158242000Y-54356000D01*
X149860000Y-71628000D02*
X149860000Y-54356000D01*
X158242000Y-71628000D02*
X158242000Y-54356000D01*
X149860000Y-71628000D02*
X158242000Y-71628000D01*
X157480000Y-72263000D02*
X157480000Y-72136000D01*
X152045000Y-67919000D02*
X152111667Y-67719000D01*
X152178333Y-67652333D01*
X152311667Y-67585667D01*
X152511667Y-67585667D01*
X152645000Y-67652333D01*
X152711667Y-67719000D01*
X152778333Y-67852333D01*
X152778333Y-68385667D01*
X151378333Y-68385667D01*
X151378333Y-67919000D01*
X151445000Y-67785667D01*
X151511667Y-67719000D01*
X151645000Y-67652333D01*
X151778333Y-67652333D01*
X151911667Y-67719000D01*
X151978333Y-67785667D01*
X152045000Y-67919000D01*
X152045000Y-68385667D01*
X151378333Y-66319000D02*
X151378333Y-66985667D01*
X152045000Y-67052333D01*
X151978333Y-66985667D01*
X151911667Y-66852333D01*
X151911667Y-66519000D01*
X151978333Y-66385667D01*
X152045000Y-66319000D01*
X152178333Y-66252333D01*
X152511667Y-66252333D01*
X152645000Y-66319000D01*
X152711667Y-66385667D01*
X152778333Y-66519000D01*
X152778333Y-66852333D01*
X152711667Y-66985667D01*
X152645000Y-67052333D01*
X151511667Y-65719000D02*
X151445000Y-65652334D01*
X151378333Y-65519000D01*
X151378333Y-65185667D01*
X151445000Y-65052334D01*
X151511667Y-64985667D01*
X151645000Y-64919000D01*
X151778333Y-64919000D01*
X151978333Y-64985667D01*
X152778333Y-65785667D01*
X152778333Y-64919000D01*
X151311667Y-63319001D02*
X153111667Y-64519001D01*
X152778333Y-62052334D02*
X152111667Y-62519000D01*
X152778333Y-62852334D02*
X151378333Y-62852334D01*
X151378333Y-62319000D01*
X151445000Y-62185667D01*
X151511667Y-62119000D01*
X151645000Y-62052334D01*
X151845000Y-62052334D01*
X151978333Y-62119000D01*
X152045000Y-62185667D01*
X152111667Y-62319000D01*
X152111667Y-62852334D01*
X151378333Y-61185667D02*
X151378333Y-60919000D01*
X151445000Y-60785667D01*
X151578333Y-60652334D01*
X151845000Y-60585667D01*
X152311667Y-60585667D01*
X152578333Y-60652334D01*
X152711667Y-60785667D01*
X152778333Y-60919000D01*
X152778333Y-61185667D01*
X152711667Y-61319000D01*
X152578333Y-61452334D01*
X152311667Y-61519000D01*
X151845000Y-61519000D01*
X151578333Y-61452334D01*
X151445000Y-61319000D01*
X151378333Y-61185667D01*
X152378333Y-60052333D02*
X152378333Y-59385667D01*
X152778333Y-60185667D02*
X151378333Y-59719000D01*
X152778333Y-59252333D01*
X152778333Y-58785667D02*
X151378333Y-58785667D01*
X152378333Y-58319000D01*
X151378333Y-57852333D01*
X152778333Y-57852333D01*
X154938333Y-70052333D02*
X154271667Y-70518999D01*
X154938333Y-70852333D02*
X153538333Y-70852333D01*
X153538333Y-70318999D01*
X153605000Y-70185666D01*
X153671667Y-70118999D01*
X153805000Y-70052333D01*
X154005000Y-70052333D01*
X154138333Y-70118999D01*
X154205000Y-70185666D01*
X154271667Y-70318999D01*
X154271667Y-70852333D01*
X154205000Y-69452333D02*
X154205000Y-68985666D01*
X154938333Y-68785666D02*
X154938333Y-69452333D01*
X153538333Y-69452333D01*
X153538333Y-68785666D01*
X153538333Y-68385666D02*
X154938333Y-67918999D01*
X153538333Y-67452332D01*
X154938333Y-66252332D02*
X154938333Y-67052332D01*
X154938333Y-66652332D02*
X153538333Y-66652332D01*
X153738333Y-66785666D01*
X153871667Y-66918999D01*
X153938333Y-67052332D01*
X153471667Y-64652333D02*
X155271667Y-65852333D01*
X153671667Y-64252332D02*
X153605000Y-64185666D01*
X153538333Y-64052332D01*
X153538333Y-63718999D01*
X153605000Y-63585666D01*
X153671667Y-63518999D01*
X153805000Y-63452332D01*
X153938333Y-63452332D01*
X154138333Y-63518999D01*
X154938333Y-64318999D01*
X154938333Y-63452332D01*
X153538333Y-62585666D02*
X153538333Y-62452333D01*
X153605000Y-62318999D01*
X153671667Y-62252333D01*
X153805000Y-62185666D01*
X154071667Y-62118999D01*
X154405000Y-62118999D01*
X154671667Y-62185666D01*
X154805000Y-62252333D01*
X154871667Y-62318999D01*
X154938333Y-62452333D01*
X154938333Y-62585666D01*
X154871667Y-62718999D01*
X154805000Y-62785666D01*
X154671667Y-62852333D01*
X154405000Y-62918999D01*
X154071667Y-62918999D01*
X153805000Y-62852333D01*
X153671667Y-62785666D01*
X153605000Y-62718999D01*
X153538333Y-62585666D01*
X154938333Y-60785666D02*
X154938333Y-61585666D01*
X154938333Y-61185666D02*
X153538333Y-61185666D01*
X153738333Y-61319000D01*
X153871667Y-61452333D01*
X153938333Y-61585666D01*
X153538333Y-59585667D02*
X153538333Y-59852333D01*
X153605000Y-59985667D01*
X153671667Y-60052333D01*
X153871667Y-60185667D01*
X154138333Y-60252333D01*
X154671667Y-60252333D01*
X154805000Y-60185667D01*
X154871667Y-60119000D01*
X154938333Y-59985667D01*
X154938333Y-59719000D01*
X154871667Y-59585667D01*
X154805000Y-59519000D01*
X154671667Y-59452333D01*
X154338333Y-59452333D01*
X154205000Y-59519000D01*
X154138333Y-59585667D01*
X154071667Y-59719000D01*
X154071667Y-59985667D01*
X154138333Y-60119000D01*
X154205000Y-60185667D01*
X154338333Y-60252333D01*
X153471667Y-57852334D02*
X155271667Y-59052334D01*
X154938333Y-56652333D02*
X154938333Y-57452333D01*
X154938333Y-57052333D02*
X153538333Y-57052333D01*
X153738333Y-57185667D01*
X153871667Y-57319000D01*
X153938333Y-57452333D01*
X153671667Y-56119000D02*
X153605000Y-56052334D01*
X153538333Y-55919000D01*
X153538333Y-55585667D01*
X153605000Y-55452334D01*
X153671667Y-55385667D01*
X153805000Y-55319000D01*
X153938333Y-55319000D01*
X154138333Y-55385667D01*
X154938333Y-56185667D01*
X154938333Y-55319000D01*
X156365000Y-68819001D02*
X156365000Y-68352334D01*
X157098333Y-68152334D02*
X157098333Y-68819001D01*
X155698333Y-68819001D01*
X155698333Y-68152334D01*
X155631667Y-66552334D02*
X157431667Y-67752334D01*
X155698333Y-65819000D02*
X155698333Y-65552333D01*
X155765000Y-65419000D01*
X155898333Y-65285667D01*
X156165000Y-65219000D01*
X156631667Y-65219000D01*
X156898333Y-65285667D01*
X157031667Y-65419000D01*
X157098333Y-65552333D01*
X157098333Y-65819000D01*
X157031667Y-65952333D01*
X156898333Y-66085667D01*
X156631667Y-66152333D01*
X156165000Y-66152333D01*
X155898333Y-66085667D01*
X155765000Y-65952333D01*
X155698333Y-65819000D01*
X155698333Y-64819000D02*
X157098333Y-64352333D01*
X155698333Y-63885666D01*
X156365000Y-63419000D02*
X156365000Y-62952333D01*
X157098333Y-62752333D02*
X157098333Y-63419000D01*
X155698333Y-63419000D01*
X155698333Y-62752333D01*
X157098333Y-61352333D02*
X156431667Y-61818999D01*
X157098333Y-62152333D02*
X155698333Y-62152333D01*
X155698333Y-61618999D01*
X155765000Y-61485666D01*
X155831667Y-61418999D01*
X155965000Y-61352333D01*
X156165000Y-61352333D01*
X156298333Y-61418999D01*
X156365000Y-61485666D01*
X156431667Y-61618999D01*
X156431667Y-62152333D01*
X155698333Y-60952333D02*
X155698333Y-60152333D01*
X157098333Y-60552333D02*
X155698333Y-60552333D01*
X155698333Y-59418999D02*
X155698333Y-59152332D01*
X155765000Y-59018999D01*
X155898333Y-58885666D01*
X156165000Y-58818999D01*
X156631667Y-58818999D01*
X156898333Y-58885666D01*
X157031667Y-59018999D01*
X157098333Y-59152332D01*
X157098333Y-59418999D01*
X157031667Y-59552332D01*
X156898333Y-59685666D01*
X156631667Y-59752332D01*
X156165000Y-59752332D01*
X155898333Y-59685666D01*
X155765000Y-59552332D01*
X155698333Y-59418999D01*
X157098333Y-58218999D02*
X155698333Y-58218999D01*
X157098333Y-57418999D01*
X155698333Y-57418999D01*
D12*
X123825000Y-95504000D02*
X123825000Y-96139000D01*
X123825000Y-96139000D02*
X130175000Y-96139000D01*
X130175000Y-96139000D02*
X130175000Y-95504000D01*
X114300000Y-103124000D02*
X114300000Y-95504000D01*
X139700000Y-103124000D02*
X139700000Y-95504000D01*
X114300000Y-95504000D02*
X106680000Y-95504000D01*
X139700000Y-103124000D02*
X114300000Y-103124000D01*
X139700000Y-95504000D02*
X114300000Y-95504000D01*
X141482000Y-74432000D02*
X141482000Y-82032000D01*
X154882000Y-74432000D02*
X154482000Y-74432000D01*
X154882000Y-74432000D02*
X154882000Y-82032000D01*
X154882000Y-82032000D02*
X154482000Y-82032000D01*
X141882000Y-74432000D02*
X141482000Y-74432000D01*
X141882000Y-82032000D02*
X141482000Y-82032000D01*
D13*
X154282000Y-75432000D02*
G75*
G03X154282000Y-75432000I-400000J0D01*
G01*
D12*
X129702843Y-65484000D02*
G75*
G03X129702843Y-65484000I-282843J0D01*
G01*
X128670000Y-66359000D02*
X129015000Y-66359000D01*
X128670000Y-58609000D02*
X129015000Y-58609000D01*
X140570000Y-58609000D02*
X140225000Y-58609000D01*
X140570000Y-66359000D02*
X140225000Y-66359000D01*
X128670000Y-66359000D02*
X128670000Y-58609000D01*
X140570000Y-66359000D02*
X140570000Y-58609000D01*
X153150000Y-48450000D02*
X102350000Y-48450000D01*
X104890000Y-53530000D02*
X153150000Y-53530000D01*
X153150000Y-48450000D02*
X153150000Y-53530000D01*
X102350000Y-48450000D02*
X102350000Y-50990000D01*
X102070000Y-52260000D02*
X102070000Y-53810000D01*
X102350000Y-50990000D02*
X104890000Y-50990000D01*
X104890000Y-50990000D02*
X104890000Y-53530000D01*
X102070000Y-53810000D02*
X103620000Y-53810000D01*
X107696000Y-61468000D02*
X107696000Y-64516000D01*
X107696000Y-64516000D02*
X114808000Y-64516000D01*
X114808000Y-64516000D02*
X114808000Y-61468000D01*
X107696000Y-58420000D02*
X107696000Y-57658000D01*
X107696000Y-57658000D02*
X109220000Y-55372000D01*
X109220000Y-55372000D02*
X113284000Y-55372000D01*
X113284000Y-55372000D02*
X114808000Y-57658000D01*
X114808000Y-57658000D02*
X114808000Y-58420000D01*
X104868000Y-87258000D02*
X104868000Y-90858000D01*
X106968000Y-87258000D02*
X106968000Y-90858000D01*
X106218000Y-89308000D02*
X105618000Y-89308000D01*
X105618000Y-89308000D02*
X105918000Y-89008000D01*
X105918000Y-89008000D02*
X106118000Y-89208000D01*
X106118000Y-89208000D02*
X105868000Y-89208000D01*
X105868000Y-89208000D02*
X105918000Y-89158000D01*
X106418000Y-88908000D02*
X105418000Y-88908000D01*
X105918000Y-89408000D02*
X105918000Y-89908000D01*
X105918000Y-88908000D02*
X106418000Y-89408000D01*
X106418000Y-89408000D02*
X105418000Y-89408000D01*
X105418000Y-89408000D02*
X105918000Y-88908000D01*
X111522000Y-91635000D02*
X113522000Y-91635000D01*
X113522000Y-93785000D02*
X111522000Y-93785000D01*
X130032000Y-81525000D02*
X128032000Y-81525000D01*
X128032000Y-83575000D02*
X130032000Y-83575000D01*
X122698000Y-58175000D02*
X124698000Y-58175000D01*
X124698000Y-56125000D02*
X122698000Y-56125000D01*
X155947000Y-80534000D02*
X155947000Y-82534000D01*
X157997000Y-82534000D02*
X157997000Y-80534000D01*
X109966000Y-81271000D02*
X107966000Y-81271000D01*
X107966000Y-83321000D02*
X109966000Y-83321000D01*
X122698000Y-65287000D02*
X124698000Y-65287000D01*
X124698000Y-63237000D02*
X122698000Y-63237000D01*
X137532000Y-74134000D02*
X133932000Y-74134000D01*
X137532000Y-76234000D02*
X133932000Y-76234000D01*
X135482000Y-75484000D02*
X135482000Y-74884000D01*
X135482000Y-74884000D02*
X135782000Y-75184000D01*
X135782000Y-75184000D02*
X135582000Y-75384000D01*
X135582000Y-75384000D02*
X135582000Y-75134000D01*
X135582000Y-75134000D02*
X135632000Y-75184000D01*
X135882000Y-75684000D02*
X135882000Y-74684000D01*
X135382000Y-75184000D02*
X134882000Y-75184000D01*
X135882000Y-75184000D02*
X135382000Y-75684000D01*
X135382000Y-75684000D02*
X135382000Y-74684000D01*
X135382000Y-74684000D02*
X135882000Y-75184000D01*
X137532000Y-77690000D02*
X133932000Y-77690000D01*
X137532000Y-79790000D02*
X133932000Y-79790000D01*
X135482000Y-79040000D02*
X135482000Y-78440000D01*
X135482000Y-78440000D02*
X135782000Y-78740000D01*
X135782000Y-78740000D02*
X135582000Y-78940000D01*
X135582000Y-78940000D02*
X135582000Y-78690000D01*
X135582000Y-78690000D02*
X135632000Y-78740000D01*
X135882000Y-79240000D02*
X135882000Y-78240000D01*
X135382000Y-78740000D02*
X134882000Y-78740000D01*
X135882000Y-78740000D02*
X135382000Y-79240000D01*
X135382000Y-79240000D02*
X135382000Y-78240000D01*
X135382000Y-78240000D02*
X135882000Y-78740000D01*
X129016000Y-79815000D02*
X127016000Y-79815000D01*
X127016000Y-77665000D02*
X129016000Y-77665000D01*
X129016000Y-76259000D02*
X127016000Y-76259000D01*
X127016000Y-74109000D02*
X129016000Y-74109000D01*
X127016000Y-70299000D02*
X129016000Y-70299000D01*
X129016000Y-72449000D02*
X127016000Y-72449000D01*
X124698000Y-61527000D02*
X122698000Y-61527000D01*
X122698000Y-59377000D02*
X124698000Y-59377000D01*
X131377000Y-87646000D02*
X131377000Y-89646000D01*
X129227000Y-89646000D02*
X129227000Y-87646000D01*
X121979000Y-69358000D02*
X121979000Y-71358000D01*
X119829000Y-71358000D02*
X119829000Y-69358000D01*
X113522000Y-87181000D02*
X111522000Y-87181000D01*
X111522000Y-85031000D02*
X113522000Y-85031000D01*
X113522000Y-90483000D02*
X111522000Y-90483000D01*
X111522000Y-88333000D02*
X113522000Y-88333000D01*
X154745000Y-89424000D02*
X154745000Y-91424000D01*
X152595000Y-91424000D02*
X152595000Y-89424000D01*
X158047000Y-89424000D02*
X158047000Y-91424000D01*
X155897000Y-91424000D02*
X155897000Y-89424000D01*
X151443000Y-89424000D02*
X151443000Y-91424000D01*
X149293000Y-91424000D02*
X149293000Y-89424000D01*
X148141000Y-89424000D02*
X148141000Y-91424000D01*
X145991000Y-91424000D02*
X145991000Y-89424000D01*
X141537000Y-89424000D02*
X141537000Y-91424000D01*
X139387000Y-91424000D02*
X139387000Y-89424000D01*
X144839000Y-89424000D02*
X144839000Y-91424000D01*
X142689000Y-91424000D02*
X142689000Y-89424000D01*
X134933000Y-89424000D02*
X134933000Y-91424000D01*
X132783000Y-91424000D02*
X132783000Y-89424000D01*
X138235000Y-89424000D02*
X138235000Y-91424000D01*
X136085000Y-91424000D02*
X136085000Y-89424000D01*
X137906000Y-83625000D02*
X135906000Y-83625000D01*
X135906000Y-81475000D02*
X137906000Y-81475000D01*
X121217000Y-88916000D02*
X121217000Y-90916000D01*
X119067000Y-90916000D02*
X119067000Y-88916000D01*
X128016000Y-90932000D02*
X122936000Y-90932000D01*
X122936000Y-90932000D02*
X122936000Y-86360000D01*
X122936000Y-86360000D02*
X128016000Y-86360000D01*
X128016000Y-86360000D02*
X128016000Y-90932000D01*
X128016000Y-89408000D02*
X127508000Y-89408000D01*
X127508000Y-89408000D02*
X127508000Y-88138000D01*
X127508000Y-88138000D02*
X128016000Y-88138000D01*
X115042843Y-78860000D02*
G75*
G03X115042843Y-78860000I-282843J0D01*
G01*
X115635000Y-79610000D02*
X115635000Y-79265000D01*
X107885000Y-79610000D02*
X107885000Y-79265000D01*
X107885000Y-67710000D02*
X107885000Y-68055000D01*
X115635000Y-67710000D02*
X115635000Y-68055000D01*
X115635000Y-79610000D02*
X107885000Y-79610000D01*
X115635000Y-67710000D02*
X107885000Y-67710000D01*
X146796760Y-68961000D02*
X146395440Y-69161660D01*
X146395440Y-69161660D02*
X145796000Y-69263260D01*
X145796000Y-69263260D02*
X145295620Y-69161660D01*
X145295620Y-69161660D02*
X144597120Y-68762880D01*
X144597120Y-68762880D02*
X144195800Y-68160900D01*
X144195800Y-68160900D02*
X143995140Y-67561460D01*
X143995140Y-67561460D02*
X143995140Y-60962540D01*
X143995140Y-60962540D02*
X144195800Y-60261500D01*
X144195800Y-60261500D02*
X144495520Y-59862720D01*
X144495520Y-59862720D02*
X144995900Y-59461400D01*
X144995900Y-59461400D02*
X145595340Y-59260740D01*
X145595340Y-59260740D02*
X146095720Y-59260740D01*
X146095720Y-59260740D02*
X146596100Y-59461400D01*
X146596100Y-59461400D02*
X147195540Y-59961780D01*
X147195540Y-59961780D02*
X147495260Y-60462160D01*
X147495260Y-60462160D02*
X147596860Y-60962540D01*
X147596860Y-61061600D02*
X147596860Y-67663060D01*
X147596860Y-67663060D02*
X147495260Y-68061840D01*
X147495260Y-68061840D02*
X147195540Y-68562220D01*
X147195540Y-68562220D02*
X146695160Y-69062600D01*
X148125180Y-61071760D02*
X148076920Y-60612020D01*
X148076920Y-60612020D02*
X147965160Y-60213240D01*
X147965160Y-60213240D02*
X147746720Y-59781440D01*
X147746720Y-59781440D02*
X147515580Y-59491880D01*
X147515580Y-59491880D02*
X147165060Y-59161680D01*
X147165060Y-59161680D02*
X146626580Y-58872120D01*
X146626580Y-58872120D02*
X146027140Y-58742580D01*
X146027140Y-58742580D02*
X145516600Y-58742580D01*
X145516600Y-58742580D02*
X144815560Y-58912760D01*
X144815560Y-58912760D02*
X144226280Y-59311540D01*
X144226280Y-59311540D02*
X143855440Y-59771280D01*
X143855440Y-59771280D02*
X143647160Y-60192920D01*
X143647160Y-60192920D02*
X143487140Y-60642500D01*
X143487140Y-60642500D02*
X143456660Y-61081920D01*
X143675100Y-68422520D02*
X143896080Y-68800980D01*
X143896080Y-68800980D02*
X144175480Y-69121020D01*
X144175480Y-69121020D02*
X144505680Y-69372480D01*
X144505680Y-69372480D02*
X145056860Y-69672200D01*
X145056860Y-69672200D02*
X145526760Y-69781420D01*
X145526760Y-69781420D02*
X145986500Y-69801740D01*
X145986500Y-69801740D02*
X146446240Y-69712840D01*
X146446240Y-69712840D02*
X146895820Y-69522340D01*
X146895820Y-69522340D02*
X147365720Y-69161660D01*
X147365720Y-69161660D02*
X147685760Y-68811140D01*
X147685760Y-68811140D02*
X147916900Y-68422520D01*
X147916900Y-68422520D02*
X148056600Y-67993260D01*
X148056600Y-67993260D02*
X148125180Y-67551300D01*
X143466820Y-61061600D02*
X143466820Y-67513200D01*
X143466820Y-67513200D02*
X143504920Y-67932300D01*
X143504920Y-67932300D02*
X143675100Y-68422520D01*
X148125180Y-61061600D02*
X148125180Y-67513200D01*
X104385000Y-60214000D02*
X104385000Y-62214000D01*
X106435000Y-62214000D02*
X106435000Y-60214000D01*
X116069000Y-60214000D02*
X116069000Y-62214000D01*
X118119000Y-62214000D02*
X118119000Y-60214000D01*
X119697500Y-83566000D02*
X120078500Y-83566000D01*
X118681500Y-83566000D02*
X119062500Y-83566000D01*
X119062500Y-83566000D02*
X119697500Y-83185000D01*
X119697500Y-83185000D02*
X119697500Y-83947000D01*
X119697500Y-83947000D02*
X119062500Y-83566000D01*
X119062500Y-83058000D02*
X119062500Y-84074000D01*
X117380000Y-84466000D02*
X120920000Y-84466000D01*
X117380000Y-82666000D02*
X120920000Y-82666000D01*
X120650000Y-78041500D02*
X120650000Y-78422500D01*
X120650000Y-77025500D02*
X120650000Y-77406500D01*
X120650000Y-77406500D02*
X121031000Y-78041500D01*
X121031000Y-78041500D02*
X120269000Y-78041500D01*
X120269000Y-78041500D02*
X120650000Y-77406500D01*
X121158000Y-77406500D02*
X120142000Y-77406500D01*
X119750000Y-75724000D02*
X119750000Y-79264000D01*
X121550000Y-75724000D02*
X121550000Y-79264000D01*
X102870000Y-72517000D02*
X102235000Y-72517000D01*
X102235000Y-72517000D02*
X102235000Y-78867000D01*
X102235000Y-78867000D02*
X102870000Y-78867000D01*
X95250000Y-62992000D02*
X102870000Y-62992000D01*
X95250000Y-88392000D02*
X102870000Y-88392000D01*
X102870000Y-62992000D02*
X102870000Y-55372000D01*
X95250000Y-88392000D02*
X95250000Y-62992000D01*
X102870000Y-88392000D02*
X102870000Y-62992000D01*
X126261905Y-94686381D02*
X126261905Y-93686381D01*
X126642858Y-93686381D01*
X126738096Y-93734000D01*
X126785715Y-93781619D01*
X126833334Y-93876857D01*
X126833334Y-94019714D01*
X126785715Y-94114952D01*
X126738096Y-94162571D01*
X126642858Y-94210190D01*
X126261905Y-94210190D01*
X127785715Y-94686381D02*
X127214286Y-94686381D01*
X127500000Y-94686381D02*
X127500000Y-93686381D01*
X127404762Y-93829238D01*
X127309524Y-93924476D01*
X127214286Y-93972095D01*
D14*
X153122381Y-78993905D02*
X153931905Y-78993905D01*
X154027143Y-78946286D01*
X154074762Y-78898667D01*
X154122381Y-78803429D01*
X154122381Y-78612952D01*
X154074762Y-78517714D01*
X154027143Y-78470095D01*
X153931905Y-78422476D01*
X153122381Y-78422476D01*
X153455714Y-77517714D02*
X154122381Y-77517714D01*
X153074762Y-77755810D02*
X153789048Y-77993905D01*
X153789048Y-77374857D01*
D12*
X129246381Y-63245905D02*
X130055905Y-63245905D01*
X130151143Y-63198286D01*
X130198762Y-63150667D01*
X130246381Y-63055429D01*
X130246381Y-62864952D01*
X130198762Y-62769714D01*
X130151143Y-62722095D01*
X130055905Y-62674476D01*
X129246381Y-62674476D01*
X129341619Y-62245905D02*
X129294000Y-62198286D01*
X129246381Y-62103048D01*
X129246381Y-61864952D01*
X129294000Y-61769714D01*
X129341619Y-61722095D01*
X129436857Y-61674476D01*
X129532095Y-61674476D01*
X129674952Y-61722095D01*
X130246381Y-62293524D01*
X130246381Y-61674476D01*
X127555667Y-54062381D02*
X127555667Y-54776667D01*
X127508047Y-54919524D01*
X127412809Y-55014762D01*
X127269952Y-55062381D01*
X127174714Y-55062381D01*
X128555667Y-55062381D02*
X127984238Y-55062381D01*
X128269952Y-55062381D02*
X128269952Y-54062381D01*
X128174714Y-54205238D01*
X128079476Y-54300476D01*
X127984238Y-54348095D01*
X110490095Y-58634381D02*
X110490095Y-59443905D01*
X110537714Y-59539143D01*
X110585333Y-59586762D01*
X110680571Y-59634381D01*
X110871048Y-59634381D01*
X110966286Y-59586762D01*
X111013905Y-59539143D01*
X111061524Y-59443905D01*
X111061524Y-58634381D01*
X112061524Y-59634381D02*
X111490095Y-59634381D01*
X111775809Y-59634381D02*
X111775809Y-58634381D01*
X111680571Y-58777238D01*
X111585333Y-58872476D01*
X111490095Y-58920095D01*
X108370381Y-90146095D02*
X107370381Y-90146095D01*
X107370381Y-89908000D01*
X107418000Y-89765142D01*
X107513238Y-89669904D01*
X107608476Y-89622285D01*
X107798952Y-89574666D01*
X107941810Y-89574666D01*
X108132286Y-89622285D01*
X108227524Y-89669904D01*
X108322762Y-89765142D01*
X108370381Y-89908000D01*
X108370381Y-90146095D01*
X108370381Y-88622285D02*
X108370381Y-89193714D01*
X108370381Y-88908000D02*
X107370381Y-88908000D01*
X107513238Y-89003238D01*
X107608476Y-89098476D01*
X107656095Y-89193714D01*
X112355334Y-95462381D02*
X112022000Y-94986190D01*
X111783905Y-95462381D02*
X111783905Y-94462381D01*
X112164858Y-94462381D01*
X112260096Y-94510000D01*
X112307715Y-94557619D01*
X112355334Y-94652857D01*
X112355334Y-94795714D01*
X112307715Y-94890952D01*
X112260096Y-94938571D01*
X112164858Y-94986190D01*
X111783905Y-94986190D01*
X113307715Y-95462381D02*
X112736286Y-95462381D01*
X113022000Y-95462381D02*
X113022000Y-94462381D01*
X112926762Y-94605238D01*
X112831524Y-94700476D01*
X112736286Y-94748095D01*
X125071143Y-82716666D02*
X125118762Y-82764285D01*
X125166381Y-82907142D01*
X125166381Y-83002380D01*
X125118762Y-83145238D01*
X125023524Y-83240476D01*
X124928286Y-83288095D01*
X124737810Y-83335714D01*
X124594952Y-83335714D01*
X124404476Y-83288095D01*
X124309238Y-83240476D01*
X124214000Y-83145238D01*
X124166381Y-83002380D01*
X124166381Y-82907142D01*
X124214000Y-82764285D01*
X124261619Y-82716666D01*
X124166381Y-81811904D02*
X124166381Y-82288095D01*
X124642571Y-82335714D01*
X124594952Y-82288095D01*
X124547333Y-82192857D01*
X124547333Y-81954761D01*
X124594952Y-81859523D01*
X124642571Y-81811904D01*
X124737810Y-81764285D01*
X124975905Y-81764285D01*
X125071143Y-81811904D01*
X125118762Y-81859523D01*
X125166381Y-81954761D01*
X125166381Y-82192857D01*
X125118762Y-82288095D01*
X125071143Y-82335714D01*
X119991143Y-57316666D02*
X120038762Y-57364285D01*
X120086381Y-57507142D01*
X120086381Y-57602380D01*
X120038762Y-57745238D01*
X119943524Y-57840476D01*
X119848286Y-57888095D01*
X119657810Y-57935714D01*
X119514952Y-57935714D01*
X119324476Y-57888095D01*
X119229238Y-57840476D01*
X119134000Y-57745238D01*
X119086381Y-57602380D01*
X119086381Y-57507142D01*
X119134000Y-57364285D01*
X119181619Y-57316666D01*
X119086381Y-56459523D02*
X119086381Y-56650000D01*
X119134000Y-56745238D01*
X119181619Y-56792857D01*
X119324476Y-56888095D01*
X119514952Y-56935714D01*
X119895905Y-56935714D01*
X119991143Y-56888095D01*
X120038762Y-56840476D01*
X120086381Y-56745238D01*
X120086381Y-56554761D01*
X120038762Y-56459523D01*
X119991143Y-56411904D01*
X119895905Y-56364285D01*
X119657810Y-56364285D01*
X119562571Y-56411904D01*
X119514952Y-56459523D01*
X119467333Y-56554761D01*
X119467333Y-56745238D01*
X119514952Y-56840476D01*
X119562571Y-56888095D01*
X119657810Y-56935714D01*
X156805334Y-85955143D02*
X156757715Y-86002762D01*
X156614858Y-86050381D01*
X156519620Y-86050381D01*
X156376762Y-86002762D01*
X156281524Y-85907524D01*
X156233905Y-85812286D01*
X156186286Y-85621810D01*
X156186286Y-85478952D01*
X156233905Y-85288476D01*
X156281524Y-85193238D01*
X156376762Y-85098000D01*
X156519620Y-85050381D01*
X156614858Y-85050381D01*
X156757715Y-85098000D01*
X156805334Y-85145619D01*
X157138667Y-85050381D02*
X157805334Y-85050381D01*
X157376762Y-86050381D01*
X113641143Y-82716666D02*
X113688762Y-82764285D01*
X113736381Y-82907142D01*
X113736381Y-83002380D01*
X113688762Y-83145238D01*
X113593524Y-83240476D01*
X113498286Y-83288095D01*
X113307810Y-83335714D01*
X113164952Y-83335714D01*
X112974476Y-83288095D01*
X112879238Y-83240476D01*
X112784000Y-83145238D01*
X112736381Y-83002380D01*
X112736381Y-82907142D01*
X112784000Y-82764285D01*
X112831619Y-82716666D01*
X113164952Y-82145238D02*
X113117333Y-82240476D01*
X113069714Y-82288095D01*
X112974476Y-82335714D01*
X112926857Y-82335714D01*
X112831619Y-82288095D01*
X112784000Y-82240476D01*
X112736381Y-82145238D01*
X112736381Y-81954761D01*
X112784000Y-81859523D01*
X112831619Y-81811904D01*
X112926857Y-81764285D01*
X112974476Y-81764285D01*
X113069714Y-81811904D01*
X113117333Y-81859523D01*
X113164952Y-81954761D01*
X113164952Y-82145238D01*
X113212571Y-82240476D01*
X113260190Y-82288095D01*
X113355429Y-82335714D01*
X113545905Y-82335714D01*
X113641143Y-82288095D01*
X113688762Y-82240476D01*
X113736381Y-82145238D01*
X113736381Y-81954761D01*
X113688762Y-81859523D01*
X113641143Y-81811904D01*
X113545905Y-81764285D01*
X113355429Y-81764285D01*
X113260190Y-81811904D01*
X113212571Y-81859523D01*
X113164952Y-81954761D01*
X119991143Y-64428666D02*
X120038762Y-64476285D01*
X120086381Y-64619142D01*
X120086381Y-64714380D01*
X120038762Y-64857238D01*
X119943524Y-64952476D01*
X119848286Y-65000095D01*
X119657810Y-65047714D01*
X119514952Y-65047714D01*
X119324476Y-65000095D01*
X119229238Y-64952476D01*
X119134000Y-64857238D01*
X119086381Y-64714380D01*
X119086381Y-64619142D01*
X119134000Y-64476285D01*
X119181619Y-64428666D01*
X120086381Y-63952476D02*
X120086381Y-63762000D01*
X120038762Y-63666761D01*
X119991143Y-63619142D01*
X119848286Y-63523904D01*
X119657810Y-63476285D01*
X119276857Y-63476285D01*
X119181619Y-63523904D01*
X119134000Y-63571523D01*
X119086381Y-63666761D01*
X119086381Y-63857238D01*
X119134000Y-63952476D01*
X119181619Y-64000095D01*
X119276857Y-64047714D01*
X119514952Y-64047714D01*
X119610190Y-64000095D01*
X119657810Y-63952476D01*
X119705429Y-63857238D01*
X119705429Y-63666761D01*
X119657810Y-63571523D01*
X119610190Y-63523904D01*
X119514952Y-63476285D01*
X132532381Y-75922095D02*
X131532381Y-75922095D01*
X131532381Y-75684000D01*
X131580000Y-75541142D01*
X131675238Y-75445904D01*
X131770476Y-75398285D01*
X131960952Y-75350666D01*
X132103810Y-75350666D01*
X132294286Y-75398285D01*
X132389524Y-75445904D01*
X132484762Y-75541142D01*
X132532381Y-75684000D01*
X132532381Y-75922095D01*
X131865714Y-74493523D02*
X132532381Y-74493523D01*
X131484762Y-74731619D02*
X132199048Y-74969714D01*
X132199048Y-74350666D01*
X132532381Y-79478095D02*
X131532381Y-79478095D01*
X131532381Y-79240000D01*
X131580000Y-79097142D01*
X131675238Y-79001904D01*
X131770476Y-78954285D01*
X131960952Y-78906666D01*
X132103810Y-78906666D01*
X132294286Y-78954285D01*
X132389524Y-79001904D01*
X132484762Y-79097142D01*
X132532381Y-79240000D01*
X132532381Y-79478095D01*
X131532381Y-78001904D02*
X131532381Y-78478095D01*
X132008571Y-78525714D01*
X131960952Y-78478095D01*
X131913333Y-78382857D01*
X131913333Y-78144761D01*
X131960952Y-78049523D01*
X132008571Y-78001904D01*
X132103810Y-77954285D01*
X132341905Y-77954285D01*
X132437143Y-78001904D01*
X132484762Y-78049523D01*
X132532381Y-78144761D01*
X132532381Y-78382857D01*
X132484762Y-78478095D01*
X132437143Y-78525714D01*
X124404381Y-78906666D02*
X123928190Y-79240000D01*
X124404381Y-79478095D02*
X123404381Y-79478095D01*
X123404381Y-79097142D01*
X123452000Y-79001904D01*
X123499619Y-78954285D01*
X123594857Y-78906666D01*
X123737714Y-78906666D01*
X123832952Y-78954285D01*
X123880571Y-79001904D01*
X123928190Y-79097142D01*
X123928190Y-79478095D01*
X123499619Y-78525714D02*
X123452000Y-78478095D01*
X123404381Y-78382857D01*
X123404381Y-78144761D01*
X123452000Y-78049523D01*
X123499619Y-78001904D01*
X123594857Y-77954285D01*
X123690095Y-77954285D01*
X123832952Y-78001904D01*
X124404381Y-78573333D01*
X124404381Y-77954285D01*
X124404381Y-75350666D02*
X123928190Y-75684000D01*
X124404381Y-75922095D02*
X123404381Y-75922095D01*
X123404381Y-75541142D01*
X123452000Y-75445904D01*
X123499619Y-75398285D01*
X123594857Y-75350666D01*
X123737714Y-75350666D01*
X123832952Y-75398285D01*
X123880571Y-75445904D01*
X123928190Y-75541142D01*
X123928190Y-75922095D01*
X123404381Y-75017333D02*
X123404381Y-74398285D01*
X123785333Y-74731619D01*
X123785333Y-74588761D01*
X123832952Y-74493523D01*
X123880571Y-74445904D01*
X123975810Y-74398285D01*
X124213905Y-74398285D01*
X124309143Y-74445904D01*
X124356762Y-74493523D01*
X124404381Y-74588761D01*
X124404381Y-74874476D01*
X124356762Y-74969714D01*
X124309143Y-75017333D01*
X124404381Y-71540666D02*
X123928190Y-71874000D01*
X124404381Y-72112095D02*
X123404381Y-72112095D01*
X123404381Y-71731142D01*
X123452000Y-71635904D01*
X123499619Y-71588285D01*
X123594857Y-71540666D01*
X123737714Y-71540666D01*
X123832952Y-71588285D01*
X123880571Y-71635904D01*
X123928190Y-71731142D01*
X123928190Y-72112095D01*
X123737714Y-70683523D02*
X124404381Y-70683523D01*
X123356762Y-70921619D02*
X124071048Y-71159714D01*
X124071048Y-70540666D01*
X120086381Y-60618666D02*
X119610190Y-60952000D01*
X120086381Y-61190095D02*
X119086381Y-61190095D01*
X119086381Y-60809142D01*
X119134000Y-60713904D01*
X119181619Y-60666285D01*
X119276857Y-60618666D01*
X119419714Y-60618666D01*
X119514952Y-60666285D01*
X119562571Y-60713904D01*
X119610190Y-60809142D01*
X119610190Y-61190095D01*
X119086381Y-59713904D02*
X119086381Y-60190095D01*
X119562571Y-60237714D01*
X119514952Y-60190095D01*
X119467333Y-60094857D01*
X119467333Y-59856761D01*
X119514952Y-59761523D01*
X119562571Y-59713904D01*
X119657810Y-59666285D01*
X119895905Y-59666285D01*
X119991143Y-59713904D01*
X120038762Y-59761523D01*
X120086381Y-59856761D01*
X120086381Y-60094857D01*
X120038762Y-60190095D01*
X119991143Y-60237714D01*
X130135334Y-93162381D02*
X129802000Y-92686190D01*
X129563905Y-93162381D02*
X129563905Y-92162381D01*
X129944858Y-92162381D01*
X130040096Y-92210000D01*
X130087715Y-92257619D01*
X130135334Y-92352857D01*
X130135334Y-92495714D01*
X130087715Y-92590952D01*
X130040096Y-92638571D01*
X129944858Y-92686190D01*
X129563905Y-92686190D01*
X130992477Y-92162381D02*
X130802000Y-92162381D01*
X130706762Y-92210000D01*
X130659143Y-92257619D01*
X130563905Y-92400476D01*
X130516286Y-92590952D01*
X130516286Y-92971905D01*
X130563905Y-93067143D01*
X130611524Y-93114762D01*
X130706762Y-93162381D01*
X130897239Y-93162381D01*
X130992477Y-93114762D01*
X131040096Y-93067143D01*
X131087715Y-92971905D01*
X131087715Y-92733810D01*
X131040096Y-92638571D01*
X130992477Y-92590952D01*
X130897239Y-92543333D01*
X130706762Y-92543333D01*
X130611524Y-92590952D01*
X130563905Y-92638571D01*
X130516286Y-92733810D01*
X120737334Y-75128381D02*
X120404000Y-74652190D01*
X120165905Y-75128381D02*
X120165905Y-74128381D01*
X120546858Y-74128381D01*
X120642096Y-74176000D01*
X120689715Y-74223619D01*
X120737334Y-74318857D01*
X120737334Y-74461714D01*
X120689715Y-74556952D01*
X120642096Y-74604571D01*
X120546858Y-74652190D01*
X120165905Y-74652190D01*
X121070667Y-74128381D02*
X121737334Y-74128381D01*
X121308762Y-75128381D01*
X117292381Y-86272666D02*
X116816190Y-86606000D01*
X117292381Y-86844095D02*
X116292381Y-86844095D01*
X116292381Y-86463142D01*
X116340000Y-86367904D01*
X116387619Y-86320285D01*
X116482857Y-86272666D01*
X116625714Y-86272666D01*
X116720952Y-86320285D01*
X116768571Y-86367904D01*
X116816190Y-86463142D01*
X116816190Y-86844095D01*
X116720952Y-85701238D02*
X116673333Y-85796476D01*
X116625714Y-85844095D01*
X116530476Y-85891714D01*
X116482857Y-85891714D01*
X116387619Y-85844095D01*
X116340000Y-85796476D01*
X116292381Y-85701238D01*
X116292381Y-85510761D01*
X116340000Y-85415523D01*
X116387619Y-85367904D01*
X116482857Y-85320285D01*
X116530476Y-85320285D01*
X116625714Y-85367904D01*
X116673333Y-85415523D01*
X116720952Y-85510761D01*
X116720952Y-85701238D01*
X116768571Y-85796476D01*
X116816190Y-85844095D01*
X116911429Y-85891714D01*
X117101905Y-85891714D01*
X117197143Y-85844095D01*
X117244762Y-85796476D01*
X117292381Y-85701238D01*
X117292381Y-85510761D01*
X117244762Y-85415523D01*
X117197143Y-85367904D01*
X117101905Y-85320285D01*
X116911429Y-85320285D01*
X116816190Y-85367904D01*
X116768571Y-85415523D01*
X116720952Y-85510761D01*
X117292381Y-89574666D02*
X116816190Y-89908000D01*
X117292381Y-90146095D02*
X116292381Y-90146095D01*
X116292381Y-89765142D01*
X116340000Y-89669904D01*
X116387619Y-89622285D01*
X116482857Y-89574666D01*
X116625714Y-89574666D01*
X116720952Y-89622285D01*
X116768571Y-89669904D01*
X116816190Y-89765142D01*
X116816190Y-90146095D01*
X117292381Y-89098476D02*
X117292381Y-88908000D01*
X117244762Y-88812761D01*
X117197143Y-88765142D01*
X117054286Y-88669904D01*
X116863810Y-88622285D01*
X116482857Y-88622285D01*
X116387619Y-88669904D01*
X116340000Y-88717523D01*
X116292381Y-88812761D01*
X116292381Y-89003238D01*
X116340000Y-89098476D01*
X116387619Y-89146095D01*
X116482857Y-89193714D01*
X116720952Y-89193714D01*
X116816190Y-89146095D01*
X116863810Y-89098476D01*
X116911429Y-89003238D01*
X116911429Y-88812761D01*
X116863810Y-88717523D01*
X116816190Y-88669904D01*
X116720952Y-88622285D01*
X153027143Y-94940381D02*
X152693809Y-94464190D01*
X152455714Y-94940381D02*
X152455714Y-93940381D01*
X152836667Y-93940381D01*
X152931905Y-93988000D01*
X152979524Y-94035619D01*
X153027143Y-94130857D01*
X153027143Y-94273714D01*
X152979524Y-94368952D01*
X152931905Y-94416571D01*
X152836667Y-94464190D01*
X152455714Y-94464190D01*
X153979524Y-94940381D02*
X153408095Y-94940381D01*
X153693809Y-94940381D02*
X153693809Y-93940381D01*
X153598571Y-94083238D01*
X153503333Y-94178476D01*
X153408095Y-94226095D01*
X154598571Y-93940381D02*
X154693810Y-93940381D01*
X154789048Y-93988000D01*
X154836667Y-94035619D01*
X154884286Y-94130857D01*
X154931905Y-94321333D01*
X154931905Y-94559429D01*
X154884286Y-94749905D01*
X154836667Y-94845143D01*
X154789048Y-94892762D01*
X154693810Y-94940381D01*
X154598571Y-94940381D01*
X154503333Y-94892762D01*
X154455714Y-94845143D01*
X154408095Y-94749905D01*
X154360476Y-94559429D01*
X154360476Y-94321333D01*
X154408095Y-94130857D01*
X154455714Y-94035619D01*
X154503333Y-93988000D01*
X154598571Y-93940381D01*
X156329143Y-94940381D02*
X155995809Y-94464190D01*
X155757714Y-94940381D02*
X155757714Y-93940381D01*
X156138667Y-93940381D01*
X156233905Y-93988000D01*
X156281524Y-94035619D01*
X156329143Y-94130857D01*
X156329143Y-94273714D01*
X156281524Y-94368952D01*
X156233905Y-94416571D01*
X156138667Y-94464190D01*
X155757714Y-94464190D01*
X157281524Y-94940381D02*
X156710095Y-94940381D01*
X156995809Y-94940381D02*
X156995809Y-93940381D01*
X156900571Y-94083238D01*
X156805333Y-94178476D01*
X156710095Y-94226095D01*
X158233905Y-94940381D02*
X157662476Y-94940381D01*
X157948190Y-94940381D02*
X157948190Y-93940381D01*
X157852952Y-94083238D01*
X157757714Y-94178476D01*
X157662476Y-94226095D01*
X149725143Y-94940381D02*
X149391809Y-94464190D01*
X149153714Y-94940381D02*
X149153714Y-93940381D01*
X149534667Y-93940381D01*
X149629905Y-93988000D01*
X149677524Y-94035619D01*
X149725143Y-94130857D01*
X149725143Y-94273714D01*
X149677524Y-94368952D01*
X149629905Y-94416571D01*
X149534667Y-94464190D01*
X149153714Y-94464190D01*
X150677524Y-94940381D02*
X150106095Y-94940381D01*
X150391809Y-94940381D02*
X150391809Y-93940381D01*
X150296571Y-94083238D01*
X150201333Y-94178476D01*
X150106095Y-94226095D01*
X151058476Y-94035619D02*
X151106095Y-93988000D01*
X151201333Y-93940381D01*
X151439429Y-93940381D01*
X151534667Y-93988000D01*
X151582286Y-94035619D01*
X151629905Y-94130857D01*
X151629905Y-94226095D01*
X151582286Y-94368952D01*
X151010857Y-94940381D01*
X151629905Y-94940381D01*
X146423143Y-94940381D02*
X146089809Y-94464190D01*
X145851714Y-94940381D02*
X145851714Y-93940381D01*
X146232667Y-93940381D01*
X146327905Y-93988000D01*
X146375524Y-94035619D01*
X146423143Y-94130857D01*
X146423143Y-94273714D01*
X146375524Y-94368952D01*
X146327905Y-94416571D01*
X146232667Y-94464190D01*
X145851714Y-94464190D01*
X147375524Y-94940381D02*
X146804095Y-94940381D01*
X147089809Y-94940381D02*
X147089809Y-93940381D01*
X146994571Y-94083238D01*
X146899333Y-94178476D01*
X146804095Y-94226095D01*
X147708857Y-93940381D02*
X148327905Y-93940381D01*
X147994571Y-94321333D01*
X148137429Y-94321333D01*
X148232667Y-94368952D01*
X148280286Y-94416571D01*
X148327905Y-94511810D01*
X148327905Y-94749905D01*
X148280286Y-94845143D01*
X148232667Y-94892762D01*
X148137429Y-94940381D01*
X147851714Y-94940381D01*
X147756476Y-94892762D01*
X147708857Y-94845143D01*
X139819143Y-94940381D02*
X139485809Y-94464190D01*
X139247714Y-94940381D02*
X139247714Y-93940381D01*
X139628667Y-93940381D01*
X139723905Y-93988000D01*
X139771524Y-94035619D01*
X139819143Y-94130857D01*
X139819143Y-94273714D01*
X139771524Y-94368952D01*
X139723905Y-94416571D01*
X139628667Y-94464190D01*
X139247714Y-94464190D01*
X140771524Y-94940381D02*
X140200095Y-94940381D01*
X140485809Y-94940381D02*
X140485809Y-93940381D01*
X140390571Y-94083238D01*
X140295333Y-94178476D01*
X140200095Y-94226095D01*
X141628667Y-94273714D02*
X141628667Y-94940381D01*
X141390571Y-93892762D02*
X141152476Y-94607048D01*
X141771524Y-94607048D01*
X143121143Y-94940381D02*
X142787809Y-94464190D01*
X142549714Y-94940381D02*
X142549714Y-93940381D01*
X142930667Y-93940381D01*
X143025905Y-93988000D01*
X143073524Y-94035619D01*
X143121143Y-94130857D01*
X143121143Y-94273714D01*
X143073524Y-94368952D01*
X143025905Y-94416571D01*
X142930667Y-94464190D01*
X142549714Y-94464190D01*
X144073524Y-94940381D02*
X143502095Y-94940381D01*
X143787809Y-94940381D02*
X143787809Y-93940381D01*
X143692571Y-94083238D01*
X143597333Y-94178476D01*
X143502095Y-94226095D01*
X144978286Y-93940381D02*
X144502095Y-93940381D01*
X144454476Y-94416571D01*
X144502095Y-94368952D01*
X144597333Y-94321333D01*
X144835429Y-94321333D01*
X144930667Y-94368952D01*
X144978286Y-94416571D01*
X145025905Y-94511810D01*
X145025905Y-94749905D01*
X144978286Y-94845143D01*
X144930667Y-94892762D01*
X144835429Y-94940381D01*
X144597333Y-94940381D01*
X144502095Y-94892762D01*
X144454476Y-94845143D01*
X132961143Y-94940381D02*
X132627809Y-94464190D01*
X132389714Y-94940381D02*
X132389714Y-93940381D01*
X132770667Y-93940381D01*
X132865905Y-93988000D01*
X132913524Y-94035619D01*
X132961143Y-94130857D01*
X132961143Y-94273714D01*
X132913524Y-94368952D01*
X132865905Y-94416571D01*
X132770667Y-94464190D01*
X132389714Y-94464190D01*
X133913524Y-94940381D02*
X133342095Y-94940381D01*
X133627809Y-94940381D02*
X133627809Y-93940381D01*
X133532571Y-94083238D01*
X133437333Y-94178476D01*
X133342095Y-94226095D01*
X134770667Y-93940381D02*
X134580190Y-93940381D01*
X134484952Y-93988000D01*
X134437333Y-94035619D01*
X134342095Y-94178476D01*
X134294476Y-94368952D01*
X134294476Y-94749905D01*
X134342095Y-94845143D01*
X134389714Y-94892762D01*
X134484952Y-94940381D01*
X134675429Y-94940381D01*
X134770667Y-94892762D01*
X134818286Y-94845143D01*
X134865905Y-94749905D01*
X134865905Y-94511810D01*
X134818286Y-94416571D01*
X134770667Y-94368952D01*
X134675429Y-94321333D01*
X134484952Y-94321333D01*
X134389714Y-94368952D01*
X134342095Y-94416571D01*
X134294476Y-94511810D01*
X136517143Y-94940381D02*
X136183809Y-94464190D01*
X135945714Y-94940381D02*
X135945714Y-93940381D01*
X136326667Y-93940381D01*
X136421905Y-93988000D01*
X136469524Y-94035619D01*
X136517143Y-94130857D01*
X136517143Y-94273714D01*
X136469524Y-94368952D01*
X136421905Y-94416571D01*
X136326667Y-94464190D01*
X135945714Y-94464190D01*
X137469524Y-94940381D02*
X136898095Y-94940381D01*
X137183809Y-94940381D02*
X137183809Y-93940381D01*
X137088571Y-94083238D01*
X136993333Y-94178476D01*
X136898095Y-94226095D01*
X137802857Y-93940381D02*
X138469524Y-93940381D01*
X138040952Y-94940381D01*
X136263143Y-85034381D02*
X135929809Y-84558190D01*
X135691714Y-85034381D02*
X135691714Y-84034381D01*
X136072667Y-84034381D01*
X136167905Y-84082000D01*
X136215524Y-84129619D01*
X136263143Y-84224857D01*
X136263143Y-84367714D01*
X136215524Y-84462952D01*
X136167905Y-84510571D01*
X136072667Y-84558190D01*
X135691714Y-84558190D01*
X137215524Y-85034381D02*
X136644095Y-85034381D01*
X136929809Y-85034381D02*
X136929809Y-84034381D01*
X136834571Y-84177238D01*
X136739333Y-84272476D01*
X136644095Y-84320095D01*
X137786952Y-84462952D02*
X137691714Y-84415333D01*
X137644095Y-84367714D01*
X137596476Y-84272476D01*
X137596476Y-84224857D01*
X137644095Y-84129619D01*
X137691714Y-84082000D01*
X137786952Y-84034381D01*
X137977429Y-84034381D01*
X138072667Y-84082000D01*
X138120286Y-84129619D01*
X138167905Y-84224857D01*
X138167905Y-84272476D01*
X138120286Y-84367714D01*
X138072667Y-84415333D01*
X137977429Y-84462952D01*
X137786952Y-84462952D01*
X137691714Y-84510571D01*
X137644095Y-84558190D01*
X137596476Y-84653429D01*
X137596476Y-84843905D01*
X137644095Y-84939143D01*
X137691714Y-84986762D01*
X137786952Y-85034381D01*
X137977429Y-85034381D01*
X138072667Y-84986762D01*
X138120286Y-84939143D01*
X138167905Y-84843905D01*
X138167905Y-84653429D01*
X138120286Y-84558190D01*
X138072667Y-84510571D01*
X137977429Y-84462952D01*
X119499143Y-94686381D02*
X119165809Y-94210190D01*
X118927714Y-94686381D02*
X118927714Y-93686381D01*
X119308667Y-93686381D01*
X119403905Y-93734000D01*
X119451524Y-93781619D01*
X119499143Y-93876857D01*
X119499143Y-94019714D01*
X119451524Y-94114952D01*
X119403905Y-94162571D01*
X119308667Y-94210190D01*
X118927714Y-94210190D01*
X120451524Y-94686381D02*
X119880095Y-94686381D01*
X120165809Y-94686381D02*
X120165809Y-93686381D01*
X120070571Y-93829238D01*
X119975333Y-93924476D01*
X119880095Y-93972095D01*
X120927714Y-94686381D02*
X121118190Y-94686381D01*
X121213429Y-94638762D01*
X121261048Y-94591143D01*
X121356286Y-94448286D01*
X121403905Y-94257810D01*
X121403905Y-93876857D01*
X121356286Y-93781619D01*
X121308667Y-93734000D01*
X121213429Y-93686381D01*
X121022952Y-93686381D01*
X120927714Y-93734000D01*
X120880095Y-93781619D01*
X120832476Y-93876857D01*
X120832476Y-94114952D01*
X120880095Y-94210190D01*
X120927714Y-94257810D01*
X121022952Y-94305429D01*
X121213429Y-94305429D01*
X121308667Y-94257810D01*
X121356286Y-94210190D01*
X121403905Y-94114952D01*
X124714095Y-89368381D02*
X124714095Y-90177905D01*
X124761714Y-90273143D01*
X124809333Y-90320762D01*
X124904571Y-90368381D01*
X125095048Y-90368381D01*
X125190286Y-90320762D01*
X125237905Y-90273143D01*
X125285524Y-90177905D01*
X125285524Y-89368381D01*
X125666476Y-89368381D02*
X126285524Y-89368381D01*
X125952190Y-89749333D01*
X126095048Y-89749333D01*
X126190286Y-89796952D01*
X126237905Y-89844571D01*
X126285524Y-89939810D01*
X126285524Y-90177905D01*
X126237905Y-90273143D01*
X126190286Y-90320762D01*
X126095048Y-90368381D01*
X125809333Y-90368381D01*
X125714095Y-90320762D01*
X125666476Y-90273143D01*
X110744095Y-78192381D02*
X110744095Y-79001905D01*
X110791714Y-79097143D01*
X110839333Y-79144762D01*
X110934571Y-79192381D01*
X111125048Y-79192381D01*
X111220286Y-79144762D01*
X111267905Y-79097143D01*
X111315524Y-79001905D01*
X111315524Y-78192381D01*
X112267905Y-78192381D02*
X111791714Y-78192381D01*
X111744095Y-78668571D01*
X111791714Y-78620952D01*
X111886952Y-78573333D01*
X112125048Y-78573333D01*
X112220286Y-78620952D01*
X112267905Y-78668571D01*
X112315524Y-78763810D01*
X112315524Y-79001905D01*
X112267905Y-79097143D01*
X112220286Y-79144762D01*
X112125048Y-79192381D01*
X111886952Y-79192381D01*
X111791714Y-79144762D01*
X111744095Y-79097143D01*
X145446809Y-70969190D02*
X145446809Y-71445381D01*
X145113476Y-70445381D02*
X145446809Y-70969190D01*
X145780143Y-70445381D01*
X146637286Y-71445381D02*
X146065857Y-71445381D01*
X146351571Y-71445381D02*
X146351571Y-70445381D01*
X146256333Y-70588238D01*
X146161095Y-70683476D01*
X146065857Y-70731095D01*
X104989334Y-57507143D02*
X104941715Y-57554762D01*
X104798858Y-57602381D01*
X104703620Y-57602381D01*
X104560762Y-57554762D01*
X104465524Y-57459524D01*
X104417905Y-57364286D01*
X104370286Y-57173810D01*
X104370286Y-57030952D01*
X104417905Y-56840476D01*
X104465524Y-56745238D01*
X104560762Y-56650000D01*
X104703620Y-56602381D01*
X104798858Y-56602381D01*
X104941715Y-56650000D01*
X104989334Y-56697619D01*
X105941715Y-57602381D02*
X105370286Y-57602381D01*
X105656000Y-57602381D02*
X105656000Y-56602381D01*
X105560762Y-56745238D01*
X105465524Y-56840476D01*
X105370286Y-56888095D01*
X116927334Y-57507143D02*
X116879715Y-57554762D01*
X116736858Y-57602381D01*
X116641620Y-57602381D01*
X116498762Y-57554762D01*
X116403524Y-57459524D01*
X116355905Y-57364286D01*
X116308286Y-57173810D01*
X116308286Y-57030952D01*
X116355905Y-56840476D01*
X116403524Y-56745238D01*
X116498762Y-56650000D01*
X116641620Y-56602381D01*
X116736858Y-56602381D01*
X116879715Y-56650000D01*
X116927334Y-56697619D01*
X117308286Y-56697619D02*
X117355905Y-56650000D01*
X117451143Y-56602381D01*
X117689239Y-56602381D01*
X117784477Y-56650000D01*
X117832096Y-56697619D01*
X117879715Y-56792857D01*
X117879715Y-56888095D01*
X117832096Y-57030952D01*
X117260667Y-57602381D01*
X117879715Y-57602381D01*
X116784381Y-84304095D02*
X115784381Y-84304095D01*
X115784381Y-84066000D01*
X115832000Y-83923142D01*
X115927238Y-83827904D01*
X116022476Y-83780285D01*
X116212952Y-83732666D01*
X116355810Y-83732666D01*
X116546286Y-83780285D01*
X116641524Y-83827904D01*
X116736762Y-83923142D01*
X116784381Y-84066000D01*
X116784381Y-84304095D01*
X115879619Y-83351714D02*
X115832000Y-83304095D01*
X115784381Y-83208857D01*
X115784381Y-82970761D01*
X115832000Y-82875523D01*
X115879619Y-82827904D01*
X115974857Y-82780285D01*
X116070095Y-82780285D01*
X116212952Y-82827904D01*
X116784381Y-83399333D01*
X116784381Y-82780285D01*
X119911905Y-81478381D02*
X119911905Y-80478381D01*
X120150000Y-80478381D01*
X120292858Y-80526000D01*
X120388096Y-80621238D01*
X120435715Y-80716476D01*
X120483334Y-80906952D01*
X120483334Y-81049810D01*
X120435715Y-81240286D01*
X120388096Y-81335524D01*
X120292858Y-81430762D01*
X120150000Y-81478381D01*
X119911905Y-81478381D01*
X120816667Y-80478381D02*
X121435715Y-80478381D01*
X121102381Y-80859333D01*
X121245239Y-80859333D01*
X121340477Y-80906952D01*
X121388096Y-80954571D01*
X121435715Y-81049810D01*
X121435715Y-81287905D01*
X121388096Y-81383143D01*
X121340477Y-81430762D01*
X121245239Y-81478381D01*
X120959524Y-81478381D01*
X120864286Y-81430762D01*
X120816667Y-81383143D01*
X104592381Y-76430095D02*
X103592381Y-76430095D01*
X103592381Y-76049142D01*
X103640000Y-75953904D01*
X103687619Y-75906285D01*
X103782857Y-75858666D01*
X103925714Y-75858666D01*
X104020952Y-75906285D01*
X104068571Y-75953904D01*
X104116190Y-76049142D01*
X104116190Y-76430095D01*
X103687619Y-75477714D02*
X103640000Y-75430095D01*
X103592381Y-75334857D01*
X103592381Y-75096761D01*
X103640000Y-75001523D01*
X103687619Y-74953904D01*
X103782857Y-74906285D01*
X103878095Y-74906285D01*
X104020952Y-74953904D01*
X104592381Y-75525333D01*
X104592381Y-74906285D01*
M02*
