G04 #@! TF.FileFunction,Soldermask,Top*
%FSLAX46Y46*%
G04 Gerber Fmt 4.6, Leading zero omitted, Abs format (unit mm)*
G04 Created by KiCad (PCBNEW 4.0.2-1.fc23-product) date Wed 14 Dec 2016 11:24:26 GMT*
%MOMM*%
G01*
G04 APERTURE LIST*
%ADD10C,0.100000*%
%ADD11R,1.727200X1.727200*%
%ADD12C,1.727200*%
%ADD13R,0.530000X1.980000*%
%ADD14R,0.600000X2.000000*%
%ADD15O,1.727200X1.727200*%
%ADD16C,6.200000*%
%ADD17R,3.657600X2.032000*%
%ADD18R,1.016000X2.032000*%
%ADD19R,1.800860X1.597660*%
%ADD20R,2.000000X1.700000*%
%ADD21R,2.000000X1.600000*%
%ADD22R,1.600000X2.000000*%
%ADD23R,1.597660X1.800860*%
%ADD24R,1.700000X2.000000*%
%ADD25R,0.508000X1.143000*%
%ADD26R,2.000000X0.600000*%
%ADD27C,1.501140*%
%ADD28R,0.910000X1.220000*%
%ADD29R,1.220000X0.910000*%
G04 APERTURE END LIST*
D10*
D11*
X135890000Y-98044000D03*
D12*
X135890000Y-100584000D03*
X133350000Y-98044000D03*
X133350000Y-100584000D03*
X130810000Y-98044000D03*
X130810000Y-100584000D03*
X128270000Y-98044000D03*
X128270000Y-100584000D03*
X125730000Y-98044000D03*
X125730000Y-100584000D03*
X123190000Y-98044000D03*
X123190000Y-100584000D03*
X120650000Y-98044000D03*
X120650000Y-100584000D03*
X118110000Y-98044000D03*
X118110000Y-100584000D03*
D13*
X153797000Y-73547000D03*
X152527000Y-73547000D03*
X151257000Y-73547000D03*
X149987000Y-73547000D03*
X148717000Y-73547000D03*
X147447000Y-73547000D03*
X146177000Y-73547000D03*
X144907000Y-73547000D03*
X143637000Y-73547000D03*
X142367000Y-73547000D03*
X142367000Y-82917000D03*
X143637000Y-82917000D03*
X144907000Y-82917000D03*
X146177000Y-82917000D03*
X147447000Y-82917000D03*
X148717000Y-82917000D03*
X149987000Y-82917000D03*
X151257000Y-82917000D03*
X152527000Y-82917000D03*
X153797000Y-82917000D03*
D14*
X129540000Y-67184000D03*
X130810000Y-67184000D03*
X132080000Y-67184000D03*
X133350000Y-67184000D03*
X134620000Y-67184000D03*
X135890000Y-67184000D03*
X137160000Y-67184000D03*
X138430000Y-67184000D03*
X139700000Y-67184000D03*
X139700000Y-57784000D03*
X138430000Y-57784000D03*
X137160000Y-57784000D03*
X135890000Y-57784000D03*
X134620000Y-57784000D03*
X133350000Y-57784000D03*
X132080000Y-57784000D03*
X130810000Y-57784000D03*
X129540000Y-57784000D03*
D11*
X103620000Y-52260000D03*
D15*
X103620000Y-49720000D03*
X106160000Y-52260000D03*
X106160000Y-49720000D03*
X108700000Y-52260000D03*
X108700000Y-49720000D03*
X111240000Y-52260000D03*
X111240000Y-49720000D03*
X113780000Y-52260000D03*
X113780000Y-49720000D03*
X116320000Y-52260000D03*
X116320000Y-49720000D03*
X118860000Y-52260000D03*
X118860000Y-49720000D03*
X121400000Y-52260000D03*
X121400000Y-49720000D03*
X123940000Y-52260000D03*
X123940000Y-49720000D03*
X126480000Y-52260000D03*
X126480000Y-49720000D03*
X129020000Y-52260000D03*
X129020000Y-49720000D03*
X131560000Y-52260000D03*
X131560000Y-49720000D03*
X134100000Y-52260000D03*
X134100000Y-49720000D03*
X136640000Y-52260000D03*
X136640000Y-49720000D03*
X139180000Y-52260000D03*
X139180000Y-49720000D03*
X141720000Y-52260000D03*
X141720000Y-49720000D03*
X144260000Y-52260000D03*
X144260000Y-49720000D03*
X146800000Y-52260000D03*
X146800000Y-49720000D03*
X149340000Y-52260000D03*
X149340000Y-49720000D03*
X151880000Y-52260000D03*
X151880000Y-49720000D03*
D16*
X156750000Y-50990000D03*
X156750000Y-99990000D03*
X98750000Y-99990000D03*
X98750000Y-50990000D03*
D17*
X111252000Y-56642000D03*
D18*
X111252000Y-63246000D03*
X113538000Y-63246000D03*
X108966000Y-63246000D03*
D19*
X105918000Y-90827860D03*
X105918000Y-87988140D03*
D20*
X114522000Y-92710000D03*
X110522000Y-92710000D03*
D21*
X127032000Y-82550000D03*
X131032000Y-82550000D03*
X125698000Y-57150000D03*
X121698000Y-57150000D03*
D22*
X156972000Y-83534000D03*
X156972000Y-79534000D03*
D21*
X106966000Y-82296000D03*
X110966000Y-82296000D03*
X125698000Y-64262000D03*
X121698000Y-64262000D03*
D23*
X133962140Y-75184000D03*
X136801860Y-75184000D03*
X133962140Y-78740000D03*
X136801860Y-78740000D03*
D20*
X126016000Y-78740000D03*
X130016000Y-78740000D03*
X126016000Y-75184000D03*
X130016000Y-75184000D03*
X130016000Y-71374000D03*
X126016000Y-71374000D03*
X121698000Y-60452000D03*
X125698000Y-60452000D03*
D24*
X130302000Y-90646000D03*
X130302000Y-86646000D03*
X120904000Y-72358000D03*
X120904000Y-68358000D03*
D20*
X110522000Y-86106000D03*
X114522000Y-86106000D03*
X110522000Y-89408000D03*
X114522000Y-89408000D03*
D24*
X153670000Y-92424000D03*
X153670000Y-88424000D03*
X156972000Y-92424000D03*
X156972000Y-88424000D03*
X150368000Y-92424000D03*
X150368000Y-88424000D03*
X147066000Y-92424000D03*
X147066000Y-88424000D03*
X140462000Y-92424000D03*
X140462000Y-88424000D03*
X143764000Y-92424000D03*
X143764000Y-88424000D03*
X133858000Y-92424000D03*
X133858000Y-88424000D03*
X137160000Y-92424000D03*
X137160000Y-88424000D03*
D20*
X134906000Y-82550000D03*
X138906000Y-82550000D03*
D24*
X120142000Y-91916000D03*
X120142000Y-87916000D03*
D25*
X127381000Y-91821000D03*
X126111000Y-91821000D03*
X124841000Y-91821000D03*
X123571000Y-91821000D03*
X123571000Y-85471000D03*
X124841000Y-85471000D03*
X126111000Y-85471000D03*
X127381000Y-85471000D03*
D26*
X116460000Y-78740000D03*
X116460000Y-77470000D03*
X116460000Y-76200000D03*
X116460000Y-74930000D03*
X116460000Y-73660000D03*
X116460000Y-72390000D03*
X116460000Y-71120000D03*
X116460000Y-69850000D03*
X116460000Y-68580000D03*
X107060000Y-68580000D03*
X107060000Y-69850000D03*
X107060000Y-71120000D03*
X107060000Y-72390000D03*
X107060000Y-73660000D03*
X107060000Y-74930000D03*
X107060000Y-76200000D03*
X107060000Y-77470000D03*
X107060000Y-78740000D03*
D27*
X145796000Y-61821060D03*
X145796000Y-66702940D03*
D22*
X105410000Y-63214000D03*
X105410000Y-59214000D03*
X117094000Y-63214000D03*
X117094000Y-59214000D03*
D28*
X117745000Y-83566000D03*
X121015000Y-83566000D03*
D29*
X120650000Y-76089000D03*
X120650000Y-79359000D03*
D11*
X100330000Y-84582000D03*
D12*
X97790000Y-84582000D03*
X100330000Y-82042000D03*
X97790000Y-82042000D03*
X100330000Y-79502000D03*
X97790000Y-79502000D03*
X100330000Y-76962000D03*
X97790000Y-76962000D03*
X100330000Y-74422000D03*
X97790000Y-74422000D03*
X100330000Y-71882000D03*
X97790000Y-71882000D03*
X100330000Y-69342000D03*
X97790000Y-69342000D03*
X100330000Y-66802000D03*
X97790000Y-66802000D03*
M02*
