G04 #@! TF.FileFunction,Copper,L1,Top,Signal*
%FSLAX46Y46*%
G04 Gerber Fmt 4.6, Leading zero omitted, Abs format (unit mm)*
G04 Created by KiCad (PCBNEW 4.0.2-1.fc23-product) date Wed 14 Dec 2016 11:24:26 GMT*
%MOMM*%
G01*
G04 APERTURE LIST*
%ADD10C,0.100000*%
%ADD11R,1.727200X1.727200*%
%ADD12C,1.727200*%
%ADD13R,0.530000X1.980000*%
%ADD14R,0.600000X2.000000*%
%ADD15O,1.727200X1.727200*%
%ADD16R,3.657600X2.032000*%
%ADD17R,1.016000X2.032000*%
%ADD18R,1.800860X1.597660*%
%ADD19R,2.000000X1.700000*%
%ADD20R,2.000000X1.600000*%
%ADD21R,1.600000X2.000000*%
%ADD22R,1.597660X1.800860*%
%ADD23R,1.700000X2.000000*%
%ADD24R,0.508000X1.143000*%
%ADD25R,2.000000X0.600000*%
%ADD26C,1.501140*%
%ADD27R,0.910000X1.220000*%
%ADD28R,1.220000X0.910000*%
%ADD29C,0.600000*%
%ADD30C,0.200000*%
%ADD31C,0.250000*%
%ADD32C,0.500000*%
%ADD33C,1.000000*%
%ADD34C,0.254000*%
G04 APERTURE END LIST*
D10*
D11*
X135890000Y-98044000D03*
D12*
X135890000Y-100584000D03*
X133350000Y-98044000D03*
X133350000Y-100584000D03*
X130810000Y-98044000D03*
X130810000Y-100584000D03*
X128270000Y-98044000D03*
X128270000Y-100584000D03*
X125730000Y-98044000D03*
X125730000Y-100584000D03*
X123190000Y-98044000D03*
X123190000Y-100584000D03*
X120650000Y-98044000D03*
X120650000Y-100584000D03*
X118110000Y-98044000D03*
X118110000Y-100584000D03*
D13*
X153797000Y-73547000D03*
X152527000Y-73547000D03*
X151257000Y-73547000D03*
X149987000Y-73547000D03*
X148717000Y-73547000D03*
X147447000Y-73547000D03*
X146177000Y-73547000D03*
X144907000Y-73547000D03*
X143637000Y-73547000D03*
X142367000Y-73547000D03*
X142367000Y-82917000D03*
X143637000Y-82917000D03*
X144907000Y-82917000D03*
X146177000Y-82917000D03*
X147447000Y-82917000D03*
X148717000Y-82917000D03*
X149987000Y-82917000D03*
X151257000Y-82917000D03*
X152527000Y-82917000D03*
X153797000Y-82917000D03*
D14*
X129540000Y-67184000D03*
X130810000Y-67184000D03*
X132080000Y-67184000D03*
X133350000Y-67184000D03*
X134620000Y-67184000D03*
X135890000Y-67184000D03*
X137160000Y-67184000D03*
X138430000Y-67184000D03*
X139700000Y-67184000D03*
X139700000Y-57784000D03*
X138430000Y-57784000D03*
X137160000Y-57784000D03*
X135890000Y-57784000D03*
X134620000Y-57784000D03*
X133350000Y-57784000D03*
X132080000Y-57784000D03*
X130810000Y-57784000D03*
X129540000Y-57784000D03*
D11*
X103620000Y-52260000D03*
D15*
X103620000Y-49720000D03*
X106160000Y-52260000D03*
X106160000Y-49720000D03*
X108700000Y-52260000D03*
X108700000Y-49720000D03*
X111240000Y-52260000D03*
X111240000Y-49720000D03*
X113780000Y-52260000D03*
X113780000Y-49720000D03*
X116320000Y-52260000D03*
X116320000Y-49720000D03*
X118860000Y-52260000D03*
X118860000Y-49720000D03*
X121400000Y-52260000D03*
X121400000Y-49720000D03*
X123940000Y-52260000D03*
X123940000Y-49720000D03*
X126480000Y-52260000D03*
X126480000Y-49720000D03*
X129020000Y-52260000D03*
X129020000Y-49720000D03*
X131560000Y-52260000D03*
X131560000Y-49720000D03*
X134100000Y-52260000D03*
X134100000Y-49720000D03*
X136640000Y-52260000D03*
X136640000Y-49720000D03*
X139180000Y-52260000D03*
X139180000Y-49720000D03*
X141720000Y-52260000D03*
X141720000Y-49720000D03*
X144260000Y-52260000D03*
X144260000Y-49720000D03*
X146800000Y-52260000D03*
X146800000Y-49720000D03*
X149340000Y-52260000D03*
X149340000Y-49720000D03*
X151880000Y-52260000D03*
X151880000Y-49720000D03*
D16*
X111252000Y-56642000D03*
D17*
X111252000Y-63246000D03*
X113538000Y-63246000D03*
X108966000Y-63246000D03*
D18*
X105918000Y-90827860D03*
X105918000Y-87988140D03*
D19*
X114522000Y-92710000D03*
X110522000Y-92710000D03*
D20*
X127032000Y-82550000D03*
X131032000Y-82550000D03*
X125698000Y-57150000D03*
X121698000Y-57150000D03*
D21*
X156972000Y-83534000D03*
X156972000Y-79534000D03*
D20*
X106966000Y-82296000D03*
X110966000Y-82296000D03*
X125698000Y-64262000D03*
X121698000Y-64262000D03*
D22*
X133962140Y-75184000D03*
X136801860Y-75184000D03*
X133962140Y-78740000D03*
X136801860Y-78740000D03*
D19*
X126016000Y-78740000D03*
X130016000Y-78740000D03*
X126016000Y-75184000D03*
X130016000Y-75184000D03*
X130016000Y-71374000D03*
X126016000Y-71374000D03*
X121698000Y-60452000D03*
X125698000Y-60452000D03*
D23*
X130302000Y-90646000D03*
X130302000Y-86646000D03*
X120904000Y-72358000D03*
X120904000Y-68358000D03*
D19*
X110522000Y-86106000D03*
X114522000Y-86106000D03*
X110522000Y-89408000D03*
X114522000Y-89408000D03*
D23*
X153670000Y-92424000D03*
X153670000Y-88424000D03*
X156972000Y-92424000D03*
X156972000Y-88424000D03*
X150368000Y-92424000D03*
X150368000Y-88424000D03*
X147066000Y-92424000D03*
X147066000Y-88424000D03*
X140462000Y-92424000D03*
X140462000Y-88424000D03*
X143764000Y-92424000D03*
X143764000Y-88424000D03*
X133858000Y-92424000D03*
X133858000Y-88424000D03*
X137160000Y-92424000D03*
X137160000Y-88424000D03*
D19*
X134906000Y-82550000D03*
X138906000Y-82550000D03*
D23*
X120142000Y-91916000D03*
X120142000Y-87916000D03*
D24*
X127381000Y-91821000D03*
X126111000Y-91821000D03*
X124841000Y-91821000D03*
X123571000Y-91821000D03*
X123571000Y-85471000D03*
X124841000Y-85471000D03*
X126111000Y-85471000D03*
X127381000Y-85471000D03*
D25*
X116460000Y-78740000D03*
X116460000Y-77470000D03*
X116460000Y-76200000D03*
X116460000Y-74930000D03*
X116460000Y-73660000D03*
X116460000Y-72390000D03*
X116460000Y-71120000D03*
X116460000Y-69850000D03*
X116460000Y-68580000D03*
X107060000Y-68580000D03*
X107060000Y-69850000D03*
X107060000Y-71120000D03*
X107060000Y-72390000D03*
X107060000Y-73660000D03*
X107060000Y-74930000D03*
X107060000Y-76200000D03*
X107060000Y-77470000D03*
X107060000Y-78740000D03*
D26*
X145796000Y-61821060D03*
X145796000Y-66702940D03*
D21*
X105410000Y-63214000D03*
X105410000Y-59214000D03*
X117094000Y-63214000D03*
X117094000Y-59214000D03*
D27*
X117745000Y-83566000D03*
X121015000Y-83566000D03*
D28*
X120650000Y-76089000D03*
X120650000Y-79359000D03*
D11*
X100330000Y-84582000D03*
D12*
X97790000Y-84582000D03*
X100330000Y-82042000D03*
X97790000Y-82042000D03*
X100330000Y-79502000D03*
X97790000Y-79502000D03*
X100330000Y-76962000D03*
X97790000Y-76962000D03*
X100330000Y-74422000D03*
X97790000Y-74422000D03*
X100330000Y-71882000D03*
X97790000Y-71882000D03*
X100330000Y-69342000D03*
X97790000Y-69342000D03*
X100330000Y-66802000D03*
X97790000Y-66802000D03*
D29*
X116078000Y-98298000D03*
X114046000Y-100330000D03*
X133096000Y-82550000D03*
X131032000Y-84582000D03*
X112776000Y-81026000D03*
X105918000Y-85852000D03*
X121015000Y-81645000D03*
X123444000Y-64262000D03*
X118364000Y-68580000D03*
X104394000Y-56134000D03*
X114808000Y-56642000D03*
X119126000Y-57150000D03*
X123952000Y-71882000D03*
X154940000Y-79502000D03*
X153924000Y-84836000D03*
X114554000Y-74930000D03*
X126270000Y-86646000D03*
X139700000Y-69088000D03*
X142494000Y-75438000D03*
X153670000Y-71882000D03*
X110744000Y-71120000D03*
X113030000Y-68834000D03*
X114808000Y-83566000D03*
X119888000Y-85598000D03*
X106172000Y-66548000D03*
X106934000Y-67310000D03*
X131318000Y-54102000D03*
X136398000Y-54864000D03*
X125984000Y-54102000D03*
X152400000Y-58928000D03*
X151638000Y-58166000D03*
X150876000Y-57404000D03*
X150114000Y-56642000D03*
X122174000Y-87630000D03*
X125984000Y-88900000D03*
D30*
X136144000Y-100838000D02*
X136398000Y-100838000D01*
D31*
X104648000Y-53594000D02*
X103886000Y-54356000D01*
X103886000Y-54356000D02*
X101092000Y-57150000D01*
X101092000Y-57150000D02*
X101092000Y-59944000D01*
X101092000Y-59944000D02*
X100584000Y-60452000D01*
D32*
X114046000Y-100330000D02*
X109474000Y-100330000D01*
X109474000Y-100330000D02*
X99568000Y-90424000D01*
X99568000Y-90424000D02*
X99568000Y-86360000D01*
X117856000Y-92964000D02*
X117856000Y-90932000D01*
X117856000Y-90932000D02*
X118872000Y-89916000D01*
X118872000Y-89916000D02*
X121920000Y-89916000D01*
X121920000Y-89916000D02*
X123444000Y-88392000D01*
X124333000Y-87503000D02*
X125349000Y-87503000D01*
X125349000Y-87503000D02*
X125476000Y-87630000D01*
X125476000Y-87630000D02*
X128016000Y-87630000D01*
X128016000Y-87630000D02*
X129032000Y-88646000D01*
X129032000Y-88646000D02*
X131572000Y-88646000D01*
X131572000Y-88646000D02*
X132080000Y-88138000D01*
X132080000Y-88138000D02*
X132080000Y-86106000D01*
X132080000Y-86106000D02*
X133350000Y-84836000D01*
X133350000Y-84836000D02*
X140208000Y-84836000D01*
X140208000Y-84836000D02*
X140970000Y-84074000D01*
X140970000Y-84074000D02*
X140970000Y-81534000D01*
X140970000Y-81534000D02*
X141732000Y-80772000D01*
X141732000Y-80772000D02*
X153162000Y-80772000D01*
X153162000Y-80772000D02*
X153797000Y-81407000D01*
X153797000Y-81407000D02*
X153797000Y-82917000D01*
X156972000Y-84328000D02*
X156972000Y-83534000D01*
X116078000Y-98298000D02*
X116332000Y-98044000D01*
X116332000Y-98044000D02*
X116332000Y-94488000D01*
X116332000Y-94488000D02*
X117856000Y-92964000D01*
X123444000Y-88392000D02*
X124333000Y-87503000D01*
X124333000Y-87503000D02*
X124841000Y-86995000D01*
X124841000Y-86995000D02*
X124841000Y-85471000D01*
X100330000Y-84582000D02*
X100330000Y-85598000D01*
X153797000Y-82917000D02*
X153797000Y-82931000D01*
X153797000Y-82931000D02*
X154400000Y-83534000D01*
X154400000Y-83534000D02*
X156972000Y-83534000D01*
X124841000Y-85471000D02*
X124841000Y-84455000D01*
X124841000Y-84455000D02*
X126746000Y-82550000D01*
X126746000Y-82550000D02*
X127032000Y-82550000D01*
D31*
X104648000Y-53594000D02*
X104902000Y-53340000D01*
X104902000Y-53340000D02*
X104902000Y-49720000D01*
X103620000Y-49720000D02*
X103822000Y-49720000D01*
D33*
X106160000Y-49720000D02*
X104902000Y-49720000D01*
X104902000Y-49720000D02*
X103620000Y-49720000D01*
D31*
X106160000Y-49720000D02*
X106160000Y-49772000D01*
X103620000Y-49720000D02*
X106160000Y-49720000D01*
D32*
X100330000Y-85598000D02*
X99568000Y-86360000D01*
X99568000Y-86360000D02*
X99314000Y-86614000D01*
X99314000Y-86614000D02*
X97536000Y-86614000D01*
X97536000Y-86614000D02*
X96012000Y-85090000D01*
X96012000Y-85090000D02*
X96012000Y-65024000D01*
X96012000Y-65024000D02*
X100584000Y-60452000D01*
X100584000Y-60452000D02*
X100838000Y-60452000D01*
D30*
X136144000Y-98298000D02*
X136144000Y-98806000D01*
D32*
X110966000Y-82296000D02*
X111506000Y-82296000D01*
X111506000Y-82296000D02*
X112776000Y-81026000D01*
X105918000Y-87988140D02*
X105918000Y-85852000D01*
X120650000Y-79359000D02*
X120650000Y-81280000D01*
X120650000Y-81280000D02*
X121015000Y-81645000D01*
X121015000Y-81645000D02*
X121015000Y-83566000D01*
D30*
X121015000Y-79724000D02*
X120650000Y-79359000D01*
D32*
X121698000Y-64262000D02*
X123444000Y-64262000D01*
X116460000Y-68580000D02*
X118364000Y-68580000D01*
D33*
X105410000Y-58166000D02*
X105410000Y-57150000D01*
X105410000Y-57150000D02*
X104394000Y-56134000D01*
X121698000Y-57150000D02*
X119126000Y-57150000D01*
D32*
X121698000Y-57150000D02*
X119126000Y-57150000D01*
X119126000Y-57150000D02*
X117856000Y-57150000D01*
X117856000Y-57150000D02*
X117094000Y-57912000D01*
D33*
X126016000Y-71374000D02*
X124460000Y-71374000D01*
X124460000Y-71374000D02*
X123952000Y-71882000D01*
D30*
X111077000Y-82185000D02*
X110966000Y-82296000D01*
D33*
X117094000Y-59214000D02*
X117094000Y-57912000D01*
X117094000Y-57912000D02*
X117094000Y-57658000D01*
X117094000Y-57658000D02*
X116078000Y-56642000D01*
X116078000Y-56642000D02*
X114808000Y-56642000D01*
X114808000Y-56642000D02*
X111252000Y-56642000D01*
X105410000Y-59214000D02*
X105410000Y-58166000D01*
X105410000Y-58166000D02*
X106934000Y-56642000D01*
X106934000Y-56642000D02*
X111252000Y-56642000D01*
X154972000Y-79534000D02*
X154940000Y-79502000D01*
X156972000Y-79534000D02*
X154972000Y-79534000D01*
D30*
X154940000Y-79502000D02*
X154972000Y-79534000D01*
X152527000Y-83947000D02*
X153416000Y-84836000D01*
X153924000Y-84836000D02*
X153416000Y-84836000D01*
X152527000Y-83947000D02*
X152527000Y-82917000D01*
X116460000Y-76200000D02*
X116460000Y-74930000D01*
X116460000Y-73660000D02*
X116460000Y-74930000D01*
X116460000Y-74930000D02*
X114554000Y-74930000D01*
D32*
X131032000Y-82550000D02*
X133096000Y-82550000D01*
X133096000Y-82550000D02*
X134906000Y-82550000D01*
X130302000Y-86646000D02*
X130302000Y-86360000D01*
X130302000Y-86360000D02*
X131032000Y-85630000D01*
X131032000Y-85630000D02*
X131032000Y-84582000D01*
X131032000Y-84582000D02*
X131032000Y-82550000D01*
X139700000Y-67184000D02*
X139700000Y-69088000D01*
X142367000Y-73547000D02*
X142367000Y-75311000D01*
X142367000Y-75311000D02*
X142494000Y-75438000D01*
X153797000Y-73547000D02*
X153797000Y-72009000D01*
X153797000Y-72009000D02*
X153670000Y-71882000D01*
X126111000Y-85471000D02*
X126111000Y-86487000D01*
X126270000Y-86646000D02*
X130302000Y-86646000D01*
X126111000Y-86487000D02*
X126270000Y-86646000D01*
X107060000Y-78740000D02*
X109220000Y-78740000D01*
X109220000Y-78740000D02*
X110744000Y-77216000D01*
X110744000Y-77216000D02*
X110744000Y-71120000D01*
X112522000Y-84582000D02*
X113538000Y-83566000D01*
X113538000Y-83566000D02*
X114808000Y-83566000D01*
X119888000Y-85598000D02*
X119634000Y-85598000D01*
X118110000Y-100584000D02*
X116332000Y-100584000D01*
X116332000Y-100584000D02*
X112522000Y-96774000D01*
X112522000Y-96774000D02*
X112522000Y-92202000D01*
X106966000Y-82296000D02*
X108458000Y-82296000D01*
X108458000Y-82296000D02*
X108966000Y-82804000D01*
X108966000Y-82804000D02*
X108966000Y-83566000D01*
X108966000Y-83566000D02*
X109474000Y-84074000D01*
X109474000Y-84074000D02*
X112014000Y-84074000D01*
X112014000Y-84074000D02*
X112522000Y-84582000D01*
X112522000Y-84582000D02*
X112522000Y-92202000D01*
X112522000Y-92202000D02*
X112522000Y-92456000D01*
X112522000Y-92456000D02*
X112776000Y-92710000D01*
X112776000Y-92710000D02*
X114522000Y-92710000D01*
X125698000Y-57150000D02*
X125698000Y-58388000D01*
X125698000Y-58388000D02*
X125412000Y-58674000D01*
X125412000Y-58674000D02*
X123476000Y-58674000D01*
X123476000Y-58674000D02*
X121698000Y-60452000D01*
X121412000Y-61754000D02*
X121698000Y-61468000D01*
X121698000Y-61468000D02*
X121698000Y-60928000D01*
X125476000Y-57150000D02*
X125698000Y-57150000D01*
X107950000Y-82296000D02*
X106966000Y-82296000D01*
X106966000Y-82296000D02*
X106966000Y-82328000D01*
X106966000Y-82296000D02*
X106966000Y-82328000D01*
X106172000Y-82296000D02*
X106966000Y-82296000D01*
X107060000Y-82202000D02*
X106966000Y-82296000D01*
X129540000Y-57784000D02*
X127888000Y-57784000D01*
X127888000Y-57784000D02*
X127254000Y-57150000D01*
X127254000Y-57150000D02*
X125698000Y-57150000D01*
D30*
X118872000Y-77724000D02*
X119015000Y-77724000D01*
X119015000Y-77724000D02*
X120650000Y-76089000D01*
X114522000Y-89916000D02*
X116586000Y-89916000D01*
X116586000Y-89916000D02*
X118110000Y-88392000D01*
X118110000Y-88392000D02*
X118110000Y-85852000D01*
X118110000Y-85852000D02*
X118872000Y-85090000D01*
X118872000Y-85090000D02*
X118872000Y-77724000D01*
X118872000Y-77724000D02*
X118618000Y-77470000D01*
X118618000Y-77470000D02*
X116460000Y-77470000D01*
X117348000Y-77470000D02*
X116460000Y-77470000D01*
X114808000Y-77470000D02*
X116460000Y-77470000D01*
X112776000Y-75438000D02*
X114808000Y-77470000D01*
X112776000Y-70612000D02*
X112776000Y-75438000D01*
X108712000Y-66548000D02*
X112776000Y-70612000D01*
X106172000Y-66548000D02*
X108712000Y-66548000D01*
X106160000Y-52260000D02*
X106490000Y-52260000D01*
D31*
X106160000Y-52312000D02*
X106160000Y-52260000D01*
D30*
X117745000Y-83566000D02*
X117745000Y-79359000D01*
X117745000Y-79359000D02*
X117126000Y-78740000D01*
X117126000Y-78740000D02*
X116460000Y-78740000D01*
X114522000Y-86106000D02*
X116332000Y-86106000D01*
X116332000Y-86106000D02*
X117745000Y-84693000D01*
X117745000Y-84693000D02*
X117745000Y-83566000D01*
X116460000Y-78740000D02*
X114808000Y-78740000D01*
X108458000Y-67310000D02*
X106934000Y-67310000D01*
X112014000Y-70866000D02*
X108458000Y-67310000D01*
X112014000Y-75946000D02*
X112014000Y-70866000D01*
X114808000Y-78740000D02*
X112014000Y-75946000D01*
D31*
X108700000Y-52260000D02*
X108700000Y-52336000D01*
D30*
X134620000Y-57784000D02*
X134620000Y-56134000D01*
X132588000Y-54102000D02*
X131318000Y-54102000D01*
X134620000Y-56134000D02*
X132588000Y-54102000D01*
D31*
X126480000Y-52260000D02*
X126480000Y-52566000D01*
D30*
X129020000Y-52260000D02*
X129020000Y-53074000D01*
X129020000Y-53074000D02*
X131064000Y-55118000D01*
X133350000Y-56134000D02*
X133350000Y-57784000D01*
X132334000Y-55118000D02*
X133350000Y-56134000D01*
X131064000Y-55118000D02*
X132334000Y-55118000D01*
D31*
X129020000Y-52312000D02*
X129020000Y-52260000D01*
X129020000Y-52260000D02*
X129020000Y-52312000D01*
D30*
X131560000Y-52260000D02*
X132016000Y-52260000D01*
X132016000Y-52260000D02*
X135890000Y-56134000D01*
X135890000Y-56134000D02*
X135890000Y-57784000D01*
X131560000Y-52260000D02*
X131636000Y-52260000D01*
X131560000Y-52820000D02*
X131560000Y-52260000D01*
X131560000Y-52260000D02*
X131560000Y-52312000D01*
D31*
X131560000Y-52260000D02*
X131762000Y-52260000D01*
X131560000Y-52260000D02*
X131560000Y-52566000D01*
D32*
X110522000Y-92710000D02*
X107800140Y-92710000D01*
X107800140Y-92710000D02*
X105918000Y-90827860D01*
D31*
X116840000Y-52780000D02*
X116320000Y-52260000D01*
X118860000Y-52260000D02*
X118860000Y-52312000D01*
X121400000Y-52260000D02*
X121400000Y-52820000D01*
X121400000Y-49720000D02*
X121400000Y-50026000D01*
X131560000Y-49720000D02*
X131560000Y-49796000D01*
X134100000Y-49720000D02*
X134100000Y-49772000D01*
X134100000Y-49720000D02*
X134100000Y-49796000D01*
X138430000Y-67184000D02*
X138430000Y-66040000D01*
X143863060Y-64770000D02*
X145796000Y-66702940D01*
X139700000Y-64770000D02*
X143863060Y-64770000D01*
X138430000Y-66040000D02*
X139700000Y-64770000D01*
X137160000Y-67184000D02*
X137160000Y-66040000D01*
X141378940Y-61821060D02*
X145796000Y-61821060D01*
X137160000Y-66040000D02*
X141378940Y-61821060D01*
D30*
X116320000Y-49720000D02*
X116320000Y-50026000D01*
X116320000Y-50026000D02*
X117602000Y-51308000D01*
X137160000Y-55626000D02*
X137160000Y-57784000D01*
X136398000Y-54864000D02*
X137160000Y-55626000D01*
X118618000Y-54102000D02*
X125984000Y-54102000D01*
X117602000Y-53086000D02*
X118618000Y-54102000D01*
X117602000Y-51308000D02*
X117602000Y-53086000D01*
X129020000Y-49720000D02*
X129020000Y-50050000D01*
X129020000Y-50050000D02*
X127762000Y-51308000D01*
X132080000Y-56388000D02*
X132080000Y-57784000D01*
X131572000Y-55880000D02*
X132080000Y-56388000D01*
X130556000Y-55880000D02*
X131572000Y-55880000D01*
X127762000Y-53086000D02*
X130556000Y-55880000D01*
X127762000Y-51308000D02*
X127762000Y-53086000D01*
X129020000Y-49720000D02*
X129020000Y-49796000D01*
D31*
X152527000Y-59055000D02*
X152400000Y-58928000D01*
X152527000Y-73547000D02*
X152527000Y-59055000D01*
X151638000Y-58420000D02*
X151638000Y-58166000D01*
X151638000Y-71882000D02*
X151638000Y-58420000D01*
X151257000Y-72263000D02*
X151638000Y-71882000D01*
X151257000Y-73547000D02*
X151257000Y-72263000D01*
X141720000Y-52260000D02*
X141720000Y-52566000D01*
X149987000Y-72517000D02*
X149987000Y-73547000D01*
X150876000Y-71628000D02*
X150876000Y-57404000D01*
X149987000Y-72517000D02*
X150876000Y-71628000D01*
X148717000Y-73547000D02*
X148717000Y-72517000D01*
X148717000Y-72517000D02*
X150114000Y-71120000D01*
X150114000Y-71120000D02*
X150114000Y-56642000D01*
X147447000Y-73547000D02*
X147447000Y-75057000D01*
X146812000Y-53848000D02*
X146812000Y-53086000D01*
X147828000Y-54864000D02*
X146812000Y-53848000D01*
X149606000Y-54864000D02*
X147828000Y-54864000D01*
X153416000Y-58674000D02*
X149606000Y-54864000D01*
X153416000Y-70358000D02*
X153416000Y-58674000D01*
X154940000Y-71882000D02*
X153416000Y-70358000D01*
X154940000Y-74676000D02*
X154940000Y-71882000D01*
X154178000Y-75438000D02*
X154940000Y-74676000D01*
X147828000Y-75438000D02*
X154178000Y-75438000D01*
X147447000Y-75057000D02*
X147828000Y-75438000D01*
X146812000Y-53086000D02*
X146800000Y-52260000D01*
X146812000Y-53086000D02*
X146800000Y-52260000D01*
X146800000Y-52820000D02*
X146800000Y-52260000D01*
X146800000Y-49720000D02*
X146800000Y-50026000D01*
X146800000Y-50026000D02*
X148082000Y-51308000D01*
X148082000Y-51308000D02*
X148082000Y-53340000D01*
X148082000Y-53340000D02*
X148844000Y-54102000D01*
X148844000Y-54102000D02*
X149860000Y-54102000D01*
X149860000Y-54102000D02*
X154178000Y-58420000D01*
X154178000Y-58420000D02*
X154178000Y-70104000D01*
X154178000Y-70104000D02*
X155956000Y-71882000D01*
X155956000Y-71882000D02*
X155956000Y-75438000D01*
X155956000Y-75438000D02*
X155194000Y-76200000D01*
X155194000Y-76200000D02*
X147320000Y-76200000D01*
X147320000Y-76200000D02*
X146177000Y-75057000D01*
X146177000Y-75057000D02*
X146177000Y-73547000D01*
X146800000Y-49720000D02*
X146800000Y-50026000D01*
X154432000Y-57658000D02*
X154686000Y-57912000D01*
X144907000Y-74803000D02*
X147066000Y-76962000D01*
X147066000Y-76962000D02*
X155448000Y-76962000D01*
X155448000Y-76962000D02*
X156718000Y-75692000D01*
X156718000Y-75692000D02*
X156718000Y-71628000D01*
X156718000Y-71628000D02*
X154940000Y-69850000D01*
X144907000Y-73547000D02*
X144907000Y-74803000D01*
X154432000Y-57658000D02*
X149340000Y-52566000D01*
X154940000Y-58166000D02*
X154940000Y-69850000D01*
X154686000Y-57912000D02*
X154940000Y-58166000D01*
X149340000Y-52260000D02*
X149340000Y-52566000D01*
X149340000Y-52260000D02*
X149542000Y-52260000D01*
X155702000Y-68326000D02*
X155702000Y-69596000D01*
X143637000Y-75057000D02*
X143637000Y-73547000D01*
X146304000Y-77724000D02*
X143637000Y-75057000D01*
X155702000Y-77724000D02*
X146304000Y-77724000D01*
X157480000Y-75946000D02*
X155702000Y-77724000D01*
X157480000Y-71374000D02*
X157480000Y-75946000D01*
X155702000Y-69596000D02*
X157480000Y-71374000D01*
X155390002Y-57600002D02*
X155702000Y-57912000D01*
X150622000Y-51054000D02*
X150622000Y-52832000D01*
X150622000Y-52832000D02*
X155390002Y-57600002D01*
X149340000Y-49772000D02*
X150622000Y-51054000D01*
X155702000Y-57912000D02*
X155702000Y-68326000D01*
X155702000Y-68326000D02*
X155702000Y-68580000D01*
X149340000Y-49720000D02*
X149340000Y-49772000D01*
X143637000Y-74295000D02*
X143637000Y-73547000D01*
D30*
X149340000Y-49720000D02*
X149340000Y-50026000D01*
D31*
X123571000Y-85471000D02*
X123571000Y-84201000D01*
X125222000Y-82550000D02*
X125222000Y-79534000D01*
X123571000Y-84201000D02*
X125222000Y-82550000D01*
X125222000Y-79534000D02*
X126016000Y-78740000D01*
X126016000Y-78740000D02*
X126016000Y-75184000D01*
X130810000Y-68580000D02*
X130810000Y-67184000D01*
X130016000Y-71374000D02*
X130016000Y-70898000D01*
X130016000Y-70898000D02*
X130810000Y-70104000D01*
X130810000Y-70104000D02*
X130810000Y-68580000D01*
X130810000Y-68580000D02*
X130810000Y-68200000D01*
X130016000Y-75184000D02*
X130016000Y-71374000D01*
D30*
X127381000Y-91821000D02*
X129127000Y-91821000D01*
X129127000Y-91821000D02*
X130302000Y-90646000D01*
D31*
X129540000Y-68326000D02*
X129540000Y-67184000D01*
X128778000Y-81534000D02*
X128778000Y-81026000D01*
X129540000Y-68834000D02*
X129540000Y-68326000D01*
X129540000Y-68326000D02*
X129540000Y-68200000D01*
X128778000Y-81026000D02*
X128016000Y-80264000D01*
X128016000Y-80264000D02*
X128016000Y-70358000D01*
X128016000Y-70358000D02*
X129540000Y-68834000D01*
X136801860Y-78740000D02*
X136801860Y-80368140D01*
X136801860Y-80368140D02*
X136398000Y-80772000D01*
X136398000Y-80772000D02*
X129540000Y-80772000D01*
X129540000Y-80772000D02*
X128778000Y-81534000D01*
X128778000Y-81534000D02*
X128778000Y-81788000D01*
X127381000Y-84709000D02*
X127381000Y-85471000D01*
X128778000Y-81788000D02*
X128778000Y-84074000D01*
X128778000Y-84074000D02*
X128270000Y-84582000D01*
X128270000Y-84582000D02*
X127508000Y-84582000D01*
X127508000Y-84582000D02*
X127381000Y-84709000D01*
X133962140Y-75184000D02*
X133962140Y-76304140D01*
X136801860Y-77619860D02*
X136801860Y-78740000D01*
X136144000Y-76962000D02*
X136801860Y-77619860D01*
X134620000Y-76962000D02*
X136144000Y-76962000D01*
X133962140Y-76304140D02*
X134620000Y-76962000D01*
D30*
X133350000Y-98044000D02*
X133350000Y-97790000D01*
X133350000Y-97790000D02*
X134366000Y-96774000D01*
X134366000Y-96774000D02*
X149320000Y-96774000D01*
X149320000Y-96774000D02*
X153670000Y-92424000D01*
D31*
X133604000Y-97790000D02*
X133604000Y-98298000D01*
D30*
X133350000Y-98044000D02*
X133350000Y-98298000D01*
X133350000Y-100584000D02*
X133350000Y-100330000D01*
X133350000Y-100330000D02*
X134366000Y-99314000D01*
X134366000Y-99314000D02*
X137922000Y-99314000D01*
X137922000Y-99314000D02*
X139954000Y-97282000D01*
X139954000Y-97282000D02*
X152114000Y-97282000D01*
X152114000Y-97282000D02*
X156972000Y-92424000D01*
X140208000Y-95758000D02*
X144526000Y-95758000D01*
X132842000Y-95758000D02*
X140208000Y-95758000D01*
X130810000Y-97790000D02*
X132842000Y-95758000D01*
X149352000Y-90678000D02*
X150368000Y-91694000D01*
X145796000Y-90678000D02*
X149352000Y-90678000D01*
X145542000Y-90932000D02*
X145796000Y-90678000D01*
X145542000Y-94742000D02*
X145542000Y-90932000D01*
X144526000Y-95758000D02*
X145542000Y-94742000D01*
X150368000Y-91694000D02*
X150368000Y-92424000D01*
X130810000Y-98044000D02*
X130810000Y-97790000D01*
X140716000Y-96266000D02*
X144780000Y-96266000D01*
X133096000Y-96266000D02*
X140716000Y-96266000D01*
X132080000Y-97282000D02*
X133096000Y-96266000D01*
X132080000Y-99568000D02*
X132080000Y-97282000D01*
X131064000Y-100584000D02*
X132080000Y-99568000D01*
X147066000Y-93980000D02*
X147066000Y-92424000D01*
X144780000Y-96266000D02*
X147066000Y-93980000D01*
X130810000Y-100584000D02*
X131064000Y-100584000D01*
X128270000Y-98044000D02*
X128270000Y-97790000D01*
X128270000Y-97790000D02*
X131318000Y-94742000D01*
X131318000Y-94742000D02*
X139700000Y-94742000D01*
X139700000Y-94742000D02*
X140462000Y-93980000D01*
X140462000Y-93980000D02*
X140462000Y-92424000D01*
X128270000Y-100584000D02*
X129032000Y-100584000D01*
X129032000Y-100584000D02*
X129540000Y-100076000D01*
X129540000Y-100076000D02*
X129540000Y-97282000D01*
X129540000Y-97282000D02*
X131572000Y-95250000D01*
X131572000Y-95250000D02*
X142494000Y-95250000D01*
X142494000Y-95250000D02*
X143764000Y-93980000D01*
X143764000Y-93980000D02*
X143764000Y-92424000D01*
X125730000Y-98044000D02*
X130048000Y-93726000D01*
X132556000Y-93726000D02*
X133858000Y-92424000D01*
X130048000Y-93726000D02*
X132556000Y-93726000D01*
X125730000Y-100584000D02*
X125984000Y-100584000D01*
X125984000Y-100584000D02*
X127000000Y-99568000D01*
X127000000Y-99568000D02*
X127000000Y-97536000D01*
X127000000Y-97536000D02*
X130302000Y-94234000D01*
X130302000Y-94234000D02*
X136144000Y-94234000D01*
X136144000Y-94234000D02*
X137160000Y-93218000D01*
X137160000Y-93218000D02*
X137160000Y-92424000D01*
D31*
X151257000Y-82917000D02*
X151257000Y-83947000D01*
X153670000Y-86360000D02*
X153670000Y-88424000D01*
X151257000Y-83947000D02*
X153670000Y-86360000D01*
D30*
X153670000Y-88424000D02*
X153956000Y-88424000D01*
D31*
X149987000Y-82917000D02*
X149987000Y-84963000D01*
X156972000Y-89662000D02*
X156972000Y-88424000D01*
X156210000Y-90424000D02*
X156972000Y-89662000D01*
X152654000Y-90424000D02*
X156210000Y-90424000D01*
X151892000Y-89662000D02*
X152654000Y-90424000D01*
X151892000Y-86868000D02*
X151892000Y-89662000D01*
X149987000Y-84963000D02*
X151892000Y-86868000D01*
X149987000Y-83171000D02*
X149987000Y-83947000D01*
D30*
X156972000Y-88424000D02*
X156972000Y-88138000D01*
D31*
X148717000Y-82917000D02*
X148717000Y-85471000D01*
X150368000Y-87122000D02*
X150368000Y-88424000D01*
X148717000Y-85471000D02*
X150368000Y-87122000D01*
X150368000Y-87884000D02*
X150368000Y-88424000D01*
D30*
X150368000Y-88138000D02*
X150368000Y-88424000D01*
X150368000Y-88424000D02*
X150368000Y-87884000D01*
D31*
X147447000Y-82917000D02*
X147447000Y-86233000D01*
X147066000Y-86614000D02*
X147066000Y-88424000D01*
X147447000Y-86233000D02*
X147066000Y-86614000D01*
X147066000Y-87630000D02*
X147066000Y-88424000D01*
D30*
X147066000Y-88424000D02*
X147288000Y-88424000D01*
D31*
X145288000Y-86868000D02*
X145288000Y-89916000D01*
X140970000Y-90424000D02*
X140462000Y-89916000D01*
X140462000Y-88424000D02*
X140462000Y-89916000D01*
X146177000Y-85979000D02*
X146177000Y-82917000D01*
X146177000Y-85979000D02*
X145288000Y-86868000D01*
X141478000Y-90424000D02*
X140970000Y-90424000D01*
X144780000Y-90424000D02*
X141478000Y-90424000D01*
X145288000Y-89916000D02*
X144780000Y-90424000D01*
X140462000Y-89408000D02*
X140462000Y-88424000D01*
X145937000Y-83171000D02*
X146177000Y-83171000D01*
X140494000Y-88424000D02*
X140462000Y-88424000D01*
D30*
X140430000Y-87884000D02*
X140430000Y-87662000D01*
D32*
X130810000Y-57784000D02*
X130810000Y-59182000D01*
X130810000Y-59182000D02*
X129794000Y-60198000D01*
X129794000Y-60198000D02*
X125952000Y-60198000D01*
X125952000Y-60198000D02*
X125698000Y-60452000D01*
X125698000Y-64262000D02*
X125698000Y-60452000D01*
D30*
X124460000Y-90424000D02*
X122936000Y-90424000D01*
X122936000Y-90424000D02*
X121444000Y-91916000D01*
X121444000Y-91916000D02*
X120142000Y-91916000D01*
D31*
X124841000Y-91821000D02*
X124841000Y-90805000D01*
X124841000Y-90805000D02*
X124460000Y-90424000D01*
X124460000Y-90424000D02*
X124428000Y-90392000D01*
X120650000Y-98044000D02*
X120650000Y-97790000D01*
X120650000Y-97790000D02*
X122682000Y-95758000D01*
X122682000Y-95758000D02*
X123952000Y-95758000D01*
X123952000Y-95758000D02*
X124841000Y-94869000D01*
X124841000Y-94869000D02*
X124841000Y-91821000D01*
D30*
X122174000Y-87630000D02*
X121888000Y-87916000D01*
X121888000Y-87916000D02*
X120142000Y-87916000D01*
X125984000Y-88900000D02*
X126111000Y-89027000D01*
X126111000Y-89027000D02*
X126111000Y-91821000D01*
D31*
X120650000Y-100584000D02*
X121920000Y-99314000D01*
X126111000Y-95123000D02*
X126111000Y-91821000D01*
X124714000Y-96520000D02*
X126111000Y-95123000D01*
X122936000Y-96520000D02*
X124714000Y-96520000D01*
X121920000Y-97536000D02*
X122936000Y-96520000D01*
X121920000Y-99314000D02*
X121920000Y-97536000D01*
X120650000Y-100584000D02*
X120650000Y-100330000D01*
D30*
X110522000Y-86106000D02*
X109982000Y-86106000D01*
X109982000Y-86106000D02*
X108204000Y-84328000D01*
X108204000Y-84328000D02*
X105410000Y-84328000D01*
X105410000Y-84328000D02*
X101854000Y-80772000D01*
X101854000Y-80772000D02*
X99060000Y-80772000D01*
X99060000Y-80772000D02*
X97790000Y-82042000D01*
X110522000Y-86106000D02*
X109728000Y-86106000D01*
X97790000Y-82042000D02*
X97790000Y-81788000D01*
X110522000Y-89916000D02*
X110522000Y-89440000D01*
X110522000Y-89440000D02*
X108712000Y-87630000D01*
X108712000Y-87630000D02*
X108712000Y-85598000D01*
X108712000Y-85598000D02*
X107950000Y-84836000D01*
X107950000Y-84836000D02*
X105156000Y-84836000D01*
X105156000Y-84836000D02*
X102362000Y-82042000D01*
X102362000Y-82042000D02*
X100330000Y-82042000D01*
X109728000Y-89916000D02*
X110522000Y-89916000D01*
X110966000Y-89408000D02*
X110236000Y-89408000D01*
X110966000Y-89408000D02*
X110490000Y-89408000D01*
X110966000Y-89408000D02*
X110490000Y-89408000D01*
X100330000Y-82042000D02*
X100838000Y-82042000D01*
X107060000Y-68580000D02*
X105664000Y-68580000D01*
X99314000Y-65278000D02*
X97790000Y-66802000D01*
X102362000Y-65278000D02*
X99314000Y-65278000D01*
X105664000Y-68580000D02*
X102362000Y-65278000D01*
D31*
X107060000Y-68580000D02*
X106172000Y-68580000D01*
D30*
X107060000Y-69850000D02*
X105664000Y-69850000D01*
X102616000Y-66802000D02*
X100330000Y-66802000D01*
X105664000Y-69850000D02*
X102616000Y-66802000D01*
X107060000Y-71120000D02*
X105410000Y-71120000D01*
X99060000Y-68072000D02*
X97790000Y-69342000D01*
X102362000Y-68072000D02*
X99060000Y-68072000D01*
X105410000Y-71120000D02*
X102362000Y-68072000D01*
X107060000Y-72390000D02*
X105410000Y-72390000D01*
X102362000Y-69342000D02*
X100330000Y-69342000D01*
X105410000Y-72390000D02*
X102362000Y-69342000D01*
X107060000Y-73660000D02*
X105410000Y-73660000D01*
X99060000Y-70612000D02*
X97790000Y-71882000D01*
X102362000Y-70612000D02*
X99060000Y-70612000D01*
X105410000Y-73660000D02*
X102362000Y-70612000D01*
D31*
X107060000Y-73660000D02*
X106172000Y-73660000D01*
D30*
X107060000Y-74930000D02*
X105410000Y-74930000D01*
X102362000Y-71882000D02*
X100330000Y-71882000D01*
X105410000Y-74930000D02*
X102362000Y-71882000D01*
D31*
X100838000Y-71882000D02*
X100330000Y-71882000D01*
X100330000Y-71882000D02*
X100330000Y-72136000D01*
X107060000Y-74930000D02*
X106172000Y-74930000D01*
D30*
X107060000Y-76200000D02*
X105156000Y-76200000D01*
X99060000Y-73152000D02*
X97790000Y-74422000D01*
X102108000Y-73152000D02*
X99060000Y-73152000D01*
X105156000Y-76200000D02*
X102108000Y-73152000D01*
D31*
X107060000Y-76200000D02*
X106172000Y-76200000D01*
D30*
X107060000Y-77470000D02*
X104902000Y-77470000D01*
X101854000Y-74422000D02*
X100330000Y-74422000D01*
X104902000Y-77470000D02*
X101854000Y-74422000D01*
D31*
X100330000Y-74422000D02*
X100584000Y-74422000D01*
X106172000Y-77470000D02*
X107060000Y-77470000D01*
D32*
X136801860Y-75184000D02*
X138176000Y-75184000D01*
X139192000Y-76200000D02*
X139192000Y-82264000D01*
X138176000Y-75184000D02*
X139192000Y-76200000D01*
X139192000Y-82264000D02*
X138906000Y-82550000D01*
D31*
X130016000Y-78740000D02*
X133962140Y-78740000D01*
D32*
X116460000Y-72390000D02*
X120872000Y-72390000D01*
X120872000Y-72390000D02*
X120904000Y-72358000D01*
D31*
X144907000Y-82917000D02*
X144907000Y-86233000D01*
X143764000Y-87376000D02*
X143764000Y-88424000D01*
X144907000Y-86233000D02*
X143764000Y-87376000D01*
D30*
X143764000Y-87630000D02*
X143764000Y-88424000D01*
D31*
X143637000Y-82917000D02*
X143637000Y-85217000D01*
X133858000Y-89662000D02*
X133858000Y-88424000D01*
X134620000Y-90424000D02*
X133858000Y-89662000D01*
X137922000Y-90424000D02*
X134620000Y-90424000D01*
X138684000Y-89662000D02*
X137922000Y-90424000D01*
X138684000Y-87122000D02*
X138684000Y-89662000D01*
X139192000Y-86614000D02*
X138684000Y-87122000D01*
X142240000Y-86614000D02*
X139192000Y-86614000D01*
X143637000Y-85217000D02*
X142240000Y-86614000D01*
X137160000Y-88424000D02*
X137160000Y-87630000D01*
X137160000Y-87630000D02*
X138938000Y-85852000D01*
X142367000Y-84963000D02*
X142367000Y-82917000D01*
X141478000Y-85852000D02*
X142367000Y-84963000D01*
X138938000Y-85852000D02*
X141478000Y-85852000D01*
X137160000Y-88424000D02*
X137160000Y-88138000D01*
D34*
G36*
X111287000Y-71167133D02*
X111287000Y-75945995D01*
X111286999Y-75946000D01*
X111330562Y-76165000D01*
X111342340Y-76224211D01*
X111436304Y-76364839D01*
X111499933Y-76460067D01*
X114293931Y-79254064D01*
X114293933Y-79254067D01*
X114529789Y-79411660D01*
X114575948Y-79420842D01*
X114808000Y-79467001D01*
X114808005Y-79467000D01*
X114989690Y-79467000D01*
X115001757Y-79485753D01*
X115211283Y-79628917D01*
X115460000Y-79679283D01*
X117018000Y-79679283D01*
X117018000Y-82385950D01*
X116844247Y-82497757D01*
X116701083Y-82707283D01*
X116650717Y-82956000D01*
X116650717Y-83376571D01*
X115410571Y-84616717D01*
X113522000Y-84616717D01*
X113289648Y-84660437D01*
X113076247Y-84797757D01*
X112933083Y-85007283D01*
X112888995Y-85225000D01*
X112155450Y-85225000D01*
X112117563Y-85023648D01*
X111980243Y-84810247D01*
X111770717Y-84667083D01*
X111522000Y-84616717D01*
X109522000Y-84616717D01*
X109521033Y-84616899D01*
X108718067Y-83813933D01*
X108692105Y-83796586D01*
X108482211Y-83656340D01*
X108423985Y-83644758D01*
X108333305Y-83626720D01*
X108504327Y-83455699D01*
X108601000Y-83222310D01*
X108601000Y-82581750D01*
X108442250Y-82423000D01*
X107093000Y-82423000D01*
X107093000Y-82443000D01*
X106839000Y-82443000D01*
X106839000Y-82423000D01*
X105489750Y-82423000D01*
X105331000Y-82581750D01*
X105331000Y-83220867D01*
X103479824Y-81369690D01*
X105331000Y-81369690D01*
X105331000Y-82010250D01*
X105489750Y-82169000D01*
X106839000Y-82169000D01*
X106839000Y-81019750D01*
X107093000Y-81019750D01*
X107093000Y-82169000D01*
X108442250Y-82169000D01*
X108601000Y-82010250D01*
X108601000Y-81496000D01*
X109326717Y-81496000D01*
X109326717Y-83096000D01*
X109370437Y-83328352D01*
X109507757Y-83541753D01*
X109717283Y-83684917D01*
X109966000Y-83735283D01*
X111966000Y-83735283D01*
X112198352Y-83691563D01*
X112411753Y-83554243D01*
X112554917Y-83344717D01*
X112605283Y-83096000D01*
X112605283Y-82436983D01*
X113180305Y-81861960D01*
X113300417Y-81812331D01*
X113561414Y-81551789D01*
X113702839Y-81211201D01*
X113703161Y-80842417D01*
X113562331Y-80501583D01*
X113301789Y-80240586D01*
X112961201Y-80099161D01*
X112592417Y-80098839D01*
X112251583Y-80239669D01*
X111990586Y-80500211D01*
X111940213Y-80621522D01*
X111705018Y-80856717D01*
X109966000Y-80856717D01*
X109733648Y-80900437D01*
X109520247Y-81037757D01*
X109377083Y-81247283D01*
X109326717Y-81496000D01*
X108601000Y-81496000D01*
X108601000Y-81369690D01*
X108504327Y-81136301D01*
X108325698Y-80957673D01*
X108092309Y-80861000D01*
X107251750Y-80861000D01*
X107093000Y-81019750D01*
X106839000Y-81019750D01*
X106680250Y-80861000D01*
X105839691Y-80861000D01*
X105606302Y-80957673D01*
X105427673Y-81136301D01*
X105331000Y-81369690D01*
X103479824Y-81369690D01*
X102368067Y-80257933D01*
X102249810Y-80178917D01*
X102132211Y-80100340D01*
X102086052Y-80091158D01*
X101854000Y-80044999D01*
X101853995Y-80045000D01*
X101727151Y-80045000D01*
X101840248Y-79733970D01*
X101814058Y-79138365D01*
X101767412Y-79025750D01*
X105425000Y-79025750D01*
X105425000Y-79166310D01*
X105521673Y-79399699D01*
X105700302Y-79578327D01*
X105933691Y-79675000D01*
X106774250Y-79675000D01*
X106933000Y-79516250D01*
X106933000Y-78867000D01*
X107187000Y-78867000D01*
X107187000Y-79516250D01*
X107345750Y-79675000D01*
X108186309Y-79675000D01*
X108419698Y-79578327D01*
X108598327Y-79399699D01*
X108695000Y-79166310D01*
X108695000Y-79025750D01*
X108536250Y-78867000D01*
X107187000Y-78867000D01*
X106933000Y-78867000D01*
X105583750Y-78867000D01*
X105425000Y-79025750D01*
X101767412Y-79025750D01*
X101636516Y-78709741D01*
X101383805Y-78627800D01*
X100509605Y-79502000D01*
X100523748Y-79516143D01*
X100344143Y-79695748D01*
X100330000Y-79681605D01*
X100315858Y-79695748D01*
X100136253Y-79516143D01*
X100150395Y-79502000D01*
X99276195Y-78627800D01*
X99069334Y-78694874D01*
X99054406Y-78658746D01*
X98635460Y-78239067D01*
X98619077Y-78232264D01*
X98633254Y-78226406D01*
X99052933Y-77807460D01*
X99059736Y-77791077D01*
X99065594Y-77805254D01*
X99484540Y-78224933D01*
X99523012Y-78240908D01*
X99455800Y-78448195D01*
X100330000Y-79322395D01*
X101204200Y-78448195D01*
X101137126Y-78241334D01*
X101173254Y-78226406D01*
X101592933Y-77807460D01*
X101820341Y-77259800D01*
X101820859Y-76666802D01*
X101594406Y-76118746D01*
X101175460Y-75699067D01*
X101159077Y-75692264D01*
X101173254Y-75686406D01*
X101592933Y-75267460D01*
X101615934Y-75212068D01*
X104387933Y-77984067D01*
X104623789Y-78141660D01*
X104669948Y-78150842D01*
X104902000Y-78197001D01*
X104902005Y-78197000D01*
X105473335Y-78197000D01*
X105425000Y-78313690D01*
X105425000Y-78454250D01*
X105583750Y-78613000D01*
X106933000Y-78613000D01*
X106933000Y-78593000D01*
X107187000Y-78593000D01*
X107187000Y-78613000D01*
X108536250Y-78613000D01*
X108695000Y-78454250D01*
X108695000Y-78313690D01*
X108601539Y-78088056D01*
X108648917Y-78018717D01*
X108699283Y-77770000D01*
X108699283Y-77170000D01*
X108655563Y-76937648D01*
X108589730Y-76835340D01*
X108648917Y-76748717D01*
X108699283Y-76500000D01*
X108699283Y-75900000D01*
X108655563Y-75667648D01*
X108589730Y-75565340D01*
X108648917Y-75478717D01*
X108699283Y-75230000D01*
X108699283Y-74630000D01*
X108655563Y-74397648D01*
X108589730Y-74295340D01*
X108648917Y-74208717D01*
X108699283Y-73960000D01*
X108699283Y-73360000D01*
X108655563Y-73127648D01*
X108589730Y-73025340D01*
X108648917Y-72938717D01*
X108699283Y-72690000D01*
X108699283Y-72090000D01*
X108655563Y-71857648D01*
X108589730Y-71755340D01*
X108648917Y-71668717D01*
X108699283Y-71420000D01*
X108699283Y-70820000D01*
X108655563Y-70587648D01*
X108589730Y-70485340D01*
X108648917Y-70398717D01*
X108699283Y-70150000D01*
X108699283Y-69550000D01*
X108655563Y-69317648D01*
X108589730Y-69215340D01*
X108648917Y-69128717D01*
X108699283Y-68880000D01*
X108699283Y-68579417D01*
X111287000Y-71167133D01*
X111287000Y-71167133D01*
G37*
X111287000Y-71167133D02*
X111287000Y-75945995D01*
X111286999Y-75946000D01*
X111330562Y-76165000D01*
X111342340Y-76224211D01*
X111436304Y-76364839D01*
X111499933Y-76460067D01*
X114293931Y-79254064D01*
X114293933Y-79254067D01*
X114529789Y-79411660D01*
X114575948Y-79420842D01*
X114808000Y-79467001D01*
X114808005Y-79467000D01*
X114989690Y-79467000D01*
X115001757Y-79485753D01*
X115211283Y-79628917D01*
X115460000Y-79679283D01*
X117018000Y-79679283D01*
X117018000Y-82385950D01*
X116844247Y-82497757D01*
X116701083Y-82707283D01*
X116650717Y-82956000D01*
X116650717Y-83376571D01*
X115410571Y-84616717D01*
X113522000Y-84616717D01*
X113289648Y-84660437D01*
X113076247Y-84797757D01*
X112933083Y-85007283D01*
X112888995Y-85225000D01*
X112155450Y-85225000D01*
X112117563Y-85023648D01*
X111980243Y-84810247D01*
X111770717Y-84667083D01*
X111522000Y-84616717D01*
X109522000Y-84616717D01*
X109521033Y-84616899D01*
X108718067Y-83813933D01*
X108692105Y-83796586D01*
X108482211Y-83656340D01*
X108423985Y-83644758D01*
X108333305Y-83626720D01*
X108504327Y-83455699D01*
X108601000Y-83222310D01*
X108601000Y-82581750D01*
X108442250Y-82423000D01*
X107093000Y-82423000D01*
X107093000Y-82443000D01*
X106839000Y-82443000D01*
X106839000Y-82423000D01*
X105489750Y-82423000D01*
X105331000Y-82581750D01*
X105331000Y-83220867D01*
X103479824Y-81369690D01*
X105331000Y-81369690D01*
X105331000Y-82010250D01*
X105489750Y-82169000D01*
X106839000Y-82169000D01*
X106839000Y-81019750D01*
X107093000Y-81019750D01*
X107093000Y-82169000D01*
X108442250Y-82169000D01*
X108601000Y-82010250D01*
X108601000Y-81496000D01*
X109326717Y-81496000D01*
X109326717Y-83096000D01*
X109370437Y-83328352D01*
X109507757Y-83541753D01*
X109717283Y-83684917D01*
X109966000Y-83735283D01*
X111966000Y-83735283D01*
X112198352Y-83691563D01*
X112411753Y-83554243D01*
X112554917Y-83344717D01*
X112605283Y-83096000D01*
X112605283Y-82436983D01*
X113180305Y-81861960D01*
X113300417Y-81812331D01*
X113561414Y-81551789D01*
X113702839Y-81211201D01*
X113703161Y-80842417D01*
X113562331Y-80501583D01*
X113301789Y-80240586D01*
X112961201Y-80099161D01*
X112592417Y-80098839D01*
X112251583Y-80239669D01*
X111990586Y-80500211D01*
X111940213Y-80621522D01*
X111705018Y-80856717D01*
X109966000Y-80856717D01*
X109733648Y-80900437D01*
X109520247Y-81037757D01*
X109377083Y-81247283D01*
X109326717Y-81496000D01*
X108601000Y-81496000D01*
X108601000Y-81369690D01*
X108504327Y-81136301D01*
X108325698Y-80957673D01*
X108092309Y-80861000D01*
X107251750Y-80861000D01*
X107093000Y-81019750D01*
X106839000Y-81019750D01*
X106680250Y-80861000D01*
X105839691Y-80861000D01*
X105606302Y-80957673D01*
X105427673Y-81136301D01*
X105331000Y-81369690D01*
X103479824Y-81369690D01*
X102368067Y-80257933D01*
X102249810Y-80178917D01*
X102132211Y-80100340D01*
X102086052Y-80091158D01*
X101854000Y-80044999D01*
X101853995Y-80045000D01*
X101727151Y-80045000D01*
X101840248Y-79733970D01*
X101814058Y-79138365D01*
X101767412Y-79025750D01*
X105425000Y-79025750D01*
X105425000Y-79166310D01*
X105521673Y-79399699D01*
X105700302Y-79578327D01*
X105933691Y-79675000D01*
X106774250Y-79675000D01*
X106933000Y-79516250D01*
X106933000Y-78867000D01*
X107187000Y-78867000D01*
X107187000Y-79516250D01*
X107345750Y-79675000D01*
X108186309Y-79675000D01*
X108419698Y-79578327D01*
X108598327Y-79399699D01*
X108695000Y-79166310D01*
X108695000Y-79025750D01*
X108536250Y-78867000D01*
X107187000Y-78867000D01*
X106933000Y-78867000D01*
X105583750Y-78867000D01*
X105425000Y-79025750D01*
X101767412Y-79025750D01*
X101636516Y-78709741D01*
X101383805Y-78627800D01*
X100509605Y-79502000D01*
X100523748Y-79516143D01*
X100344143Y-79695748D01*
X100330000Y-79681605D01*
X100315858Y-79695748D01*
X100136253Y-79516143D01*
X100150395Y-79502000D01*
X99276195Y-78627800D01*
X99069334Y-78694874D01*
X99054406Y-78658746D01*
X98635460Y-78239067D01*
X98619077Y-78232264D01*
X98633254Y-78226406D01*
X99052933Y-77807460D01*
X99059736Y-77791077D01*
X99065594Y-77805254D01*
X99484540Y-78224933D01*
X99523012Y-78240908D01*
X99455800Y-78448195D01*
X100330000Y-79322395D01*
X101204200Y-78448195D01*
X101137126Y-78241334D01*
X101173254Y-78226406D01*
X101592933Y-77807460D01*
X101820341Y-77259800D01*
X101820859Y-76666802D01*
X101594406Y-76118746D01*
X101175460Y-75699067D01*
X101159077Y-75692264D01*
X101173254Y-75686406D01*
X101592933Y-75267460D01*
X101615934Y-75212068D01*
X104387933Y-77984067D01*
X104623789Y-78141660D01*
X104669948Y-78150842D01*
X104902000Y-78197001D01*
X104902005Y-78197000D01*
X105473335Y-78197000D01*
X105425000Y-78313690D01*
X105425000Y-78454250D01*
X105583750Y-78613000D01*
X106933000Y-78613000D01*
X106933000Y-78593000D01*
X107187000Y-78593000D01*
X107187000Y-78613000D01*
X108536250Y-78613000D01*
X108695000Y-78454250D01*
X108695000Y-78313690D01*
X108601539Y-78088056D01*
X108648917Y-78018717D01*
X108699283Y-77770000D01*
X108699283Y-77170000D01*
X108655563Y-76937648D01*
X108589730Y-76835340D01*
X108648917Y-76748717D01*
X108699283Y-76500000D01*
X108699283Y-75900000D01*
X108655563Y-75667648D01*
X108589730Y-75565340D01*
X108648917Y-75478717D01*
X108699283Y-75230000D01*
X108699283Y-74630000D01*
X108655563Y-74397648D01*
X108589730Y-74295340D01*
X108648917Y-74208717D01*
X108699283Y-73960000D01*
X108699283Y-73360000D01*
X108655563Y-73127648D01*
X108589730Y-73025340D01*
X108648917Y-72938717D01*
X108699283Y-72690000D01*
X108699283Y-72090000D01*
X108655563Y-71857648D01*
X108589730Y-71755340D01*
X108648917Y-71668717D01*
X108699283Y-71420000D01*
X108699283Y-70820000D01*
X108655563Y-70587648D01*
X108589730Y-70485340D01*
X108648917Y-70398717D01*
X108699283Y-70150000D01*
X108699283Y-69550000D01*
X108655563Y-69317648D01*
X108589730Y-69215340D01*
X108648917Y-69128717D01*
X108699283Y-68880000D01*
X108699283Y-68579417D01*
X111287000Y-71167133D01*
G36*
X145745987Y-53343216D02*
X146060000Y-53553033D01*
X146060000Y-53848000D01*
X146117243Y-54135778D01*
X146280256Y-54379744D01*
X147296256Y-55395744D01*
X147540222Y-55558757D01*
X147828000Y-55616000D01*
X149294512Y-55616000D01*
X149561858Y-55883346D01*
X149328586Y-56116211D01*
X149187161Y-56456799D01*
X149186839Y-56825583D01*
X149327669Y-57166417D01*
X149362000Y-57200808D01*
X149362000Y-70808511D01*
X148189992Y-71980520D01*
X148081290Y-72050468D01*
X147960717Y-71968083D01*
X147712000Y-71917717D01*
X147182000Y-71917717D01*
X146949648Y-71961437D01*
X146811290Y-72050468D01*
X146690717Y-71968083D01*
X146442000Y-71917717D01*
X145912000Y-71917717D01*
X145679648Y-71961437D01*
X145541290Y-72050468D01*
X145420717Y-71968083D01*
X145172000Y-71917717D01*
X144642000Y-71917717D01*
X144409648Y-71961437D01*
X144271290Y-72050468D01*
X144150717Y-71968083D01*
X143902000Y-71917717D01*
X143372000Y-71917717D01*
X143139648Y-71961437D01*
X143001290Y-72050468D01*
X142880717Y-71968083D01*
X142632000Y-71917717D01*
X142102000Y-71917717D01*
X141869648Y-71961437D01*
X141656247Y-72098757D01*
X141513083Y-72308283D01*
X141462717Y-72557000D01*
X141462717Y-74537000D01*
X141490000Y-74681997D01*
X141490000Y-75311000D01*
X141556758Y-75646613D01*
X141610277Y-75726710D01*
X141707669Y-75962417D01*
X141968211Y-76223414D01*
X142236939Y-76335000D01*
X141732000Y-76335000D01*
X141496065Y-76381084D01*
X141288644Y-76518644D01*
X140710288Y-77097000D01*
X140069000Y-77097000D01*
X140069000Y-76200005D01*
X140069001Y-76200000D01*
X140002242Y-75864387D01*
X139812133Y-75579867D01*
X138796133Y-74563867D01*
X138511613Y-74373758D01*
X138239973Y-74319725D01*
X138239973Y-74283570D01*
X138196253Y-74051218D01*
X138058933Y-73837817D01*
X137849407Y-73694653D01*
X137600690Y-73644287D01*
X136003030Y-73644287D01*
X135770678Y-73688007D01*
X135557277Y-73825327D01*
X135414113Y-74034853D01*
X135382670Y-74190124D01*
X135356533Y-74051218D01*
X135219213Y-73837817D01*
X135009687Y-73694653D01*
X134760970Y-73644287D01*
X133163310Y-73644287D01*
X132930958Y-73688007D01*
X132717557Y-73825327D01*
X132574393Y-74034853D01*
X132524027Y-74283570D01*
X132524027Y-76084430D01*
X132567747Y-76316782D01*
X132705067Y-76530183D01*
X132914593Y-76673347D01*
X133163310Y-76723713D01*
X133355446Y-76723713D01*
X133430396Y-76835884D01*
X133691512Y-77097000D01*
X128768000Y-77097000D01*
X128768000Y-76623062D01*
X129016000Y-76673283D01*
X131016000Y-76673283D01*
X131248352Y-76629563D01*
X131461753Y-76492243D01*
X131604917Y-76282717D01*
X131655283Y-76034000D01*
X131655283Y-74334000D01*
X131611563Y-74101648D01*
X131474243Y-73888247D01*
X131264717Y-73745083D01*
X131016000Y-73694717D01*
X130768000Y-73694717D01*
X130768000Y-72863283D01*
X131016000Y-72863283D01*
X131248352Y-72819563D01*
X131461753Y-72682243D01*
X131604917Y-72472717D01*
X131655283Y-72224000D01*
X131655283Y-70524000D01*
X131611563Y-70291648D01*
X131545191Y-70188503D01*
X131562000Y-70104000D01*
X131562000Y-68779137D01*
X131780000Y-68823283D01*
X132380000Y-68823283D01*
X132612352Y-68779563D01*
X132714660Y-68713730D01*
X132801283Y-68772917D01*
X133050000Y-68823283D01*
X133650000Y-68823283D01*
X133882352Y-68779563D01*
X133984660Y-68713730D01*
X134071283Y-68772917D01*
X134320000Y-68823283D01*
X134920000Y-68823283D01*
X135152352Y-68779563D01*
X135254660Y-68713730D01*
X135341283Y-68772917D01*
X135590000Y-68823283D01*
X136190000Y-68823283D01*
X136422352Y-68779563D01*
X136524660Y-68713730D01*
X136611283Y-68772917D01*
X136860000Y-68823283D01*
X137460000Y-68823283D01*
X137692352Y-68779563D01*
X137794660Y-68713730D01*
X137881283Y-68772917D01*
X138130000Y-68823283D01*
X138730000Y-68823283D01*
X138812636Y-68807734D01*
X138773161Y-68902799D01*
X138772839Y-69271583D01*
X138913669Y-69612417D01*
X139174211Y-69873414D01*
X139514799Y-70014839D01*
X139883583Y-70015161D01*
X140224417Y-69874331D01*
X140485414Y-69613789D01*
X140626839Y-69273201D01*
X140627161Y-68904417D01*
X140577000Y-68783018D01*
X140577000Y-68450158D01*
X140588917Y-68432717D01*
X140639283Y-68184000D01*
X140639283Y-66184000D01*
X140595563Y-65951648D01*
X140458243Y-65738247D01*
X140248717Y-65595083D01*
X140000000Y-65544717D01*
X139988771Y-65544717D01*
X140011488Y-65522000D01*
X143551572Y-65522000D01*
X144430002Y-66400430D01*
X144418670Y-66427722D01*
X144418192Y-66975753D01*
X144627472Y-67482251D01*
X145014651Y-67870106D01*
X145520782Y-68080270D01*
X146068813Y-68080748D01*
X146575311Y-67871468D01*
X146963166Y-67484289D01*
X147173330Y-66978158D01*
X147173808Y-66430127D01*
X146964528Y-65923629D01*
X146577349Y-65535774D01*
X146071218Y-65325610D01*
X145523187Y-65325132D01*
X145493816Y-65337268D01*
X144394804Y-64238256D01*
X144150838Y-64075243D01*
X143863060Y-64018000D01*
X140245488Y-64018000D01*
X141690428Y-62573060D01*
X144616187Y-62573060D01*
X144627472Y-62600371D01*
X145014651Y-62988226D01*
X145520782Y-63198390D01*
X146068813Y-63198868D01*
X146575311Y-62989588D01*
X146963166Y-62602409D01*
X147173330Y-62096278D01*
X147173808Y-61548247D01*
X146964528Y-61041749D01*
X146577349Y-60653894D01*
X146071218Y-60443730D01*
X145523187Y-60443252D01*
X145016689Y-60652532D01*
X144628834Y-61039711D01*
X144616647Y-61069060D01*
X141378940Y-61069060D01*
X141091162Y-61126303D01*
X140847196Y-61289316D01*
X136628256Y-65508256D01*
X136534729Y-65648229D01*
X136525340Y-65654270D01*
X136438717Y-65595083D01*
X136190000Y-65544717D01*
X135590000Y-65544717D01*
X135357648Y-65588437D01*
X135255340Y-65654270D01*
X135168717Y-65595083D01*
X134920000Y-65544717D01*
X134320000Y-65544717D01*
X134087648Y-65588437D01*
X133985340Y-65654270D01*
X133898717Y-65595083D01*
X133650000Y-65544717D01*
X133050000Y-65544717D01*
X132817648Y-65588437D01*
X132715340Y-65654270D01*
X132628717Y-65595083D01*
X132380000Y-65544717D01*
X131780000Y-65544717D01*
X131547648Y-65588437D01*
X131445340Y-65654270D01*
X131358717Y-65595083D01*
X131110000Y-65544717D01*
X130510000Y-65544717D01*
X130277648Y-65588437D01*
X130175340Y-65654270D01*
X130088717Y-65595083D01*
X129840000Y-65544717D01*
X129240000Y-65544717D01*
X129007648Y-65588437D01*
X128794247Y-65725757D01*
X128651083Y-65935283D01*
X128600717Y-66184000D01*
X128600717Y-68184000D01*
X128644437Y-68416352D01*
X128742212Y-68568299D01*
X127484256Y-69826256D01*
X127365519Y-70003958D01*
X127264717Y-69935083D01*
X127016000Y-69884717D01*
X125016000Y-69884717D01*
X124783648Y-69928437D01*
X124570247Y-70065757D01*
X124444270Y-70250129D01*
X124100270Y-70318555D01*
X124028715Y-70332788D01*
X123663090Y-70577091D01*
X123155091Y-71085091D01*
X122910788Y-71450716D01*
X122825000Y-71882000D01*
X122910788Y-72313284D01*
X123155091Y-72678909D01*
X123520716Y-72923212D01*
X123952000Y-73009000D01*
X124383284Y-72923212D01*
X124659040Y-72738957D01*
X124767283Y-72812917D01*
X125016000Y-72863283D01*
X127016000Y-72863283D01*
X127248352Y-72819563D01*
X127264000Y-72809494D01*
X127264000Y-73744938D01*
X127016000Y-73694717D01*
X125016000Y-73694717D01*
X124783648Y-73738437D01*
X124570247Y-73875757D01*
X124427083Y-74085283D01*
X124376717Y-74334000D01*
X124376717Y-76034000D01*
X124420437Y-76266352D01*
X124557757Y-76479753D01*
X124767283Y-76622917D01*
X125016000Y-76673283D01*
X125264000Y-76673283D01*
X125264000Y-77097000D01*
X123190000Y-77097000D01*
X122954065Y-77143084D01*
X122746644Y-77280644D01*
X121629605Y-78397683D01*
X121508717Y-78315083D01*
X121260000Y-78264717D01*
X120040000Y-78264717D01*
X119807648Y-78308437D01*
X119599000Y-78442699D01*
X119599000Y-78168134D01*
X120583851Y-77183283D01*
X121260000Y-77183283D01*
X121492352Y-77139563D01*
X121705753Y-77002243D01*
X121848917Y-76792717D01*
X121899283Y-76544000D01*
X121899283Y-75634000D01*
X121855563Y-75401648D01*
X121718243Y-75188247D01*
X121508717Y-75045083D01*
X121260000Y-74994717D01*
X120040000Y-74994717D01*
X119807648Y-75038437D01*
X119594247Y-75175757D01*
X119451083Y-75385283D01*
X119400717Y-75634000D01*
X119400717Y-76310149D01*
X118905991Y-76804875D01*
X118896211Y-76798340D01*
X118850052Y-76789158D01*
X118618000Y-76742999D01*
X118617995Y-76743000D01*
X118050075Y-76743000D01*
X118099283Y-76500000D01*
X118099283Y-75900000D01*
X118055563Y-75667648D01*
X117989730Y-75565340D01*
X118048917Y-75478717D01*
X118099283Y-75230000D01*
X118099283Y-74630000D01*
X118055563Y-74397648D01*
X117989730Y-74295340D01*
X118048917Y-74208717D01*
X118099283Y-73960000D01*
X118099283Y-73360000D01*
X118081784Y-73267000D01*
X119414717Y-73267000D01*
X119414717Y-73358000D01*
X119458437Y-73590352D01*
X119595757Y-73803753D01*
X119805283Y-73946917D01*
X120054000Y-73997283D01*
X121754000Y-73997283D01*
X121986352Y-73953563D01*
X122199753Y-73816243D01*
X122342917Y-73606717D01*
X122393283Y-73358000D01*
X122393283Y-71358000D01*
X122349563Y-71125648D01*
X122212243Y-70912247D01*
X122002717Y-70769083D01*
X121754000Y-70718717D01*
X120054000Y-70718717D01*
X119821648Y-70762437D01*
X119608247Y-70899757D01*
X119465083Y-71109283D01*
X119414717Y-71358000D01*
X119414717Y-71513000D01*
X118080450Y-71513000D01*
X118099283Y-71420000D01*
X118099283Y-70820000D01*
X118055563Y-70587648D01*
X117989730Y-70485340D01*
X118048917Y-70398717D01*
X118099283Y-70150000D01*
X118099283Y-69550000D01*
X118083734Y-69467364D01*
X118178799Y-69506839D01*
X118547583Y-69507161D01*
X118888417Y-69366331D01*
X119149414Y-69105789D01*
X119290839Y-68765201D01*
X119290945Y-68643750D01*
X119419000Y-68643750D01*
X119419000Y-69484309D01*
X119515673Y-69717698D01*
X119694301Y-69896327D01*
X119927690Y-69993000D01*
X120618250Y-69993000D01*
X120777000Y-69834250D01*
X120777000Y-68485000D01*
X121031000Y-68485000D01*
X121031000Y-69834250D01*
X121189750Y-69993000D01*
X121880310Y-69993000D01*
X122113699Y-69896327D01*
X122292327Y-69717698D01*
X122389000Y-69484309D01*
X122389000Y-68643750D01*
X122230250Y-68485000D01*
X121031000Y-68485000D01*
X120777000Y-68485000D01*
X119577750Y-68485000D01*
X119419000Y-68643750D01*
X119290945Y-68643750D01*
X119291161Y-68396417D01*
X119150331Y-68055583D01*
X118889789Y-67794586D01*
X118549201Y-67653161D01*
X118180417Y-67652839D01*
X118059018Y-67703000D01*
X117726158Y-67703000D01*
X117708717Y-67691083D01*
X117460000Y-67640717D01*
X115460000Y-67640717D01*
X115227648Y-67684437D01*
X115014247Y-67821757D01*
X114871083Y-68031283D01*
X114820717Y-68280000D01*
X114820717Y-68880000D01*
X114864437Y-69112352D01*
X114930270Y-69214660D01*
X114871083Y-69301283D01*
X114820717Y-69550000D01*
X114820717Y-70150000D01*
X114864437Y-70382352D01*
X114930270Y-70484660D01*
X114871083Y-70571283D01*
X114820717Y-70820000D01*
X114820717Y-71420000D01*
X114864437Y-71652352D01*
X114930270Y-71754660D01*
X114871083Y-71841283D01*
X114820717Y-72090000D01*
X114820717Y-72690000D01*
X114864437Y-72922352D01*
X114930270Y-73024660D01*
X114871083Y-73111283D01*
X114820717Y-73360000D01*
X114820717Y-73960000D01*
X114836435Y-74043536D01*
X114739201Y-74003161D01*
X114370417Y-74002839D01*
X114029583Y-74143669D01*
X113768586Y-74404211D01*
X113627161Y-74744799D01*
X113626839Y-75113583D01*
X113730433Y-75364299D01*
X113503000Y-75136866D01*
X113503000Y-70612005D01*
X113503001Y-70612000D01*
X113447660Y-70333790D01*
X113447660Y-70333789D01*
X113290067Y-70097933D01*
X110423825Y-67231691D01*
X119419000Y-67231691D01*
X119419000Y-68072250D01*
X119577750Y-68231000D01*
X120777000Y-68231000D01*
X120777000Y-66881750D01*
X121031000Y-66881750D01*
X121031000Y-68231000D01*
X122230250Y-68231000D01*
X122389000Y-68072250D01*
X122389000Y-67231691D01*
X122292327Y-66998302D01*
X122113699Y-66819673D01*
X121880310Y-66723000D01*
X121189750Y-66723000D01*
X121031000Y-66881750D01*
X120777000Y-66881750D01*
X120618250Y-66723000D01*
X119927690Y-66723000D01*
X119694301Y-66819673D01*
X119515673Y-66998302D01*
X119419000Y-67231691D01*
X110423825Y-67231691D01*
X109859134Y-66667000D01*
X111252000Y-66667000D01*
X111479888Y-66624120D01*
X111689189Y-66489438D01*
X111829601Y-66283938D01*
X111879000Y-66040000D01*
X111879000Y-64878892D01*
X111992352Y-64857563D01*
X112205753Y-64720243D01*
X112348917Y-64510717D01*
X112395000Y-64283150D01*
X112395000Y-64388310D01*
X112491673Y-64621699D01*
X112670302Y-64800327D01*
X112903691Y-64897000D01*
X113252250Y-64897000D01*
X113411000Y-64738250D01*
X113411000Y-63373000D01*
X113665000Y-63373000D01*
X113665000Y-64738250D01*
X113823750Y-64897000D01*
X114172309Y-64897000D01*
X114405698Y-64800327D01*
X114584327Y-64621699D01*
X114681000Y-64388310D01*
X114681000Y-63531750D01*
X114649000Y-63499750D01*
X115659000Y-63499750D01*
X115659000Y-64340309D01*
X115755673Y-64573698D01*
X115934301Y-64752327D01*
X116167690Y-64849000D01*
X116808250Y-64849000D01*
X116967000Y-64690250D01*
X116967000Y-63341000D01*
X117221000Y-63341000D01*
X117221000Y-64690250D01*
X117379750Y-64849000D01*
X118020310Y-64849000D01*
X118253699Y-64752327D01*
X118432327Y-64573698D01*
X118529000Y-64340309D01*
X118529000Y-63499750D01*
X118370250Y-63341000D01*
X117221000Y-63341000D01*
X116967000Y-63341000D01*
X115817750Y-63341000D01*
X115659000Y-63499750D01*
X114649000Y-63499750D01*
X114522250Y-63373000D01*
X113665000Y-63373000D01*
X113411000Y-63373000D01*
X113391000Y-63373000D01*
X113391000Y-63119000D01*
X113411000Y-63119000D01*
X113411000Y-63099000D01*
X113665000Y-63099000D01*
X113665000Y-63119000D01*
X114522250Y-63119000D01*
X114681000Y-62960250D01*
X114681000Y-62103690D01*
X114584327Y-61870301D01*
X114430369Y-61716343D01*
X114559712Y-61587000D01*
X116148376Y-61587000D01*
X115934301Y-61675673D01*
X115755673Y-61854302D01*
X115659000Y-62087691D01*
X115659000Y-62928250D01*
X115817750Y-63087000D01*
X116967000Y-63087000D01*
X116967000Y-63067000D01*
X117221000Y-63067000D01*
X117221000Y-63087000D01*
X118370250Y-63087000D01*
X118529000Y-62928250D01*
X118529000Y-62087691D01*
X118432327Y-61854302D01*
X118253699Y-61675673D01*
X118039624Y-61587000D01*
X120128732Y-61587000D01*
X120159673Y-61661699D01*
X120338302Y-61840327D01*
X120571691Y-61937000D01*
X121412250Y-61937000D01*
X121571000Y-61778250D01*
X121571000Y-60671712D01*
X121663712Y-60579000D01*
X121825000Y-60579000D01*
X121825000Y-61778250D01*
X121983750Y-61937000D01*
X122824309Y-61937000D01*
X123057698Y-61840327D01*
X123236327Y-61661699D01*
X123333000Y-61428310D01*
X123333000Y-60737750D01*
X123174250Y-60579000D01*
X121825000Y-60579000D01*
X121663712Y-60579000D01*
X121917712Y-60325000D01*
X123174250Y-60325000D01*
X123333000Y-60166250D01*
X123333000Y-59475690D01*
X123236327Y-59242301D01*
X123118369Y-59124343D01*
X124093286Y-58149426D01*
X124159673Y-58309699D01*
X124338302Y-58488327D01*
X124571691Y-58585000D01*
X125412250Y-58585000D01*
X125571000Y-58426250D01*
X125571000Y-57277000D01*
X125825000Y-57277000D01*
X125825000Y-58426250D01*
X125983750Y-58585000D01*
X126824309Y-58585000D01*
X127057698Y-58488327D01*
X127236327Y-58309699D01*
X127333000Y-58076310D01*
X127333000Y-57435750D01*
X127174250Y-57277000D01*
X125825000Y-57277000D01*
X125571000Y-57277000D01*
X125551000Y-57277000D01*
X125551000Y-57023000D01*
X125571000Y-57023000D01*
X125571000Y-55873750D01*
X125825000Y-55873750D01*
X125825000Y-57023000D01*
X127174250Y-57023000D01*
X127333000Y-56864250D01*
X127333000Y-56657691D01*
X128605000Y-56657691D01*
X128605000Y-57498250D01*
X128763750Y-57657000D01*
X129413000Y-57657000D01*
X129413000Y-56307750D01*
X129254250Y-56149000D01*
X129113690Y-56149000D01*
X128880301Y-56245673D01*
X128701673Y-56424302D01*
X128605000Y-56657691D01*
X127333000Y-56657691D01*
X127333000Y-56223690D01*
X127236327Y-55990301D01*
X127057698Y-55811673D01*
X126824309Y-55715000D01*
X125983750Y-55715000D01*
X125825000Y-55873750D01*
X125571000Y-55873750D01*
X125412250Y-55715000D01*
X124571691Y-55715000D01*
X124338302Y-55811673D01*
X124325000Y-55824975D01*
X124325000Y-55626000D01*
X124278916Y-55390065D01*
X124141356Y-55182644D01*
X123787712Y-54829000D01*
X125399899Y-54829000D01*
X125458211Y-54887414D01*
X125798799Y-55028839D01*
X126167583Y-55029161D01*
X126508417Y-54888331D01*
X126769414Y-54627789D01*
X126910839Y-54287201D01*
X126911161Y-53918417D01*
X126825491Y-53711081D01*
X127050428Y-53666338D01*
X127217585Y-53554647D01*
X127247933Y-53600067D01*
X129811308Y-56163442D01*
X129667000Y-56307750D01*
X129667000Y-57657000D01*
X129687000Y-57657000D01*
X129687000Y-57911000D01*
X129667000Y-57911000D01*
X129667000Y-57931000D01*
X129413000Y-57931000D01*
X129413000Y-57911000D01*
X128763750Y-57911000D01*
X128605000Y-58069750D01*
X128605000Y-58910309D01*
X128701673Y-59143698D01*
X128878974Y-59321000D01*
X127262259Y-59321000D01*
X127156243Y-59156247D01*
X126946717Y-59013083D01*
X126698000Y-58962717D01*
X124698000Y-58962717D01*
X124465648Y-59006437D01*
X124252247Y-59143757D01*
X124109083Y-59353283D01*
X124058717Y-59602000D01*
X124058717Y-61302000D01*
X124102437Y-61534352D01*
X124239757Y-61747753D01*
X124449283Y-61890917D01*
X124698000Y-61941283D01*
X124821000Y-61941283D01*
X124821000Y-62822717D01*
X124698000Y-62822717D01*
X124465648Y-62866437D01*
X124252247Y-63003757D01*
X124109083Y-63213283D01*
X124058717Y-63462000D01*
X124058717Y-63565669D01*
X123969789Y-63476586D01*
X123629201Y-63335161D01*
X123313365Y-63334885D01*
X123293563Y-63229648D01*
X123156243Y-63016247D01*
X122946717Y-62873083D01*
X122698000Y-62822717D01*
X120698000Y-62822717D01*
X120465648Y-62866437D01*
X120252247Y-63003757D01*
X120109083Y-63213283D01*
X120058717Y-63462000D01*
X120058717Y-65062000D01*
X120102437Y-65294352D01*
X120239757Y-65507753D01*
X120449283Y-65650917D01*
X120698000Y-65701283D01*
X122698000Y-65701283D01*
X122930352Y-65657563D01*
X123143753Y-65520243D01*
X123286917Y-65310717D01*
X123311588Y-65188885D01*
X123627583Y-65189161D01*
X123968417Y-65048331D01*
X124058717Y-64958188D01*
X124058717Y-65062000D01*
X124102437Y-65294352D01*
X124239757Y-65507753D01*
X124449283Y-65650917D01*
X124698000Y-65701283D01*
X126698000Y-65701283D01*
X126930352Y-65657563D01*
X127143753Y-65520243D01*
X127286917Y-65310717D01*
X127337283Y-65062000D01*
X127337283Y-63462000D01*
X127293563Y-63229648D01*
X127156243Y-63016247D01*
X126946717Y-62873083D01*
X126698000Y-62822717D01*
X126575000Y-62822717D01*
X126575000Y-61941283D01*
X126698000Y-61941283D01*
X126930352Y-61897563D01*
X127143753Y-61760243D01*
X127286917Y-61550717D01*
X127337283Y-61302000D01*
X127337283Y-61075000D01*
X129794000Y-61075000D01*
X130129613Y-61008242D01*
X130414133Y-60818133D01*
X131430133Y-59802133D01*
X131620242Y-59517613D01*
X131644465Y-59395837D01*
X131780000Y-59423283D01*
X132380000Y-59423283D01*
X132612352Y-59379563D01*
X132714660Y-59313730D01*
X132801283Y-59372917D01*
X133050000Y-59423283D01*
X133650000Y-59423283D01*
X133882352Y-59379563D01*
X133984660Y-59313730D01*
X134071283Y-59372917D01*
X134320000Y-59423283D01*
X134920000Y-59423283D01*
X135152352Y-59379563D01*
X135254660Y-59313730D01*
X135341283Y-59372917D01*
X135590000Y-59423283D01*
X136190000Y-59423283D01*
X136422352Y-59379563D01*
X136524660Y-59313730D01*
X136611283Y-59372917D01*
X136860000Y-59423283D01*
X137460000Y-59423283D01*
X137692352Y-59379563D01*
X137794660Y-59313730D01*
X137881283Y-59372917D01*
X138130000Y-59423283D01*
X138730000Y-59423283D01*
X138962352Y-59379563D01*
X139064660Y-59313730D01*
X139151283Y-59372917D01*
X139400000Y-59423283D01*
X140000000Y-59423283D01*
X140232352Y-59379563D01*
X140445753Y-59242243D01*
X140588917Y-59032717D01*
X140639283Y-58784000D01*
X140639283Y-56784000D01*
X140595563Y-56551648D01*
X140458243Y-56338247D01*
X140248717Y-56195083D01*
X140000000Y-56144717D01*
X139400000Y-56144717D01*
X139167648Y-56188437D01*
X139065340Y-56254270D01*
X138978717Y-56195083D01*
X138730000Y-56144717D01*
X138130000Y-56144717D01*
X137897648Y-56188437D01*
X137887000Y-56195289D01*
X137887000Y-55626005D01*
X137887001Y-55626000D01*
X137835269Y-55365933D01*
X137831660Y-55347789D01*
X137674067Y-55111933D01*
X137674064Y-55111931D01*
X137325089Y-54762955D01*
X137325161Y-54680417D01*
X137184331Y-54339583D01*
X136923789Y-54078586D01*
X136583201Y-53937161D01*
X136214417Y-53936839D01*
X135873583Y-54077669D01*
X135612586Y-54338211D01*
X135471161Y-54678799D01*
X135471154Y-54687021D01*
X134486965Y-53702831D01*
X134670428Y-53666338D01*
X135154013Y-53343216D01*
X135370000Y-53019969D01*
X135585987Y-53343216D01*
X136069572Y-53666338D01*
X136640000Y-53779803D01*
X137210428Y-53666338D01*
X137694013Y-53343216D01*
X137910000Y-53019969D01*
X138125987Y-53343216D01*
X138609572Y-53666338D01*
X139180000Y-53779803D01*
X139750428Y-53666338D01*
X140234013Y-53343216D01*
X140450000Y-53019969D01*
X140665987Y-53343216D01*
X141149572Y-53666338D01*
X141720000Y-53779803D01*
X142290428Y-53666338D01*
X142774013Y-53343216D01*
X142990000Y-53019969D01*
X143205987Y-53343216D01*
X143689572Y-53666338D01*
X144260000Y-53779803D01*
X144830428Y-53666338D01*
X145314013Y-53343216D01*
X145530000Y-53019969D01*
X145745987Y-53343216D01*
X145745987Y-53343216D01*
G37*
X145745987Y-53343216D02*
X146060000Y-53553033D01*
X146060000Y-53848000D01*
X146117243Y-54135778D01*
X146280256Y-54379744D01*
X147296256Y-55395744D01*
X147540222Y-55558757D01*
X147828000Y-55616000D01*
X149294512Y-55616000D01*
X149561858Y-55883346D01*
X149328586Y-56116211D01*
X149187161Y-56456799D01*
X149186839Y-56825583D01*
X149327669Y-57166417D01*
X149362000Y-57200808D01*
X149362000Y-70808511D01*
X148189992Y-71980520D01*
X148081290Y-72050468D01*
X147960717Y-71968083D01*
X147712000Y-71917717D01*
X147182000Y-71917717D01*
X146949648Y-71961437D01*
X146811290Y-72050468D01*
X146690717Y-71968083D01*
X146442000Y-71917717D01*
X145912000Y-71917717D01*
X145679648Y-71961437D01*
X145541290Y-72050468D01*
X145420717Y-71968083D01*
X145172000Y-71917717D01*
X144642000Y-71917717D01*
X144409648Y-71961437D01*
X144271290Y-72050468D01*
X144150717Y-71968083D01*
X143902000Y-71917717D01*
X143372000Y-71917717D01*
X143139648Y-71961437D01*
X143001290Y-72050468D01*
X142880717Y-71968083D01*
X142632000Y-71917717D01*
X142102000Y-71917717D01*
X141869648Y-71961437D01*
X141656247Y-72098757D01*
X141513083Y-72308283D01*
X141462717Y-72557000D01*
X141462717Y-74537000D01*
X141490000Y-74681997D01*
X141490000Y-75311000D01*
X141556758Y-75646613D01*
X141610277Y-75726710D01*
X141707669Y-75962417D01*
X141968211Y-76223414D01*
X142236939Y-76335000D01*
X141732000Y-76335000D01*
X141496065Y-76381084D01*
X141288644Y-76518644D01*
X140710288Y-77097000D01*
X140069000Y-77097000D01*
X140069000Y-76200005D01*
X140069001Y-76200000D01*
X140002242Y-75864387D01*
X139812133Y-75579867D01*
X138796133Y-74563867D01*
X138511613Y-74373758D01*
X138239973Y-74319725D01*
X138239973Y-74283570D01*
X138196253Y-74051218D01*
X138058933Y-73837817D01*
X137849407Y-73694653D01*
X137600690Y-73644287D01*
X136003030Y-73644287D01*
X135770678Y-73688007D01*
X135557277Y-73825327D01*
X135414113Y-74034853D01*
X135382670Y-74190124D01*
X135356533Y-74051218D01*
X135219213Y-73837817D01*
X135009687Y-73694653D01*
X134760970Y-73644287D01*
X133163310Y-73644287D01*
X132930958Y-73688007D01*
X132717557Y-73825327D01*
X132574393Y-74034853D01*
X132524027Y-74283570D01*
X132524027Y-76084430D01*
X132567747Y-76316782D01*
X132705067Y-76530183D01*
X132914593Y-76673347D01*
X133163310Y-76723713D01*
X133355446Y-76723713D01*
X133430396Y-76835884D01*
X133691512Y-77097000D01*
X128768000Y-77097000D01*
X128768000Y-76623062D01*
X129016000Y-76673283D01*
X131016000Y-76673283D01*
X131248352Y-76629563D01*
X131461753Y-76492243D01*
X131604917Y-76282717D01*
X131655283Y-76034000D01*
X131655283Y-74334000D01*
X131611563Y-74101648D01*
X131474243Y-73888247D01*
X131264717Y-73745083D01*
X131016000Y-73694717D01*
X130768000Y-73694717D01*
X130768000Y-72863283D01*
X131016000Y-72863283D01*
X131248352Y-72819563D01*
X131461753Y-72682243D01*
X131604917Y-72472717D01*
X131655283Y-72224000D01*
X131655283Y-70524000D01*
X131611563Y-70291648D01*
X131545191Y-70188503D01*
X131562000Y-70104000D01*
X131562000Y-68779137D01*
X131780000Y-68823283D01*
X132380000Y-68823283D01*
X132612352Y-68779563D01*
X132714660Y-68713730D01*
X132801283Y-68772917D01*
X133050000Y-68823283D01*
X133650000Y-68823283D01*
X133882352Y-68779563D01*
X133984660Y-68713730D01*
X134071283Y-68772917D01*
X134320000Y-68823283D01*
X134920000Y-68823283D01*
X135152352Y-68779563D01*
X135254660Y-68713730D01*
X135341283Y-68772917D01*
X135590000Y-68823283D01*
X136190000Y-68823283D01*
X136422352Y-68779563D01*
X136524660Y-68713730D01*
X136611283Y-68772917D01*
X136860000Y-68823283D01*
X137460000Y-68823283D01*
X137692352Y-68779563D01*
X137794660Y-68713730D01*
X137881283Y-68772917D01*
X138130000Y-68823283D01*
X138730000Y-68823283D01*
X138812636Y-68807734D01*
X138773161Y-68902799D01*
X138772839Y-69271583D01*
X138913669Y-69612417D01*
X139174211Y-69873414D01*
X139514799Y-70014839D01*
X139883583Y-70015161D01*
X140224417Y-69874331D01*
X140485414Y-69613789D01*
X140626839Y-69273201D01*
X140627161Y-68904417D01*
X140577000Y-68783018D01*
X140577000Y-68450158D01*
X140588917Y-68432717D01*
X140639283Y-68184000D01*
X140639283Y-66184000D01*
X140595563Y-65951648D01*
X140458243Y-65738247D01*
X140248717Y-65595083D01*
X140000000Y-65544717D01*
X139988771Y-65544717D01*
X140011488Y-65522000D01*
X143551572Y-65522000D01*
X144430002Y-66400430D01*
X144418670Y-66427722D01*
X144418192Y-66975753D01*
X144627472Y-67482251D01*
X145014651Y-67870106D01*
X145520782Y-68080270D01*
X146068813Y-68080748D01*
X146575311Y-67871468D01*
X146963166Y-67484289D01*
X147173330Y-66978158D01*
X147173808Y-66430127D01*
X146964528Y-65923629D01*
X146577349Y-65535774D01*
X146071218Y-65325610D01*
X145523187Y-65325132D01*
X145493816Y-65337268D01*
X144394804Y-64238256D01*
X144150838Y-64075243D01*
X143863060Y-64018000D01*
X140245488Y-64018000D01*
X141690428Y-62573060D01*
X144616187Y-62573060D01*
X144627472Y-62600371D01*
X145014651Y-62988226D01*
X145520782Y-63198390D01*
X146068813Y-63198868D01*
X146575311Y-62989588D01*
X146963166Y-62602409D01*
X147173330Y-62096278D01*
X147173808Y-61548247D01*
X146964528Y-61041749D01*
X146577349Y-60653894D01*
X146071218Y-60443730D01*
X145523187Y-60443252D01*
X145016689Y-60652532D01*
X144628834Y-61039711D01*
X144616647Y-61069060D01*
X141378940Y-61069060D01*
X141091162Y-61126303D01*
X140847196Y-61289316D01*
X136628256Y-65508256D01*
X136534729Y-65648229D01*
X136525340Y-65654270D01*
X136438717Y-65595083D01*
X136190000Y-65544717D01*
X135590000Y-65544717D01*
X135357648Y-65588437D01*
X135255340Y-65654270D01*
X135168717Y-65595083D01*
X134920000Y-65544717D01*
X134320000Y-65544717D01*
X134087648Y-65588437D01*
X133985340Y-65654270D01*
X133898717Y-65595083D01*
X133650000Y-65544717D01*
X133050000Y-65544717D01*
X132817648Y-65588437D01*
X132715340Y-65654270D01*
X132628717Y-65595083D01*
X132380000Y-65544717D01*
X131780000Y-65544717D01*
X131547648Y-65588437D01*
X131445340Y-65654270D01*
X131358717Y-65595083D01*
X131110000Y-65544717D01*
X130510000Y-65544717D01*
X130277648Y-65588437D01*
X130175340Y-65654270D01*
X130088717Y-65595083D01*
X129840000Y-65544717D01*
X129240000Y-65544717D01*
X129007648Y-65588437D01*
X128794247Y-65725757D01*
X128651083Y-65935283D01*
X128600717Y-66184000D01*
X128600717Y-68184000D01*
X128644437Y-68416352D01*
X128742212Y-68568299D01*
X127484256Y-69826256D01*
X127365519Y-70003958D01*
X127264717Y-69935083D01*
X127016000Y-69884717D01*
X125016000Y-69884717D01*
X124783648Y-69928437D01*
X124570247Y-70065757D01*
X124444270Y-70250129D01*
X124100270Y-70318555D01*
X124028715Y-70332788D01*
X123663090Y-70577091D01*
X123155091Y-71085091D01*
X122910788Y-71450716D01*
X122825000Y-71882000D01*
X122910788Y-72313284D01*
X123155091Y-72678909D01*
X123520716Y-72923212D01*
X123952000Y-73009000D01*
X124383284Y-72923212D01*
X124659040Y-72738957D01*
X124767283Y-72812917D01*
X125016000Y-72863283D01*
X127016000Y-72863283D01*
X127248352Y-72819563D01*
X127264000Y-72809494D01*
X127264000Y-73744938D01*
X127016000Y-73694717D01*
X125016000Y-73694717D01*
X124783648Y-73738437D01*
X124570247Y-73875757D01*
X124427083Y-74085283D01*
X124376717Y-74334000D01*
X124376717Y-76034000D01*
X124420437Y-76266352D01*
X124557757Y-76479753D01*
X124767283Y-76622917D01*
X125016000Y-76673283D01*
X125264000Y-76673283D01*
X125264000Y-77097000D01*
X123190000Y-77097000D01*
X122954065Y-77143084D01*
X122746644Y-77280644D01*
X121629605Y-78397683D01*
X121508717Y-78315083D01*
X121260000Y-78264717D01*
X120040000Y-78264717D01*
X119807648Y-78308437D01*
X119599000Y-78442699D01*
X119599000Y-78168134D01*
X120583851Y-77183283D01*
X121260000Y-77183283D01*
X121492352Y-77139563D01*
X121705753Y-77002243D01*
X121848917Y-76792717D01*
X121899283Y-76544000D01*
X121899283Y-75634000D01*
X121855563Y-75401648D01*
X121718243Y-75188247D01*
X121508717Y-75045083D01*
X121260000Y-74994717D01*
X120040000Y-74994717D01*
X119807648Y-75038437D01*
X119594247Y-75175757D01*
X119451083Y-75385283D01*
X119400717Y-75634000D01*
X119400717Y-76310149D01*
X118905991Y-76804875D01*
X118896211Y-76798340D01*
X118850052Y-76789158D01*
X118618000Y-76742999D01*
X118617995Y-76743000D01*
X118050075Y-76743000D01*
X118099283Y-76500000D01*
X118099283Y-75900000D01*
X118055563Y-75667648D01*
X117989730Y-75565340D01*
X118048917Y-75478717D01*
X118099283Y-75230000D01*
X118099283Y-74630000D01*
X118055563Y-74397648D01*
X117989730Y-74295340D01*
X118048917Y-74208717D01*
X118099283Y-73960000D01*
X118099283Y-73360000D01*
X118081784Y-73267000D01*
X119414717Y-73267000D01*
X119414717Y-73358000D01*
X119458437Y-73590352D01*
X119595757Y-73803753D01*
X119805283Y-73946917D01*
X120054000Y-73997283D01*
X121754000Y-73997283D01*
X121986352Y-73953563D01*
X122199753Y-73816243D01*
X122342917Y-73606717D01*
X122393283Y-73358000D01*
X122393283Y-71358000D01*
X122349563Y-71125648D01*
X122212243Y-70912247D01*
X122002717Y-70769083D01*
X121754000Y-70718717D01*
X120054000Y-70718717D01*
X119821648Y-70762437D01*
X119608247Y-70899757D01*
X119465083Y-71109283D01*
X119414717Y-71358000D01*
X119414717Y-71513000D01*
X118080450Y-71513000D01*
X118099283Y-71420000D01*
X118099283Y-70820000D01*
X118055563Y-70587648D01*
X117989730Y-70485340D01*
X118048917Y-70398717D01*
X118099283Y-70150000D01*
X118099283Y-69550000D01*
X118083734Y-69467364D01*
X118178799Y-69506839D01*
X118547583Y-69507161D01*
X118888417Y-69366331D01*
X119149414Y-69105789D01*
X119290839Y-68765201D01*
X119290945Y-68643750D01*
X119419000Y-68643750D01*
X119419000Y-69484309D01*
X119515673Y-69717698D01*
X119694301Y-69896327D01*
X119927690Y-69993000D01*
X120618250Y-69993000D01*
X120777000Y-69834250D01*
X120777000Y-68485000D01*
X121031000Y-68485000D01*
X121031000Y-69834250D01*
X121189750Y-69993000D01*
X121880310Y-69993000D01*
X122113699Y-69896327D01*
X122292327Y-69717698D01*
X122389000Y-69484309D01*
X122389000Y-68643750D01*
X122230250Y-68485000D01*
X121031000Y-68485000D01*
X120777000Y-68485000D01*
X119577750Y-68485000D01*
X119419000Y-68643750D01*
X119290945Y-68643750D01*
X119291161Y-68396417D01*
X119150331Y-68055583D01*
X118889789Y-67794586D01*
X118549201Y-67653161D01*
X118180417Y-67652839D01*
X118059018Y-67703000D01*
X117726158Y-67703000D01*
X117708717Y-67691083D01*
X117460000Y-67640717D01*
X115460000Y-67640717D01*
X115227648Y-67684437D01*
X115014247Y-67821757D01*
X114871083Y-68031283D01*
X114820717Y-68280000D01*
X114820717Y-68880000D01*
X114864437Y-69112352D01*
X114930270Y-69214660D01*
X114871083Y-69301283D01*
X114820717Y-69550000D01*
X114820717Y-70150000D01*
X114864437Y-70382352D01*
X114930270Y-70484660D01*
X114871083Y-70571283D01*
X114820717Y-70820000D01*
X114820717Y-71420000D01*
X114864437Y-71652352D01*
X114930270Y-71754660D01*
X114871083Y-71841283D01*
X114820717Y-72090000D01*
X114820717Y-72690000D01*
X114864437Y-72922352D01*
X114930270Y-73024660D01*
X114871083Y-73111283D01*
X114820717Y-73360000D01*
X114820717Y-73960000D01*
X114836435Y-74043536D01*
X114739201Y-74003161D01*
X114370417Y-74002839D01*
X114029583Y-74143669D01*
X113768586Y-74404211D01*
X113627161Y-74744799D01*
X113626839Y-75113583D01*
X113730433Y-75364299D01*
X113503000Y-75136866D01*
X113503000Y-70612005D01*
X113503001Y-70612000D01*
X113447660Y-70333790D01*
X113447660Y-70333789D01*
X113290067Y-70097933D01*
X110423825Y-67231691D01*
X119419000Y-67231691D01*
X119419000Y-68072250D01*
X119577750Y-68231000D01*
X120777000Y-68231000D01*
X120777000Y-66881750D01*
X121031000Y-66881750D01*
X121031000Y-68231000D01*
X122230250Y-68231000D01*
X122389000Y-68072250D01*
X122389000Y-67231691D01*
X122292327Y-66998302D01*
X122113699Y-66819673D01*
X121880310Y-66723000D01*
X121189750Y-66723000D01*
X121031000Y-66881750D01*
X120777000Y-66881750D01*
X120618250Y-66723000D01*
X119927690Y-66723000D01*
X119694301Y-66819673D01*
X119515673Y-66998302D01*
X119419000Y-67231691D01*
X110423825Y-67231691D01*
X109859134Y-66667000D01*
X111252000Y-66667000D01*
X111479888Y-66624120D01*
X111689189Y-66489438D01*
X111829601Y-66283938D01*
X111879000Y-66040000D01*
X111879000Y-64878892D01*
X111992352Y-64857563D01*
X112205753Y-64720243D01*
X112348917Y-64510717D01*
X112395000Y-64283150D01*
X112395000Y-64388310D01*
X112491673Y-64621699D01*
X112670302Y-64800327D01*
X112903691Y-64897000D01*
X113252250Y-64897000D01*
X113411000Y-64738250D01*
X113411000Y-63373000D01*
X113665000Y-63373000D01*
X113665000Y-64738250D01*
X113823750Y-64897000D01*
X114172309Y-64897000D01*
X114405698Y-64800327D01*
X114584327Y-64621699D01*
X114681000Y-64388310D01*
X114681000Y-63531750D01*
X114649000Y-63499750D01*
X115659000Y-63499750D01*
X115659000Y-64340309D01*
X115755673Y-64573698D01*
X115934301Y-64752327D01*
X116167690Y-64849000D01*
X116808250Y-64849000D01*
X116967000Y-64690250D01*
X116967000Y-63341000D01*
X117221000Y-63341000D01*
X117221000Y-64690250D01*
X117379750Y-64849000D01*
X118020310Y-64849000D01*
X118253699Y-64752327D01*
X118432327Y-64573698D01*
X118529000Y-64340309D01*
X118529000Y-63499750D01*
X118370250Y-63341000D01*
X117221000Y-63341000D01*
X116967000Y-63341000D01*
X115817750Y-63341000D01*
X115659000Y-63499750D01*
X114649000Y-63499750D01*
X114522250Y-63373000D01*
X113665000Y-63373000D01*
X113411000Y-63373000D01*
X113391000Y-63373000D01*
X113391000Y-63119000D01*
X113411000Y-63119000D01*
X113411000Y-63099000D01*
X113665000Y-63099000D01*
X113665000Y-63119000D01*
X114522250Y-63119000D01*
X114681000Y-62960250D01*
X114681000Y-62103690D01*
X114584327Y-61870301D01*
X114430369Y-61716343D01*
X114559712Y-61587000D01*
X116148376Y-61587000D01*
X115934301Y-61675673D01*
X115755673Y-61854302D01*
X115659000Y-62087691D01*
X115659000Y-62928250D01*
X115817750Y-63087000D01*
X116967000Y-63087000D01*
X116967000Y-63067000D01*
X117221000Y-63067000D01*
X117221000Y-63087000D01*
X118370250Y-63087000D01*
X118529000Y-62928250D01*
X118529000Y-62087691D01*
X118432327Y-61854302D01*
X118253699Y-61675673D01*
X118039624Y-61587000D01*
X120128732Y-61587000D01*
X120159673Y-61661699D01*
X120338302Y-61840327D01*
X120571691Y-61937000D01*
X121412250Y-61937000D01*
X121571000Y-61778250D01*
X121571000Y-60671712D01*
X121663712Y-60579000D01*
X121825000Y-60579000D01*
X121825000Y-61778250D01*
X121983750Y-61937000D01*
X122824309Y-61937000D01*
X123057698Y-61840327D01*
X123236327Y-61661699D01*
X123333000Y-61428310D01*
X123333000Y-60737750D01*
X123174250Y-60579000D01*
X121825000Y-60579000D01*
X121663712Y-60579000D01*
X121917712Y-60325000D01*
X123174250Y-60325000D01*
X123333000Y-60166250D01*
X123333000Y-59475690D01*
X123236327Y-59242301D01*
X123118369Y-59124343D01*
X124093286Y-58149426D01*
X124159673Y-58309699D01*
X124338302Y-58488327D01*
X124571691Y-58585000D01*
X125412250Y-58585000D01*
X125571000Y-58426250D01*
X125571000Y-57277000D01*
X125825000Y-57277000D01*
X125825000Y-58426250D01*
X125983750Y-58585000D01*
X126824309Y-58585000D01*
X127057698Y-58488327D01*
X127236327Y-58309699D01*
X127333000Y-58076310D01*
X127333000Y-57435750D01*
X127174250Y-57277000D01*
X125825000Y-57277000D01*
X125571000Y-57277000D01*
X125551000Y-57277000D01*
X125551000Y-57023000D01*
X125571000Y-57023000D01*
X125571000Y-55873750D01*
X125825000Y-55873750D01*
X125825000Y-57023000D01*
X127174250Y-57023000D01*
X127333000Y-56864250D01*
X127333000Y-56657691D01*
X128605000Y-56657691D01*
X128605000Y-57498250D01*
X128763750Y-57657000D01*
X129413000Y-57657000D01*
X129413000Y-56307750D01*
X129254250Y-56149000D01*
X129113690Y-56149000D01*
X128880301Y-56245673D01*
X128701673Y-56424302D01*
X128605000Y-56657691D01*
X127333000Y-56657691D01*
X127333000Y-56223690D01*
X127236327Y-55990301D01*
X127057698Y-55811673D01*
X126824309Y-55715000D01*
X125983750Y-55715000D01*
X125825000Y-55873750D01*
X125571000Y-55873750D01*
X125412250Y-55715000D01*
X124571691Y-55715000D01*
X124338302Y-55811673D01*
X124325000Y-55824975D01*
X124325000Y-55626000D01*
X124278916Y-55390065D01*
X124141356Y-55182644D01*
X123787712Y-54829000D01*
X125399899Y-54829000D01*
X125458211Y-54887414D01*
X125798799Y-55028839D01*
X126167583Y-55029161D01*
X126508417Y-54888331D01*
X126769414Y-54627789D01*
X126910839Y-54287201D01*
X126911161Y-53918417D01*
X126825491Y-53711081D01*
X127050428Y-53666338D01*
X127217585Y-53554647D01*
X127247933Y-53600067D01*
X129811308Y-56163442D01*
X129667000Y-56307750D01*
X129667000Y-57657000D01*
X129687000Y-57657000D01*
X129687000Y-57911000D01*
X129667000Y-57911000D01*
X129667000Y-57931000D01*
X129413000Y-57931000D01*
X129413000Y-57911000D01*
X128763750Y-57911000D01*
X128605000Y-58069750D01*
X128605000Y-58910309D01*
X128701673Y-59143698D01*
X128878974Y-59321000D01*
X127262259Y-59321000D01*
X127156243Y-59156247D01*
X126946717Y-59013083D01*
X126698000Y-58962717D01*
X124698000Y-58962717D01*
X124465648Y-59006437D01*
X124252247Y-59143757D01*
X124109083Y-59353283D01*
X124058717Y-59602000D01*
X124058717Y-61302000D01*
X124102437Y-61534352D01*
X124239757Y-61747753D01*
X124449283Y-61890917D01*
X124698000Y-61941283D01*
X124821000Y-61941283D01*
X124821000Y-62822717D01*
X124698000Y-62822717D01*
X124465648Y-62866437D01*
X124252247Y-63003757D01*
X124109083Y-63213283D01*
X124058717Y-63462000D01*
X124058717Y-63565669D01*
X123969789Y-63476586D01*
X123629201Y-63335161D01*
X123313365Y-63334885D01*
X123293563Y-63229648D01*
X123156243Y-63016247D01*
X122946717Y-62873083D01*
X122698000Y-62822717D01*
X120698000Y-62822717D01*
X120465648Y-62866437D01*
X120252247Y-63003757D01*
X120109083Y-63213283D01*
X120058717Y-63462000D01*
X120058717Y-65062000D01*
X120102437Y-65294352D01*
X120239757Y-65507753D01*
X120449283Y-65650917D01*
X120698000Y-65701283D01*
X122698000Y-65701283D01*
X122930352Y-65657563D01*
X123143753Y-65520243D01*
X123286917Y-65310717D01*
X123311588Y-65188885D01*
X123627583Y-65189161D01*
X123968417Y-65048331D01*
X124058717Y-64958188D01*
X124058717Y-65062000D01*
X124102437Y-65294352D01*
X124239757Y-65507753D01*
X124449283Y-65650917D01*
X124698000Y-65701283D01*
X126698000Y-65701283D01*
X126930352Y-65657563D01*
X127143753Y-65520243D01*
X127286917Y-65310717D01*
X127337283Y-65062000D01*
X127337283Y-63462000D01*
X127293563Y-63229648D01*
X127156243Y-63016247D01*
X126946717Y-62873083D01*
X126698000Y-62822717D01*
X126575000Y-62822717D01*
X126575000Y-61941283D01*
X126698000Y-61941283D01*
X126930352Y-61897563D01*
X127143753Y-61760243D01*
X127286917Y-61550717D01*
X127337283Y-61302000D01*
X127337283Y-61075000D01*
X129794000Y-61075000D01*
X130129613Y-61008242D01*
X130414133Y-60818133D01*
X131430133Y-59802133D01*
X131620242Y-59517613D01*
X131644465Y-59395837D01*
X131780000Y-59423283D01*
X132380000Y-59423283D01*
X132612352Y-59379563D01*
X132714660Y-59313730D01*
X132801283Y-59372917D01*
X133050000Y-59423283D01*
X133650000Y-59423283D01*
X133882352Y-59379563D01*
X133984660Y-59313730D01*
X134071283Y-59372917D01*
X134320000Y-59423283D01*
X134920000Y-59423283D01*
X135152352Y-59379563D01*
X135254660Y-59313730D01*
X135341283Y-59372917D01*
X135590000Y-59423283D01*
X136190000Y-59423283D01*
X136422352Y-59379563D01*
X136524660Y-59313730D01*
X136611283Y-59372917D01*
X136860000Y-59423283D01*
X137460000Y-59423283D01*
X137692352Y-59379563D01*
X137794660Y-59313730D01*
X137881283Y-59372917D01*
X138130000Y-59423283D01*
X138730000Y-59423283D01*
X138962352Y-59379563D01*
X139064660Y-59313730D01*
X139151283Y-59372917D01*
X139400000Y-59423283D01*
X140000000Y-59423283D01*
X140232352Y-59379563D01*
X140445753Y-59242243D01*
X140588917Y-59032717D01*
X140639283Y-58784000D01*
X140639283Y-56784000D01*
X140595563Y-56551648D01*
X140458243Y-56338247D01*
X140248717Y-56195083D01*
X140000000Y-56144717D01*
X139400000Y-56144717D01*
X139167648Y-56188437D01*
X139065340Y-56254270D01*
X138978717Y-56195083D01*
X138730000Y-56144717D01*
X138130000Y-56144717D01*
X137897648Y-56188437D01*
X137887000Y-56195289D01*
X137887000Y-55626005D01*
X137887001Y-55626000D01*
X137835269Y-55365933D01*
X137831660Y-55347789D01*
X137674067Y-55111933D01*
X137674064Y-55111931D01*
X137325089Y-54762955D01*
X137325161Y-54680417D01*
X137184331Y-54339583D01*
X136923789Y-54078586D01*
X136583201Y-53937161D01*
X136214417Y-53936839D01*
X135873583Y-54077669D01*
X135612586Y-54338211D01*
X135471161Y-54678799D01*
X135471154Y-54687021D01*
X134486965Y-53702831D01*
X134670428Y-53666338D01*
X135154013Y-53343216D01*
X135370000Y-53019969D01*
X135585987Y-53343216D01*
X136069572Y-53666338D01*
X136640000Y-53779803D01*
X137210428Y-53666338D01*
X137694013Y-53343216D01*
X137910000Y-53019969D01*
X138125987Y-53343216D01*
X138609572Y-53666338D01*
X139180000Y-53779803D01*
X139750428Y-53666338D01*
X140234013Y-53343216D01*
X140450000Y-53019969D01*
X140665987Y-53343216D01*
X141149572Y-53666338D01*
X141720000Y-53779803D01*
X142290428Y-53666338D01*
X142774013Y-53343216D01*
X142990000Y-53019969D01*
X143205987Y-53343216D01*
X143689572Y-53666338D01*
X144260000Y-53779803D01*
X144830428Y-53666338D01*
X145314013Y-53343216D01*
X145530000Y-53019969D01*
X145745987Y-53343216D01*
G36*
X111125000Y-48223072D02*
X110669572Y-48313662D01*
X110185987Y-48636784D01*
X109970000Y-48960031D01*
X109754013Y-48636784D01*
X109270428Y-48313662D01*
X108700000Y-48200197D01*
X108129572Y-48313662D01*
X107645987Y-48636784D01*
X107428269Y-48962621D01*
X107366821Y-48831510D01*
X106934947Y-48437312D01*
X106519026Y-48265042D01*
X106287000Y-48386183D01*
X106287000Y-49593000D01*
X106307000Y-49593000D01*
X106307000Y-49847000D01*
X106287000Y-49847000D01*
X106287000Y-49867000D01*
X106033000Y-49867000D01*
X106033000Y-49847000D01*
X103747000Y-49847000D01*
X103747000Y-49867000D01*
X103493000Y-49867000D01*
X103493000Y-49847000D01*
X102285531Y-49847000D01*
X102165032Y-50079027D01*
X102413179Y-50608490D01*
X102606842Y-50785258D01*
X102524048Y-50800837D01*
X102310647Y-50938157D01*
X102167483Y-51147683D01*
X102117117Y-51396400D01*
X102117117Y-53123600D01*
X102160837Y-53355952D01*
X102298157Y-53569353D01*
X102507683Y-53712517D01*
X102756400Y-53762883D01*
X104483600Y-53762883D01*
X104715952Y-53719163D01*
X104929353Y-53581843D01*
X105072517Y-53372317D01*
X105084824Y-53311543D01*
X105105987Y-53343216D01*
X105211542Y-53413746D01*
X103188644Y-55436644D01*
X103054399Y-55636062D01*
X103005000Y-55880000D01*
X103005000Y-60452000D01*
X103051084Y-60687935D01*
X103188644Y-60895356D01*
X103950644Y-61657356D01*
X104140686Y-61785289D01*
X104071673Y-61854302D01*
X103975000Y-62087691D01*
X103975000Y-62928250D01*
X104133750Y-63087000D01*
X105283000Y-63087000D01*
X105283000Y-63067000D01*
X105537000Y-63067000D01*
X105537000Y-63087000D01*
X106686250Y-63087000D01*
X106845000Y-62928250D01*
X106845000Y-62087691D01*
X106748327Y-61854302D01*
X106735025Y-61841000D01*
X107690288Y-61841000D01*
X107861070Y-62011782D01*
X107823000Y-62103690D01*
X107823000Y-62960250D01*
X107981750Y-63119000D01*
X108839000Y-63119000D01*
X108839000Y-63099000D01*
X108948288Y-63099000D01*
X109113000Y-63263712D01*
X109113000Y-63373000D01*
X109093000Y-63373000D01*
X109093000Y-64738250D01*
X109251750Y-64897000D01*
X109600309Y-64897000D01*
X109833698Y-64800327D01*
X110012327Y-64621699D01*
X110109000Y-64388310D01*
X110109000Y-64284762D01*
X110148437Y-64494352D01*
X110285757Y-64707753D01*
X110495283Y-64850917D01*
X110744000Y-64901283D01*
X111125000Y-64901283D01*
X111125000Y-65913000D01*
X109045077Y-65913000D01*
X108990211Y-65876340D01*
X108944052Y-65867158D01*
X108712000Y-65820999D01*
X108711995Y-65821000D01*
X106756101Y-65821000D01*
X106697789Y-65762586D01*
X106357201Y-65621161D01*
X105988417Y-65620839D01*
X105647583Y-65761669D01*
X105495988Y-65913000D01*
X104025134Y-65913000D01*
X102876067Y-64763933D01*
X102791987Y-64707753D01*
X102640211Y-64606340D01*
X102594052Y-64597158D01*
X102362000Y-64550999D01*
X102361995Y-64551000D01*
X99314000Y-64551000D01*
X99035789Y-64606340D01*
X98799933Y-64763933D01*
X98799931Y-64763936D01*
X98203970Y-65359897D01*
X98087800Y-65311659D01*
X97494802Y-65311141D01*
X96946746Y-65537594D01*
X96570683Y-65913000D01*
X95927000Y-65913000D01*
X95927000Y-63499750D01*
X103975000Y-63499750D01*
X103975000Y-64340309D01*
X104071673Y-64573698D01*
X104250301Y-64752327D01*
X104483690Y-64849000D01*
X105124250Y-64849000D01*
X105283000Y-64690250D01*
X105283000Y-63341000D01*
X105537000Y-63341000D01*
X105537000Y-64690250D01*
X105695750Y-64849000D01*
X106336310Y-64849000D01*
X106569699Y-64752327D01*
X106748327Y-64573698D01*
X106845000Y-64340309D01*
X106845000Y-63531750D01*
X107823000Y-63531750D01*
X107823000Y-64388310D01*
X107919673Y-64621699D01*
X108098302Y-64800327D01*
X108331691Y-64897000D01*
X108680250Y-64897000D01*
X108839000Y-64738250D01*
X108839000Y-63373000D01*
X107981750Y-63373000D01*
X107823000Y-63531750D01*
X106845000Y-63531750D01*
X106845000Y-63499750D01*
X106686250Y-63341000D01*
X105537000Y-63341000D01*
X105283000Y-63341000D01*
X104133750Y-63341000D01*
X103975000Y-63499750D01*
X95927000Y-63499750D01*
X95927000Y-52608182D01*
X96012687Y-52815561D01*
X96919664Y-53724123D01*
X98105294Y-54216439D01*
X99389074Y-54217559D01*
X100575561Y-53727313D01*
X101484123Y-52820336D01*
X101976439Y-51634706D01*
X101977559Y-50350926D01*
X101568520Y-49360973D01*
X102165032Y-49360973D01*
X102285531Y-49593000D01*
X103493000Y-49593000D01*
X103493000Y-48386183D01*
X103747000Y-48386183D01*
X103747000Y-49593000D01*
X106033000Y-49593000D01*
X106033000Y-48386183D01*
X105800974Y-48265042D01*
X105385053Y-48437312D01*
X104953179Y-48831510D01*
X104890000Y-48966313D01*
X104826821Y-48831510D01*
X104394947Y-48437312D01*
X103979026Y-48265042D01*
X103747000Y-48386183D01*
X103493000Y-48386183D01*
X103260974Y-48265042D01*
X102845053Y-48437312D01*
X102413179Y-48831510D01*
X102165032Y-49360973D01*
X101568520Y-49360973D01*
X101487313Y-49164439D01*
X100580336Y-48255877D01*
X99394706Y-47763561D01*
X98110926Y-47762441D01*
X96924439Y-48252687D01*
X96209325Y-48966553D01*
X96616771Y-48356769D01*
X97366102Y-47856082D01*
X98316680Y-47667000D01*
X111125000Y-47667000D01*
X111125000Y-48223072D01*
X111125000Y-48223072D01*
G37*
X111125000Y-48223072D02*
X110669572Y-48313662D01*
X110185987Y-48636784D01*
X109970000Y-48960031D01*
X109754013Y-48636784D01*
X109270428Y-48313662D01*
X108700000Y-48200197D01*
X108129572Y-48313662D01*
X107645987Y-48636784D01*
X107428269Y-48962621D01*
X107366821Y-48831510D01*
X106934947Y-48437312D01*
X106519026Y-48265042D01*
X106287000Y-48386183D01*
X106287000Y-49593000D01*
X106307000Y-49593000D01*
X106307000Y-49847000D01*
X106287000Y-49847000D01*
X106287000Y-49867000D01*
X106033000Y-49867000D01*
X106033000Y-49847000D01*
X103747000Y-49847000D01*
X103747000Y-49867000D01*
X103493000Y-49867000D01*
X103493000Y-49847000D01*
X102285531Y-49847000D01*
X102165032Y-50079027D01*
X102413179Y-50608490D01*
X102606842Y-50785258D01*
X102524048Y-50800837D01*
X102310647Y-50938157D01*
X102167483Y-51147683D01*
X102117117Y-51396400D01*
X102117117Y-53123600D01*
X102160837Y-53355952D01*
X102298157Y-53569353D01*
X102507683Y-53712517D01*
X102756400Y-53762883D01*
X104483600Y-53762883D01*
X104715952Y-53719163D01*
X104929353Y-53581843D01*
X105072517Y-53372317D01*
X105084824Y-53311543D01*
X105105987Y-53343216D01*
X105211542Y-53413746D01*
X103188644Y-55436644D01*
X103054399Y-55636062D01*
X103005000Y-55880000D01*
X103005000Y-60452000D01*
X103051084Y-60687935D01*
X103188644Y-60895356D01*
X103950644Y-61657356D01*
X104140686Y-61785289D01*
X104071673Y-61854302D01*
X103975000Y-62087691D01*
X103975000Y-62928250D01*
X104133750Y-63087000D01*
X105283000Y-63087000D01*
X105283000Y-63067000D01*
X105537000Y-63067000D01*
X105537000Y-63087000D01*
X106686250Y-63087000D01*
X106845000Y-62928250D01*
X106845000Y-62087691D01*
X106748327Y-61854302D01*
X106735025Y-61841000D01*
X107690288Y-61841000D01*
X107861070Y-62011782D01*
X107823000Y-62103690D01*
X107823000Y-62960250D01*
X107981750Y-63119000D01*
X108839000Y-63119000D01*
X108839000Y-63099000D01*
X108948288Y-63099000D01*
X109113000Y-63263712D01*
X109113000Y-63373000D01*
X109093000Y-63373000D01*
X109093000Y-64738250D01*
X109251750Y-64897000D01*
X109600309Y-64897000D01*
X109833698Y-64800327D01*
X110012327Y-64621699D01*
X110109000Y-64388310D01*
X110109000Y-64284762D01*
X110148437Y-64494352D01*
X110285757Y-64707753D01*
X110495283Y-64850917D01*
X110744000Y-64901283D01*
X111125000Y-64901283D01*
X111125000Y-65913000D01*
X109045077Y-65913000D01*
X108990211Y-65876340D01*
X108944052Y-65867158D01*
X108712000Y-65820999D01*
X108711995Y-65821000D01*
X106756101Y-65821000D01*
X106697789Y-65762586D01*
X106357201Y-65621161D01*
X105988417Y-65620839D01*
X105647583Y-65761669D01*
X105495988Y-65913000D01*
X104025134Y-65913000D01*
X102876067Y-64763933D01*
X102791987Y-64707753D01*
X102640211Y-64606340D01*
X102594052Y-64597158D01*
X102362000Y-64550999D01*
X102361995Y-64551000D01*
X99314000Y-64551000D01*
X99035789Y-64606340D01*
X98799933Y-64763933D01*
X98799931Y-64763936D01*
X98203970Y-65359897D01*
X98087800Y-65311659D01*
X97494802Y-65311141D01*
X96946746Y-65537594D01*
X96570683Y-65913000D01*
X95927000Y-65913000D01*
X95927000Y-63499750D01*
X103975000Y-63499750D01*
X103975000Y-64340309D01*
X104071673Y-64573698D01*
X104250301Y-64752327D01*
X104483690Y-64849000D01*
X105124250Y-64849000D01*
X105283000Y-64690250D01*
X105283000Y-63341000D01*
X105537000Y-63341000D01*
X105537000Y-64690250D01*
X105695750Y-64849000D01*
X106336310Y-64849000D01*
X106569699Y-64752327D01*
X106748327Y-64573698D01*
X106845000Y-64340309D01*
X106845000Y-63531750D01*
X107823000Y-63531750D01*
X107823000Y-64388310D01*
X107919673Y-64621699D01*
X108098302Y-64800327D01*
X108331691Y-64897000D01*
X108680250Y-64897000D01*
X108839000Y-64738250D01*
X108839000Y-63373000D01*
X107981750Y-63373000D01*
X107823000Y-63531750D01*
X106845000Y-63531750D01*
X106845000Y-63499750D01*
X106686250Y-63341000D01*
X105537000Y-63341000D01*
X105283000Y-63341000D01*
X104133750Y-63341000D01*
X103975000Y-63499750D01*
X95927000Y-63499750D01*
X95927000Y-52608182D01*
X96012687Y-52815561D01*
X96919664Y-53724123D01*
X98105294Y-54216439D01*
X99389074Y-54217559D01*
X100575561Y-53727313D01*
X101484123Y-52820336D01*
X101976439Y-51634706D01*
X101977559Y-50350926D01*
X101568520Y-49360973D01*
X102165032Y-49360973D01*
X102285531Y-49593000D01*
X103493000Y-49593000D01*
X103493000Y-48386183D01*
X103747000Y-48386183D01*
X103747000Y-49593000D01*
X106033000Y-49593000D01*
X106033000Y-48386183D01*
X105800974Y-48265042D01*
X105385053Y-48437312D01*
X104953179Y-48831510D01*
X104890000Y-48966313D01*
X104826821Y-48831510D01*
X104394947Y-48437312D01*
X103979026Y-48265042D01*
X103747000Y-48386183D01*
X103493000Y-48386183D01*
X103260974Y-48265042D01*
X102845053Y-48437312D01*
X102413179Y-48831510D01*
X102165032Y-49360973D01*
X101568520Y-49360973D01*
X101487313Y-49164439D01*
X100580336Y-48255877D01*
X99394706Y-47763561D01*
X98110926Y-47762441D01*
X96924439Y-48252687D01*
X96209325Y-48966553D01*
X96616771Y-48356769D01*
X97366102Y-47856082D01*
X98316680Y-47667000D01*
X111125000Y-47667000D01*
X111125000Y-48223072D01*
G36*
X145772256Y-78255745D02*
X145918503Y-78353464D01*
X146016222Y-78418757D01*
X146304000Y-78476000D01*
X154485950Y-78476000D01*
X154143091Y-78705091D01*
X153898788Y-79070716D01*
X153813000Y-79502000D01*
X153898788Y-79933284D01*
X154143091Y-80298909D01*
X154175091Y-80330909D01*
X154540716Y-80575212D01*
X154972000Y-80661000D01*
X155556614Y-80661000D01*
X155576437Y-80766352D01*
X155713757Y-80979753D01*
X155923283Y-81122917D01*
X156172000Y-81173283D01*
X157772000Y-81173283D01*
X158004352Y-81129563D01*
X158217753Y-80992243D01*
X158360917Y-80782717D01*
X158411283Y-80534000D01*
X158411283Y-78534000D01*
X158367563Y-78301648D01*
X158230243Y-78088247D01*
X158020717Y-77945083D01*
X157772000Y-77894717D01*
X156594771Y-77894717D01*
X157400489Y-77089000D01*
X159573000Y-77089000D01*
X159573000Y-98371818D01*
X159487313Y-98164439D01*
X158580336Y-97255877D01*
X157394706Y-96763561D01*
X156110926Y-96762441D01*
X154924439Y-97252687D01*
X154015877Y-98159664D01*
X153523561Y-99345294D01*
X153522441Y-100629074D01*
X154012687Y-101815561D01*
X154919664Y-102724123D01*
X155133704Y-102813000D01*
X100368182Y-102813000D01*
X100575561Y-102727313D01*
X101484123Y-101820336D01*
X101976439Y-100634706D01*
X101977559Y-99350926D01*
X101487313Y-98164439D01*
X100580336Y-97255877D01*
X99394706Y-96763561D01*
X98110926Y-96762441D01*
X96924439Y-97252687D01*
X96015877Y-98159664D01*
X95927000Y-98373704D01*
X95927000Y-82931000D01*
X96571260Y-82931000D01*
X96944540Y-83304933D01*
X96960923Y-83311736D01*
X96946746Y-83317594D01*
X96527067Y-83736540D01*
X96299659Y-84284200D01*
X96299141Y-84877198D01*
X96525594Y-85425254D01*
X96944540Y-85844933D01*
X97492200Y-86072341D01*
X98085198Y-86072859D01*
X98633254Y-85846406D01*
X98853876Y-85626170D01*
X98928073Y-85805298D01*
X99106701Y-85983927D01*
X99340090Y-86080600D01*
X100044250Y-86080600D01*
X100203000Y-85921850D01*
X100203000Y-84709000D01*
X100457000Y-84709000D01*
X100457000Y-85921850D01*
X100615750Y-86080600D01*
X101319910Y-86080600D01*
X101553299Y-85983927D01*
X101731927Y-85805298D01*
X101828600Y-85571909D01*
X101828600Y-84867750D01*
X101669850Y-84709000D01*
X100457000Y-84709000D01*
X100203000Y-84709000D01*
X100183000Y-84709000D01*
X100183000Y-84455000D01*
X100203000Y-84455000D01*
X100203000Y-84435000D01*
X100457000Y-84435000D01*
X100457000Y-84455000D01*
X101669850Y-84455000D01*
X101828600Y-84296250D01*
X101828600Y-83592091D01*
X101731927Y-83358702D01*
X101553299Y-83180073D01*
X101374146Y-83105865D01*
X101549317Y-82931000D01*
X102222866Y-82931000D01*
X104641931Y-85350064D01*
X104641933Y-85350067D01*
X104877789Y-85507660D01*
X104921662Y-85516387D01*
X105043550Y-85540633D01*
X104991161Y-85666799D01*
X104990839Y-86035583D01*
X105041000Y-86156982D01*
X105041000Y-86550027D01*
X105017570Y-86550027D01*
X104785218Y-86593747D01*
X104571817Y-86731067D01*
X104428653Y-86940593D01*
X104378287Y-87189310D01*
X104378287Y-88786970D01*
X104422007Y-89019322D01*
X104559327Y-89232723D01*
X104768853Y-89375887D01*
X104924124Y-89407330D01*
X104785218Y-89433467D01*
X104571817Y-89570787D01*
X104428653Y-89780313D01*
X104378287Y-90029030D01*
X104378287Y-91626690D01*
X104422007Y-91859042D01*
X104559327Y-92072443D01*
X104768853Y-92215607D01*
X105017570Y-92265973D01*
X106115847Y-92265973D01*
X107180007Y-93330133D01*
X107464527Y-93520242D01*
X107800140Y-93587001D01*
X107800145Y-93587000D01*
X108887797Y-93587000D01*
X108926437Y-93792352D01*
X109063757Y-94005753D01*
X109273283Y-94148917D01*
X109522000Y-94199283D01*
X111522000Y-94199283D01*
X111645000Y-94176139D01*
X111645000Y-96774000D01*
X111711758Y-97109613D01*
X111901867Y-97394133D01*
X115711865Y-101204130D01*
X115711867Y-101204133D01*
X115909221Y-101336000D01*
X115996387Y-101394242D01*
X116332000Y-101461001D01*
X116332005Y-101461000D01*
X116879281Y-101461000D01*
X117264540Y-101846933D01*
X117812200Y-102074341D01*
X118405198Y-102074859D01*
X118953254Y-101848406D01*
X119372933Y-101429460D01*
X119379736Y-101413077D01*
X119385594Y-101427254D01*
X119804540Y-101846933D01*
X120352200Y-102074341D01*
X120945198Y-102074859D01*
X121493254Y-101848406D01*
X121912933Y-101429460D01*
X121919736Y-101413077D01*
X121925594Y-101427254D01*
X122344540Y-101846933D01*
X122892200Y-102074341D01*
X123485198Y-102074859D01*
X124033254Y-101848406D01*
X124452933Y-101429460D01*
X124459736Y-101413077D01*
X124465594Y-101427254D01*
X124884540Y-101846933D01*
X125432200Y-102074341D01*
X126025198Y-102074859D01*
X126573254Y-101848406D01*
X126992933Y-101429460D01*
X126999736Y-101413077D01*
X127005594Y-101427254D01*
X127424540Y-101846933D01*
X127972200Y-102074341D01*
X128565198Y-102074859D01*
X129113254Y-101848406D01*
X129532933Y-101429460D01*
X129539736Y-101413077D01*
X129545594Y-101427254D01*
X129964540Y-101846933D01*
X130512200Y-102074341D01*
X131105198Y-102074859D01*
X131653254Y-101848406D01*
X132072933Y-101429460D01*
X132079736Y-101413077D01*
X132085594Y-101427254D01*
X132504540Y-101846933D01*
X133052200Y-102074341D01*
X133645198Y-102074859D01*
X134193254Y-101848406D01*
X134404223Y-101637805D01*
X135015800Y-101637805D01*
X135097741Y-101890516D01*
X135658030Y-102094248D01*
X136253635Y-102068058D01*
X136682259Y-101890516D01*
X136764200Y-101637805D01*
X135890000Y-100763605D01*
X135015800Y-101637805D01*
X134404223Y-101637805D01*
X134612933Y-101429460D01*
X134628908Y-101390988D01*
X134836195Y-101458200D01*
X135710395Y-100584000D01*
X135696253Y-100569858D01*
X135875858Y-100390253D01*
X135890000Y-100404395D01*
X135904143Y-100390253D01*
X136083748Y-100569858D01*
X136069605Y-100584000D01*
X136943805Y-101458200D01*
X137196516Y-101376259D01*
X137400248Y-100815970D01*
X137374058Y-100220365D01*
X137299763Y-100041000D01*
X137921995Y-100041000D01*
X137922000Y-100041001D01*
X138154052Y-99994842D01*
X138200211Y-99985660D01*
X138436067Y-99828067D01*
X140255134Y-98009000D01*
X152113995Y-98009000D01*
X152114000Y-98009001D01*
X152346052Y-97962842D01*
X152392211Y-97953660D01*
X152628067Y-97796067D01*
X156360850Y-94063283D01*
X157822000Y-94063283D01*
X158054352Y-94019563D01*
X158267753Y-93882243D01*
X158410917Y-93672717D01*
X158461283Y-93424000D01*
X158461283Y-91424000D01*
X158417563Y-91191648D01*
X158280243Y-90978247D01*
X158070717Y-90835083D01*
X157822000Y-90784717D01*
X156912771Y-90784717D01*
X157503744Y-90193744D01*
X157526291Y-90160000D01*
X157590915Y-90063283D01*
X157822000Y-90063283D01*
X158054352Y-90019563D01*
X158267753Y-89882243D01*
X158410917Y-89672717D01*
X158461283Y-89424000D01*
X158461283Y-87424000D01*
X158417563Y-87191648D01*
X158280243Y-86978247D01*
X158070717Y-86835083D01*
X157822000Y-86784717D01*
X156122000Y-86784717D01*
X155889648Y-86828437D01*
X155676247Y-86965757D01*
X155533083Y-87175283D01*
X155482717Y-87424000D01*
X155482717Y-89424000D01*
X155526437Y-89656352D01*
X155536506Y-89672000D01*
X155109062Y-89672000D01*
X155159283Y-89424000D01*
X155159283Y-87424000D01*
X155115563Y-87191648D01*
X154978243Y-86978247D01*
X154768717Y-86835083D01*
X154520000Y-86784717D01*
X154422000Y-86784717D01*
X154422000Y-86360000D01*
X154364757Y-86072222D01*
X154279899Y-85945223D01*
X154201744Y-85828255D01*
X154128151Y-85754662D01*
X154448417Y-85622331D01*
X154709414Y-85361789D01*
X154850839Y-85021201D01*
X154851161Y-84652417D01*
X154710331Y-84311583D01*
X154619446Y-84220540D01*
X154697000Y-84033309D01*
X154697000Y-83819750D01*
X155537000Y-83819750D01*
X155537000Y-84660309D01*
X155633673Y-84893698D01*
X155812301Y-85072327D01*
X156045690Y-85169000D01*
X156686250Y-85169000D01*
X156845000Y-85010250D01*
X156845000Y-83661000D01*
X157099000Y-83661000D01*
X157099000Y-85010250D01*
X157257750Y-85169000D01*
X157898310Y-85169000D01*
X158131699Y-85072327D01*
X158310327Y-84893698D01*
X158407000Y-84660309D01*
X158407000Y-83819750D01*
X158248250Y-83661000D01*
X157099000Y-83661000D01*
X156845000Y-83661000D01*
X155695750Y-83661000D01*
X155537000Y-83819750D01*
X154697000Y-83819750D01*
X154697000Y-83202750D01*
X154538250Y-83044000D01*
X153924000Y-83044000D01*
X153924000Y-83064000D01*
X153670000Y-83064000D01*
X153670000Y-83044000D01*
X153650000Y-83044000D01*
X153650000Y-82790000D01*
X153670000Y-82790000D01*
X153670000Y-81450750D01*
X153924000Y-81450750D01*
X153924000Y-82790000D01*
X154538250Y-82790000D01*
X154697000Y-82631250D01*
X154697000Y-82407691D01*
X155537000Y-82407691D01*
X155537000Y-83248250D01*
X155695750Y-83407000D01*
X156845000Y-83407000D01*
X156845000Y-82057750D01*
X157099000Y-82057750D01*
X157099000Y-83407000D01*
X158248250Y-83407000D01*
X158407000Y-83248250D01*
X158407000Y-82407691D01*
X158310327Y-82174302D01*
X158131699Y-81995673D01*
X157898310Y-81899000D01*
X157257750Y-81899000D01*
X157099000Y-82057750D01*
X156845000Y-82057750D01*
X156686250Y-81899000D01*
X156045690Y-81899000D01*
X155812301Y-81995673D01*
X155633673Y-82174302D01*
X155537000Y-82407691D01*
X154697000Y-82407691D01*
X154697000Y-81800691D01*
X154600327Y-81567302D01*
X154421699Y-81388673D01*
X154188310Y-81292000D01*
X154082750Y-81292000D01*
X153924000Y-81450750D01*
X153670000Y-81450750D01*
X153511250Y-81292000D01*
X153405690Y-81292000D01*
X153172301Y-81388673D01*
X153148943Y-81412031D01*
X153040717Y-81338083D01*
X152792000Y-81287717D01*
X152262000Y-81287717D01*
X152029648Y-81331437D01*
X151891290Y-81420468D01*
X151770717Y-81338083D01*
X151522000Y-81287717D01*
X150992000Y-81287717D01*
X150759648Y-81331437D01*
X150621290Y-81420468D01*
X150500717Y-81338083D01*
X150252000Y-81287717D01*
X149722000Y-81287717D01*
X149489648Y-81331437D01*
X149351290Y-81420468D01*
X149230717Y-81338083D01*
X148982000Y-81287717D01*
X148452000Y-81287717D01*
X148219648Y-81331437D01*
X148081290Y-81420468D01*
X147960717Y-81338083D01*
X147712000Y-81287717D01*
X147182000Y-81287717D01*
X146949648Y-81331437D01*
X146811290Y-81420468D01*
X146690717Y-81338083D01*
X146442000Y-81287717D01*
X145912000Y-81287717D01*
X145679648Y-81331437D01*
X145541290Y-81420468D01*
X145420717Y-81338083D01*
X145172000Y-81287717D01*
X144642000Y-81287717D01*
X144409648Y-81331437D01*
X144271290Y-81420468D01*
X144150717Y-81338083D01*
X143902000Y-81287717D01*
X143372000Y-81287717D01*
X143139648Y-81331437D01*
X143001290Y-81420468D01*
X142880717Y-81338083D01*
X142632000Y-81287717D01*
X142102000Y-81287717D01*
X141869648Y-81331437D01*
X141656247Y-81468757D01*
X141513083Y-81678283D01*
X141462717Y-81927000D01*
X141462717Y-83907000D01*
X141506437Y-84139352D01*
X141615000Y-84308063D01*
X141615000Y-84651512D01*
X141166512Y-85100000D01*
X138938000Y-85100000D01*
X138650222Y-85157243D01*
X138575657Y-85207066D01*
X138406256Y-85320255D01*
X136941795Y-86784717D01*
X136310000Y-86784717D01*
X136077648Y-86828437D01*
X135864247Y-86965757D01*
X135721083Y-87175283D01*
X135670717Y-87424000D01*
X135670717Y-89424000D01*
X135714437Y-89656352D01*
X135724506Y-89672000D01*
X135297062Y-89672000D01*
X135347283Y-89424000D01*
X135347283Y-87424000D01*
X135303563Y-87191648D01*
X135166243Y-86978247D01*
X134956717Y-86835083D01*
X134708000Y-86784717D01*
X133008000Y-86784717D01*
X132775648Y-86828437D01*
X132562247Y-86965757D01*
X132419083Y-87175283D01*
X132368717Y-87424000D01*
X132368717Y-89424000D01*
X132412437Y-89656352D01*
X132549757Y-89869753D01*
X132759283Y-90012917D01*
X133008000Y-90063283D01*
X133239085Y-90063283D01*
X133326256Y-90193744D01*
X133917229Y-90784717D01*
X133008000Y-90784717D01*
X132775648Y-90828437D01*
X132562247Y-90965757D01*
X132419083Y-91175283D01*
X132368717Y-91424000D01*
X132368717Y-92885149D01*
X132254866Y-92999000D01*
X130048000Y-92999000D01*
X129769789Y-93054340D01*
X129533933Y-93211933D01*
X126143969Y-96601897D01*
X126027800Y-96553659D01*
X125744077Y-96553411D01*
X126642744Y-95654745D01*
X126805757Y-95410778D01*
X126836531Y-95256067D01*
X126863000Y-95123000D01*
X126863000Y-92970974D01*
X126878283Y-92981417D01*
X127127000Y-93031783D01*
X127635000Y-93031783D01*
X127867352Y-92988063D01*
X128080753Y-92850743D01*
X128223917Y-92641217D01*
X128242794Y-92548000D01*
X129126995Y-92548000D01*
X129127000Y-92548001D01*
X129359052Y-92501842D01*
X129405211Y-92492660D01*
X129641067Y-92335067D01*
X129690851Y-92285283D01*
X131152000Y-92285283D01*
X131384352Y-92241563D01*
X131597753Y-92104243D01*
X131740917Y-91894717D01*
X131791283Y-91646000D01*
X131791283Y-89646000D01*
X131747563Y-89413648D01*
X131610243Y-89200247D01*
X131400717Y-89057083D01*
X131152000Y-89006717D01*
X129452000Y-89006717D01*
X129219648Y-89050437D01*
X129006247Y-89187757D01*
X128863083Y-89397283D01*
X128812717Y-89646000D01*
X128812717Y-91094000D01*
X128245024Y-91094000D01*
X128230563Y-91017148D01*
X128093243Y-90803747D01*
X127883717Y-90660583D01*
X127635000Y-90610217D01*
X127127000Y-90610217D01*
X126894648Y-90653937D01*
X126838000Y-90690389D01*
X126838000Y-89260616D01*
X126910839Y-89085201D01*
X126911161Y-88716417D01*
X126770331Y-88375583D01*
X126509789Y-88114586D01*
X126169201Y-87973161D01*
X125800417Y-87972839D01*
X125459583Y-88113669D01*
X125198586Y-88374211D01*
X125057161Y-88714799D01*
X125056839Y-89083583D01*
X125197669Y-89424417D01*
X125384000Y-89611073D01*
X125384000Y-90290101D01*
X125372744Y-90273255D01*
X124991744Y-89892256D01*
X124959744Y-89860256D01*
X124715778Y-89697243D01*
X124428000Y-89640000D01*
X124141444Y-89697000D01*
X122936005Y-89697000D01*
X122936000Y-89696999D01*
X122703948Y-89743158D01*
X122657789Y-89752340D01*
X122421933Y-89909933D01*
X122421931Y-89909936D01*
X121597169Y-90734698D01*
X121587563Y-90683648D01*
X121450243Y-90470247D01*
X121240717Y-90327083D01*
X120992000Y-90276717D01*
X119292000Y-90276717D01*
X119059648Y-90320437D01*
X118846247Y-90457757D01*
X118703083Y-90667283D01*
X118652717Y-90916000D01*
X118652717Y-92916000D01*
X118696437Y-93148352D01*
X118833757Y-93361753D01*
X119043283Y-93504917D01*
X119292000Y-93555283D01*
X120992000Y-93555283D01*
X121224352Y-93511563D01*
X121437753Y-93374243D01*
X121580917Y-93164717D01*
X121631283Y-92916000D01*
X121631283Y-92605747D01*
X121676052Y-92596842D01*
X121722211Y-92587660D01*
X121958067Y-92430067D01*
X122677717Y-91710417D01*
X122677717Y-92392500D01*
X122721437Y-92624852D01*
X122858757Y-92838253D01*
X123068283Y-92981417D01*
X123317000Y-93031783D01*
X123825000Y-93031783D01*
X124057352Y-92988063D01*
X124089000Y-92967698D01*
X124089000Y-94557512D01*
X123640512Y-95006000D01*
X122682000Y-95006000D01*
X122394222Y-95063243D01*
X122150256Y-95226256D01*
X120822962Y-96553550D01*
X120354802Y-96553141D01*
X119806746Y-96779594D01*
X119387067Y-97198540D01*
X119380264Y-97214923D01*
X119374406Y-97200746D01*
X118955460Y-96781067D01*
X118407800Y-96553659D01*
X117814802Y-96553141D01*
X117266746Y-96779594D01*
X116847067Y-97198540D01*
X116619659Y-97746200D01*
X116619141Y-98339198D01*
X116845594Y-98887254D01*
X117264540Y-99306933D01*
X117280923Y-99313736D01*
X117266746Y-99319594D01*
X116878662Y-99707000D01*
X116695265Y-99707000D01*
X113399000Y-96410734D01*
X113399000Y-94174375D01*
X113522000Y-94199283D01*
X115522000Y-94199283D01*
X115754352Y-94155563D01*
X115967753Y-94018243D01*
X116110917Y-93808717D01*
X116161283Y-93560000D01*
X116161283Y-91860000D01*
X116117563Y-91627648D01*
X115980243Y-91414247D01*
X115770717Y-91271083D01*
X115522000Y-91220717D01*
X113522000Y-91220717D01*
X113399000Y-91243861D01*
X113399000Y-90872375D01*
X113522000Y-90897283D01*
X115522000Y-90897283D01*
X115754352Y-90853563D01*
X115967753Y-90716243D01*
X116017798Y-90643000D01*
X116585995Y-90643000D01*
X116586000Y-90643001D01*
X116818052Y-90596842D01*
X116864211Y-90587660D01*
X117100067Y-90430067D01*
X118624064Y-88906069D01*
X118624067Y-88906067D01*
X118652717Y-88863189D01*
X118652717Y-88916000D01*
X118696437Y-89148352D01*
X118833757Y-89361753D01*
X119043283Y-89504917D01*
X119292000Y-89555283D01*
X120992000Y-89555283D01*
X121224352Y-89511563D01*
X121437753Y-89374243D01*
X121580917Y-89164717D01*
X121631283Y-88916000D01*
X121631283Y-88643000D01*
X121887995Y-88643000D01*
X121888000Y-88643001D01*
X122120052Y-88596842D01*
X122166211Y-88587660D01*
X122212046Y-88557034D01*
X122357583Y-88557161D01*
X122698417Y-88416331D01*
X122959414Y-88155789D01*
X123100839Y-87815201D01*
X123101161Y-87446417D01*
X122960331Y-87105583D01*
X122699789Y-86844586D01*
X122359201Y-86703161D01*
X121990417Y-86702839D01*
X121649583Y-86843669D01*
X121622719Y-86870486D01*
X121587563Y-86683648D01*
X121450243Y-86470247D01*
X121240717Y-86327083D01*
X120992000Y-86276717D01*
X120520219Y-86276717D01*
X120673414Y-86123789D01*
X120814839Y-85783201D01*
X120815161Y-85414417D01*
X120674331Y-85073583D01*
X120413789Y-84812586D01*
X120073201Y-84671161D01*
X119704417Y-84670839D01*
X119599000Y-84714396D01*
X119599000Y-81494606D01*
X119779737Y-81313869D01*
X119839758Y-81615613D01*
X120029867Y-81900133D01*
X120138000Y-82008266D01*
X120138000Y-82482472D01*
X120114247Y-82497757D01*
X119971083Y-82707283D01*
X119920717Y-82956000D01*
X119920717Y-84176000D01*
X119964437Y-84408352D01*
X120101757Y-84621753D01*
X120311283Y-84764917D01*
X120560000Y-84815283D01*
X121470000Y-84815283D01*
X121702352Y-84771563D01*
X121915753Y-84634243D01*
X122058917Y-84424717D01*
X122109283Y-84176000D01*
X122109283Y-82956000D01*
X122065563Y-82723648D01*
X121928243Y-82510247D01*
X121892000Y-82485483D01*
X121892000Y-81950226D01*
X121941839Y-81830201D01*
X121942161Y-81461417D01*
X121801331Y-81120583D01*
X121540789Y-80859586D01*
X121527000Y-80853860D01*
X121527000Y-80387268D01*
X121705753Y-80272243D01*
X121848917Y-80062717D01*
X121899283Y-79814000D01*
X121899283Y-79194323D01*
X123242606Y-77851000D01*
X124384615Y-77851000D01*
X124376717Y-77890000D01*
X124376717Y-79590000D01*
X124420437Y-79822352D01*
X124470000Y-79899375D01*
X124470000Y-82238511D01*
X123039256Y-83669256D01*
X122876243Y-83913222D01*
X122819000Y-84201000D01*
X122819000Y-84517722D01*
X122728083Y-84650783D01*
X122677717Y-84899500D01*
X122677717Y-86042500D01*
X122721437Y-86274852D01*
X122858757Y-86488253D01*
X123068283Y-86631417D01*
X123317000Y-86681783D01*
X123825000Y-86681783D01*
X124057352Y-86638063D01*
X124195586Y-86549112D01*
X124227302Y-86580827D01*
X124460691Y-86677500D01*
X124555250Y-86677500D01*
X124714000Y-86518750D01*
X124714000Y-85598000D01*
X124694000Y-85598000D01*
X124694000Y-85344000D01*
X124714000Y-85344000D01*
X124714000Y-84423250D01*
X124563119Y-84272369D01*
X125397000Y-83438489D01*
X125397000Y-83476310D01*
X125493673Y-83709699D01*
X125672302Y-83888327D01*
X125905691Y-83985000D01*
X126746250Y-83985000D01*
X126905000Y-83826250D01*
X126905000Y-82677000D01*
X126885000Y-82677000D01*
X126885000Y-82423000D01*
X126905000Y-82423000D01*
X126905000Y-81273750D01*
X126746250Y-81115000D01*
X125974000Y-81115000D01*
X125974000Y-80229283D01*
X127016000Y-80229283D01*
X127248352Y-80185563D01*
X127264000Y-80175494D01*
X127264000Y-80264000D01*
X127321243Y-80551778D01*
X127484256Y-80795744D01*
X127803512Y-81115000D01*
X127317750Y-81115000D01*
X127159000Y-81273750D01*
X127159000Y-82423000D01*
X127179000Y-82423000D01*
X127179000Y-82677000D01*
X127159000Y-82677000D01*
X127159000Y-83826250D01*
X127220085Y-83887335D01*
X126976256Y-84050256D01*
X126849256Y-84177256D01*
X126714265Y-84379285D01*
X126613717Y-84310583D01*
X126365000Y-84260217D01*
X125857000Y-84260217D01*
X125624648Y-84303937D01*
X125486414Y-84392888D01*
X125454698Y-84361173D01*
X125221309Y-84264500D01*
X125126750Y-84264500D01*
X124968000Y-84423250D01*
X124968000Y-85344000D01*
X124988000Y-85344000D01*
X124988000Y-85598000D01*
X124968000Y-85598000D01*
X124968000Y-86518750D01*
X125126750Y-86677500D01*
X125221309Y-86677500D01*
X125268043Y-86658142D01*
X125300758Y-86822613D01*
X125403483Y-86976353D01*
X125483669Y-87170417D01*
X125744211Y-87431414D01*
X126084799Y-87572839D01*
X126453583Y-87573161D01*
X126574982Y-87523000D01*
X128812717Y-87523000D01*
X128812717Y-87646000D01*
X128856437Y-87878352D01*
X128993757Y-88091753D01*
X129203283Y-88234917D01*
X129452000Y-88285283D01*
X131152000Y-88285283D01*
X131384352Y-88241563D01*
X131597753Y-88104243D01*
X131740917Y-87894717D01*
X131791283Y-87646000D01*
X131791283Y-86041879D01*
X131842242Y-85965613D01*
X131909001Y-85630000D01*
X131909000Y-85629995D01*
X131909000Y-84887226D01*
X131958839Y-84767201D01*
X131959161Y-84398417D01*
X131909000Y-84277018D01*
X131909000Y-83989283D01*
X132032000Y-83989283D01*
X132264352Y-83945563D01*
X132477753Y-83808243D01*
X132620917Y-83598717D01*
X132655690Y-83427000D01*
X132790774Y-83427000D01*
X132910799Y-83476839D01*
X133279583Y-83477161D01*
X133281117Y-83476527D01*
X133310437Y-83632352D01*
X133447757Y-83845753D01*
X133657283Y-83988917D01*
X133906000Y-84039283D01*
X135906000Y-84039283D01*
X136138352Y-83995563D01*
X136351753Y-83858243D01*
X136494917Y-83648717D01*
X136545283Y-83400000D01*
X136545283Y-81700000D01*
X136508047Y-81502110D01*
X136685778Y-81466757D01*
X136929744Y-81303744D01*
X137333604Y-80899885D01*
X137496617Y-80655918D01*
X137553860Y-80368140D01*
X137553860Y-80279713D01*
X137600690Y-80279713D01*
X137833042Y-80235993D01*
X138046443Y-80098673D01*
X138189607Y-79889147D01*
X138239973Y-79640430D01*
X138239973Y-77851000D01*
X138315000Y-77851000D01*
X138315000Y-81060717D01*
X137906000Y-81060717D01*
X137673648Y-81104437D01*
X137460247Y-81241757D01*
X137317083Y-81451283D01*
X137266717Y-81700000D01*
X137266717Y-83400000D01*
X137310437Y-83632352D01*
X137447757Y-83845753D01*
X137657283Y-83988917D01*
X137906000Y-84039283D01*
X139906000Y-84039283D01*
X140138352Y-83995563D01*
X140351753Y-83858243D01*
X140494917Y-83648717D01*
X140545283Y-83400000D01*
X140545283Y-81700000D01*
X140501563Y-81467648D01*
X140364243Y-81254247D01*
X140154717Y-81111083D01*
X140069000Y-81093725D01*
X140069000Y-77851000D01*
X140970000Y-77851000D01*
X141019410Y-77840994D01*
X141059803Y-77813803D01*
X141784606Y-77089000D01*
X144605511Y-77089000D01*
X145772256Y-78255745D01*
X145772256Y-78255745D01*
G37*
X145772256Y-78255745D02*
X145918503Y-78353464D01*
X146016222Y-78418757D01*
X146304000Y-78476000D01*
X154485950Y-78476000D01*
X154143091Y-78705091D01*
X153898788Y-79070716D01*
X153813000Y-79502000D01*
X153898788Y-79933284D01*
X154143091Y-80298909D01*
X154175091Y-80330909D01*
X154540716Y-80575212D01*
X154972000Y-80661000D01*
X155556614Y-80661000D01*
X155576437Y-80766352D01*
X155713757Y-80979753D01*
X155923283Y-81122917D01*
X156172000Y-81173283D01*
X157772000Y-81173283D01*
X158004352Y-81129563D01*
X158217753Y-80992243D01*
X158360917Y-80782717D01*
X158411283Y-80534000D01*
X158411283Y-78534000D01*
X158367563Y-78301648D01*
X158230243Y-78088247D01*
X158020717Y-77945083D01*
X157772000Y-77894717D01*
X156594771Y-77894717D01*
X157400489Y-77089000D01*
X159573000Y-77089000D01*
X159573000Y-98371818D01*
X159487313Y-98164439D01*
X158580336Y-97255877D01*
X157394706Y-96763561D01*
X156110926Y-96762441D01*
X154924439Y-97252687D01*
X154015877Y-98159664D01*
X153523561Y-99345294D01*
X153522441Y-100629074D01*
X154012687Y-101815561D01*
X154919664Y-102724123D01*
X155133704Y-102813000D01*
X100368182Y-102813000D01*
X100575561Y-102727313D01*
X101484123Y-101820336D01*
X101976439Y-100634706D01*
X101977559Y-99350926D01*
X101487313Y-98164439D01*
X100580336Y-97255877D01*
X99394706Y-96763561D01*
X98110926Y-96762441D01*
X96924439Y-97252687D01*
X96015877Y-98159664D01*
X95927000Y-98373704D01*
X95927000Y-82931000D01*
X96571260Y-82931000D01*
X96944540Y-83304933D01*
X96960923Y-83311736D01*
X96946746Y-83317594D01*
X96527067Y-83736540D01*
X96299659Y-84284200D01*
X96299141Y-84877198D01*
X96525594Y-85425254D01*
X96944540Y-85844933D01*
X97492200Y-86072341D01*
X98085198Y-86072859D01*
X98633254Y-85846406D01*
X98853876Y-85626170D01*
X98928073Y-85805298D01*
X99106701Y-85983927D01*
X99340090Y-86080600D01*
X100044250Y-86080600D01*
X100203000Y-85921850D01*
X100203000Y-84709000D01*
X100457000Y-84709000D01*
X100457000Y-85921850D01*
X100615750Y-86080600D01*
X101319910Y-86080600D01*
X101553299Y-85983927D01*
X101731927Y-85805298D01*
X101828600Y-85571909D01*
X101828600Y-84867750D01*
X101669850Y-84709000D01*
X100457000Y-84709000D01*
X100203000Y-84709000D01*
X100183000Y-84709000D01*
X100183000Y-84455000D01*
X100203000Y-84455000D01*
X100203000Y-84435000D01*
X100457000Y-84435000D01*
X100457000Y-84455000D01*
X101669850Y-84455000D01*
X101828600Y-84296250D01*
X101828600Y-83592091D01*
X101731927Y-83358702D01*
X101553299Y-83180073D01*
X101374146Y-83105865D01*
X101549317Y-82931000D01*
X102222866Y-82931000D01*
X104641931Y-85350064D01*
X104641933Y-85350067D01*
X104877789Y-85507660D01*
X104921662Y-85516387D01*
X105043550Y-85540633D01*
X104991161Y-85666799D01*
X104990839Y-86035583D01*
X105041000Y-86156982D01*
X105041000Y-86550027D01*
X105017570Y-86550027D01*
X104785218Y-86593747D01*
X104571817Y-86731067D01*
X104428653Y-86940593D01*
X104378287Y-87189310D01*
X104378287Y-88786970D01*
X104422007Y-89019322D01*
X104559327Y-89232723D01*
X104768853Y-89375887D01*
X104924124Y-89407330D01*
X104785218Y-89433467D01*
X104571817Y-89570787D01*
X104428653Y-89780313D01*
X104378287Y-90029030D01*
X104378287Y-91626690D01*
X104422007Y-91859042D01*
X104559327Y-92072443D01*
X104768853Y-92215607D01*
X105017570Y-92265973D01*
X106115847Y-92265973D01*
X107180007Y-93330133D01*
X107464527Y-93520242D01*
X107800140Y-93587001D01*
X107800145Y-93587000D01*
X108887797Y-93587000D01*
X108926437Y-93792352D01*
X109063757Y-94005753D01*
X109273283Y-94148917D01*
X109522000Y-94199283D01*
X111522000Y-94199283D01*
X111645000Y-94176139D01*
X111645000Y-96774000D01*
X111711758Y-97109613D01*
X111901867Y-97394133D01*
X115711865Y-101204130D01*
X115711867Y-101204133D01*
X115909221Y-101336000D01*
X115996387Y-101394242D01*
X116332000Y-101461001D01*
X116332005Y-101461000D01*
X116879281Y-101461000D01*
X117264540Y-101846933D01*
X117812200Y-102074341D01*
X118405198Y-102074859D01*
X118953254Y-101848406D01*
X119372933Y-101429460D01*
X119379736Y-101413077D01*
X119385594Y-101427254D01*
X119804540Y-101846933D01*
X120352200Y-102074341D01*
X120945198Y-102074859D01*
X121493254Y-101848406D01*
X121912933Y-101429460D01*
X121919736Y-101413077D01*
X121925594Y-101427254D01*
X122344540Y-101846933D01*
X122892200Y-102074341D01*
X123485198Y-102074859D01*
X124033254Y-101848406D01*
X124452933Y-101429460D01*
X124459736Y-101413077D01*
X124465594Y-101427254D01*
X124884540Y-101846933D01*
X125432200Y-102074341D01*
X126025198Y-102074859D01*
X126573254Y-101848406D01*
X126992933Y-101429460D01*
X126999736Y-101413077D01*
X127005594Y-101427254D01*
X127424540Y-101846933D01*
X127972200Y-102074341D01*
X128565198Y-102074859D01*
X129113254Y-101848406D01*
X129532933Y-101429460D01*
X129539736Y-101413077D01*
X129545594Y-101427254D01*
X129964540Y-101846933D01*
X130512200Y-102074341D01*
X131105198Y-102074859D01*
X131653254Y-101848406D01*
X132072933Y-101429460D01*
X132079736Y-101413077D01*
X132085594Y-101427254D01*
X132504540Y-101846933D01*
X133052200Y-102074341D01*
X133645198Y-102074859D01*
X134193254Y-101848406D01*
X134404223Y-101637805D01*
X135015800Y-101637805D01*
X135097741Y-101890516D01*
X135658030Y-102094248D01*
X136253635Y-102068058D01*
X136682259Y-101890516D01*
X136764200Y-101637805D01*
X135890000Y-100763605D01*
X135015800Y-101637805D01*
X134404223Y-101637805D01*
X134612933Y-101429460D01*
X134628908Y-101390988D01*
X134836195Y-101458200D01*
X135710395Y-100584000D01*
X135696253Y-100569858D01*
X135875858Y-100390253D01*
X135890000Y-100404395D01*
X135904143Y-100390253D01*
X136083748Y-100569858D01*
X136069605Y-100584000D01*
X136943805Y-101458200D01*
X137196516Y-101376259D01*
X137400248Y-100815970D01*
X137374058Y-100220365D01*
X137299763Y-100041000D01*
X137921995Y-100041000D01*
X137922000Y-100041001D01*
X138154052Y-99994842D01*
X138200211Y-99985660D01*
X138436067Y-99828067D01*
X140255134Y-98009000D01*
X152113995Y-98009000D01*
X152114000Y-98009001D01*
X152346052Y-97962842D01*
X152392211Y-97953660D01*
X152628067Y-97796067D01*
X156360850Y-94063283D01*
X157822000Y-94063283D01*
X158054352Y-94019563D01*
X158267753Y-93882243D01*
X158410917Y-93672717D01*
X158461283Y-93424000D01*
X158461283Y-91424000D01*
X158417563Y-91191648D01*
X158280243Y-90978247D01*
X158070717Y-90835083D01*
X157822000Y-90784717D01*
X156912771Y-90784717D01*
X157503744Y-90193744D01*
X157526291Y-90160000D01*
X157590915Y-90063283D01*
X157822000Y-90063283D01*
X158054352Y-90019563D01*
X158267753Y-89882243D01*
X158410917Y-89672717D01*
X158461283Y-89424000D01*
X158461283Y-87424000D01*
X158417563Y-87191648D01*
X158280243Y-86978247D01*
X158070717Y-86835083D01*
X157822000Y-86784717D01*
X156122000Y-86784717D01*
X155889648Y-86828437D01*
X155676247Y-86965757D01*
X155533083Y-87175283D01*
X155482717Y-87424000D01*
X155482717Y-89424000D01*
X155526437Y-89656352D01*
X155536506Y-89672000D01*
X155109062Y-89672000D01*
X155159283Y-89424000D01*
X155159283Y-87424000D01*
X155115563Y-87191648D01*
X154978243Y-86978247D01*
X154768717Y-86835083D01*
X154520000Y-86784717D01*
X154422000Y-86784717D01*
X154422000Y-86360000D01*
X154364757Y-86072222D01*
X154279899Y-85945223D01*
X154201744Y-85828255D01*
X154128151Y-85754662D01*
X154448417Y-85622331D01*
X154709414Y-85361789D01*
X154850839Y-85021201D01*
X154851161Y-84652417D01*
X154710331Y-84311583D01*
X154619446Y-84220540D01*
X154697000Y-84033309D01*
X154697000Y-83819750D01*
X155537000Y-83819750D01*
X155537000Y-84660309D01*
X155633673Y-84893698D01*
X155812301Y-85072327D01*
X156045690Y-85169000D01*
X156686250Y-85169000D01*
X156845000Y-85010250D01*
X156845000Y-83661000D01*
X157099000Y-83661000D01*
X157099000Y-85010250D01*
X157257750Y-85169000D01*
X157898310Y-85169000D01*
X158131699Y-85072327D01*
X158310327Y-84893698D01*
X158407000Y-84660309D01*
X158407000Y-83819750D01*
X158248250Y-83661000D01*
X157099000Y-83661000D01*
X156845000Y-83661000D01*
X155695750Y-83661000D01*
X155537000Y-83819750D01*
X154697000Y-83819750D01*
X154697000Y-83202750D01*
X154538250Y-83044000D01*
X153924000Y-83044000D01*
X153924000Y-83064000D01*
X153670000Y-83064000D01*
X153670000Y-83044000D01*
X153650000Y-83044000D01*
X153650000Y-82790000D01*
X153670000Y-82790000D01*
X153670000Y-81450750D01*
X153924000Y-81450750D01*
X153924000Y-82790000D01*
X154538250Y-82790000D01*
X154697000Y-82631250D01*
X154697000Y-82407691D01*
X155537000Y-82407691D01*
X155537000Y-83248250D01*
X155695750Y-83407000D01*
X156845000Y-83407000D01*
X156845000Y-82057750D01*
X157099000Y-82057750D01*
X157099000Y-83407000D01*
X158248250Y-83407000D01*
X158407000Y-83248250D01*
X158407000Y-82407691D01*
X158310327Y-82174302D01*
X158131699Y-81995673D01*
X157898310Y-81899000D01*
X157257750Y-81899000D01*
X157099000Y-82057750D01*
X156845000Y-82057750D01*
X156686250Y-81899000D01*
X156045690Y-81899000D01*
X155812301Y-81995673D01*
X155633673Y-82174302D01*
X155537000Y-82407691D01*
X154697000Y-82407691D01*
X154697000Y-81800691D01*
X154600327Y-81567302D01*
X154421699Y-81388673D01*
X154188310Y-81292000D01*
X154082750Y-81292000D01*
X153924000Y-81450750D01*
X153670000Y-81450750D01*
X153511250Y-81292000D01*
X153405690Y-81292000D01*
X153172301Y-81388673D01*
X153148943Y-81412031D01*
X153040717Y-81338083D01*
X152792000Y-81287717D01*
X152262000Y-81287717D01*
X152029648Y-81331437D01*
X151891290Y-81420468D01*
X151770717Y-81338083D01*
X151522000Y-81287717D01*
X150992000Y-81287717D01*
X150759648Y-81331437D01*
X150621290Y-81420468D01*
X150500717Y-81338083D01*
X150252000Y-81287717D01*
X149722000Y-81287717D01*
X149489648Y-81331437D01*
X149351290Y-81420468D01*
X149230717Y-81338083D01*
X148982000Y-81287717D01*
X148452000Y-81287717D01*
X148219648Y-81331437D01*
X148081290Y-81420468D01*
X147960717Y-81338083D01*
X147712000Y-81287717D01*
X147182000Y-81287717D01*
X146949648Y-81331437D01*
X146811290Y-81420468D01*
X146690717Y-81338083D01*
X146442000Y-81287717D01*
X145912000Y-81287717D01*
X145679648Y-81331437D01*
X145541290Y-81420468D01*
X145420717Y-81338083D01*
X145172000Y-81287717D01*
X144642000Y-81287717D01*
X144409648Y-81331437D01*
X144271290Y-81420468D01*
X144150717Y-81338083D01*
X143902000Y-81287717D01*
X143372000Y-81287717D01*
X143139648Y-81331437D01*
X143001290Y-81420468D01*
X142880717Y-81338083D01*
X142632000Y-81287717D01*
X142102000Y-81287717D01*
X141869648Y-81331437D01*
X141656247Y-81468757D01*
X141513083Y-81678283D01*
X141462717Y-81927000D01*
X141462717Y-83907000D01*
X141506437Y-84139352D01*
X141615000Y-84308063D01*
X141615000Y-84651512D01*
X141166512Y-85100000D01*
X138938000Y-85100000D01*
X138650222Y-85157243D01*
X138575657Y-85207066D01*
X138406256Y-85320255D01*
X136941795Y-86784717D01*
X136310000Y-86784717D01*
X136077648Y-86828437D01*
X135864247Y-86965757D01*
X135721083Y-87175283D01*
X135670717Y-87424000D01*
X135670717Y-89424000D01*
X135714437Y-89656352D01*
X135724506Y-89672000D01*
X135297062Y-89672000D01*
X135347283Y-89424000D01*
X135347283Y-87424000D01*
X135303563Y-87191648D01*
X135166243Y-86978247D01*
X134956717Y-86835083D01*
X134708000Y-86784717D01*
X133008000Y-86784717D01*
X132775648Y-86828437D01*
X132562247Y-86965757D01*
X132419083Y-87175283D01*
X132368717Y-87424000D01*
X132368717Y-89424000D01*
X132412437Y-89656352D01*
X132549757Y-89869753D01*
X132759283Y-90012917D01*
X133008000Y-90063283D01*
X133239085Y-90063283D01*
X133326256Y-90193744D01*
X133917229Y-90784717D01*
X133008000Y-90784717D01*
X132775648Y-90828437D01*
X132562247Y-90965757D01*
X132419083Y-91175283D01*
X132368717Y-91424000D01*
X132368717Y-92885149D01*
X132254866Y-92999000D01*
X130048000Y-92999000D01*
X129769789Y-93054340D01*
X129533933Y-93211933D01*
X126143969Y-96601897D01*
X126027800Y-96553659D01*
X125744077Y-96553411D01*
X126642744Y-95654745D01*
X126805757Y-95410778D01*
X126836531Y-95256067D01*
X126863000Y-95123000D01*
X126863000Y-92970974D01*
X126878283Y-92981417D01*
X127127000Y-93031783D01*
X127635000Y-93031783D01*
X127867352Y-92988063D01*
X128080753Y-92850743D01*
X128223917Y-92641217D01*
X128242794Y-92548000D01*
X129126995Y-92548000D01*
X129127000Y-92548001D01*
X129359052Y-92501842D01*
X129405211Y-92492660D01*
X129641067Y-92335067D01*
X129690851Y-92285283D01*
X131152000Y-92285283D01*
X131384352Y-92241563D01*
X131597753Y-92104243D01*
X131740917Y-91894717D01*
X131791283Y-91646000D01*
X131791283Y-89646000D01*
X131747563Y-89413648D01*
X131610243Y-89200247D01*
X131400717Y-89057083D01*
X131152000Y-89006717D01*
X129452000Y-89006717D01*
X129219648Y-89050437D01*
X129006247Y-89187757D01*
X128863083Y-89397283D01*
X128812717Y-89646000D01*
X128812717Y-91094000D01*
X128245024Y-91094000D01*
X128230563Y-91017148D01*
X128093243Y-90803747D01*
X127883717Y-90660583D01*
X127635000Y-90610217D01*
X127127000Y-90610217D01*
X126894648Y-90653937D01*
X126838000Y-90690389D01*
X126838000Y-89260616D01*
X126910839Y-89085201D01*
X126911161Y-88716417D01*
X126770331Y-88375583D01*
X126509789Y-88114586D01*
X126169201Y-87973161D01*
X125800417Y-87972839D01*
X125459583Y-88113669D01*
X125198586Y-88374211D01*
X125057161Y-88714799D01*
X125056839Y-89083583D01*
X125197669Y-89424417D01*
X125384000Y-89611073D01*
X125384000Y-90290101D01*
X125372744Y-90273255D01*
X124991744Y-89892256D01*
X124959744Y-89860256D01*
X124715778Y-89697243D01*
X124428000Y-89640000D01*
X124141444Y-89697000D01*
X122936005Y-89697000D01*
X122936000Y-89696999D01*
X122703948Y-89743158D01*
X122657789Y-89752340D01*
X122421933Y-89909933D01*
X122421931Y-89909936D01*
X121597169Y-90734698D01*
X121587563Y-90683648D01*
X121450243Y-90470247D01*
X121240717Y-90327083D01*
X120992000Y-90276717D01*
X119292000Y-90276717D01*
X119059648Y-90320437D01*
X118846247Y-90457757D01*
X118703083Y-90667283D01*
X118652717Y-90916000D01*
X118652717Y-92916000D01*
X118696437Y-93148352D01*
X118833757Y-93361753D01*
X119043283Y-93504917D01*
X119292000Y-93555283D01*
X120992000Y-93555283D01*
X121224352Y-93511563D01*
X121437753Y-93374243D01*
X121580917Y-93164717D01*
X121631283Y-92916000D01*
X121631283Y-92605747D01*
X121676052Y-92596842D01*
X121722211Y-92587660D01*
X121958067Y-92430067D01*
X122677717Y-91710417D01*
X122677717Y-92392500D01*
X122721437Y-92624852D01*
X122858757Y-92838253D01*
X123068283Y-92981417D01*
X123317000Y-93031783D01*
X123825000Y-93031783D01*
X124057352Y-92988063D01*
X124089000Y-92967698D01*
X124089000Y-94557512D01*
X123640512Y-95006000D01*
X122682000Y-95006000D01*
X122394222Y-95063243D01*
X122150256Y-95226256D01*
X120822962Y-96553550D01*
X120354802Y-96553141D01*
X119806746Y-96779594D01*
X119387067Y-97198540D01*
X119380264Y-97214923D01*
X119374406Y-97200746D01*
X118955460Y-96781067D01*
X118407800Y-96553659D01*
X117814802Y-96553141D01*
X117266746Y-96779594D01*
X116847067Y-97198540D01*
X116619659Y-97746200D01*
X116619141Y-98339198D01*
X116845594Y-98887254D01*
X117264540Y-99306933D01*
X117280923Y-99313736D01*
X117266746Y-99319594D01*
X116878662Y-99707000D01*
X116695265Y-99707000D01*
X113399000Y-96410734D01*
X113399000Y-94174375D01*
X113522000Y-94199283D01*
X115522000Y-94199283D01*
X115754352Y-94155563D01*
X115967753Y-94018243D01*
X116110917Y-93808717D01*
X116161283Y-93560000D01*
X116161283Y-91860000D01*
X116117563Y-91627648D01*
X115980243Y-91414247D01*
X115770717Y-91271083D01*
X115522000Y-91220717D01*
X113522000Y-91220717D01*
X113399000Y-91243861D01*
X113399000Y-90872375D01*
X113522000Y-90897283D01*
X115522000Y-90897283D01*
X115754352Y-90853563D01*
X115967753Y-90716243D01*
X116017798Y-90643000D01*
X116585995Y-90643000D01*
X116586000Y-90643001D01*
X116818052Y-90596842D01*
X116864211Y-90587660D01*
X117100067Y-90430067D01*
X118624064Y-88906069D01*
X118624067Y-88906067D01*
X118652717Y-88863189D01*
X118652717Y-88916000D01*
X118696437Y-89148352D01*
X118833757Y-89361753D01*
X119043283Y-89504917D01*
X119292000Y-89555283D01*
X120992000Y-89555283D01*
X121224352Y-89511563D01*
X121437753Y-89374243D01*
X121580917Y-89164717D01*
X121631283Y-88916000D01*
X121631283Y-88643000D01*
X121887995Y-88643000D01*
X121888000Y-88643001D01*
X122120052Y-88596842D01*
X122166211Y-88587660D01*
X122212046Y-88557034D01*
X122357583Y-88557161D01*
X122698417Y-88416331D01*
X122959414Y-88155789D01*
X123100839Y-87815201D01*
X123101161Y-87446417D01*
X122960331Y-87105583D01*
X122699789Y-86844586D01*
X122359201Y-86703161D01*
X121990417Y-86702839D01*
X121649583Y-86843669D01*
X121622719Y-86870486D01*
X121587563Y-86683648D01*
X121450243Y-86470247D01*
X121240717Y-86327083D01*
X120992000Y-86276717D01*
X120520219Y-86276717D01*
X120673414Y-86123789D01*
X120814839Y-85783201D01*
X120815161Y-85414417D01*
X120674331Y-85073583D01*
X120413789Y-84812586D01*
X120073201Y-84671161D01*
X119704417Y-84670839D01*
X119599000Y-84714396D01*
X119599000Y-81494606D01*
X119779737Y-81313869D01*
X119839758Y-81615613D01*
X120029867Y-81900133D01*
X120138000Y-82008266D01*
X120138000Y-82482472D01*
X120114247Y-82497757D01*
X119971083Y-82707283D01*
X119920717Y-82956000D01*
X119920717Y-84176000D01*
X119964437Y-84408352D01*
X120101757Y-84621753D01*
X120311283Y-84764917D01*
X120560000Y-84815283D01*
X121470000Y-84815283D01*
X121702352Y-84771563D01*
X121915753Y-84634243D01*
X122058917Y-84424717D01*
X122109283Y-84176000D01*
X122109283Y-82956000D01*
X122065563Y-82723648D01*
X121928243Y-82510247D01*
X121892000Y-82485483D01*
X121892000Y-81950226D01*
X121941839Y-81830201D01*
X121942161Y-81461417D01*
X121801331Y-81120583D01*
X121540789Y-80859586D01*
X121527000Y-80853860D01*
X121527000Y-80387268D01*
X121705753Y-80272243D01*
X121848917Y-80062717D01*
X121899283Y-79814000D01*
X121899283Y-79194323D01*
X123242606Y-77851000D01*
X124384615Y-77851000D01*
X124376717Y-77890000D01*
X124376717Y-79590000D01*
X124420437Y-79822352D01*
X124470000Y-79899375D01*
X124470000Y-82238511D01*
X123039256Y-83669256D01*
X122876243Y-83913222D01*
X122819000Y-84201000D01*
X122819000Y-84517722D01*
X122728083Y-84650783D01*
X122677717Y-84899500D01*
X122677717Y-86042500D01*
X122721437Y-86274852D01*
X122858757Y-86488253D01*
X123068283Y-86631417D01*
X123317000Y-86681783D01*
X123825000Y-86681783D01*
X124057352Y-86638063D01*
X124195586Y-86549112D01*
X124227302Y-86580827D01*
X124460691Y-86677500D01*
X124555250Y-86677500D01*
X124714000Y-86518750D01*
X124714000Y-85598000D01*
X124694000Y-85598000D01*
X124694000Y-85344000D01*
X124714000Y-85344000D01*
X124714000Y-84423250D01*
X124563119Y-84272369D01*
X125397000Y-83438489D01*
X125397000Y-83476310D01*
X125493673Y-83709699D01*
X125672302Y-83888327D01*
X125905691Y-83985000D01*
X126746250Y-83985000D01*
X126905000Y-83826250D01*
X126905000Y-82677000D01*
X126885000Y-82677000D01*
X126885000Y-82423000D01*
X126905000Y-82423000D01*
X126905000Y-81273750D01*
X126746250Y-81115000D01*
X125974000Y-81115000D01*
X125974000Y-80229283D01*
X127016000Y-80229283D01*
X127248352Y-80185563D01*
X127264000Y-80175494D01*
X127264000Y-80264000D01*
X127321243Y-80551778D01*
X127484256Y-80795744D01*
X127803512Y-81115000D01*
X127317750Y-81115000D01*
X127159000Y-81273750D01*
X127159000Y-82423000D01*
X127179000Y-82423000D01*
X127179000Y-82677000D01*
X127159000Y-82677000D01*
X127159000Y-83826250D01*
X127220085Y-83887335D01*
X126976256Y-84050256D01*
X126849256Y-84177256D01*
X126714265Y-84379285D01*
X126613717Y-84310583D01*
X126365000Y-84260217D01*
X125857000Y-84260217D01*
X125624648Y-84303937D01*
X125486414Y-84392888D01*
X125454698Y-84361173D01*
X125221309Y-84264500D01*
X125126750Y-84264500D01*
X124968000Y-84423250D01*
X124968000Y-85344000D01*
X124988000Y-85344000D01*
X124988000Y-85598000D01*
X124968000Y-85598000D01*
X124968000Y-86518750D01*
X125126750Y-86677500D01*
X125221309Y-86677500D01*
X125268043Y-86658142D01*
X125300758Y-86822613D01*
X125403483Y-86976353D01*
X125483669Y-87170417D01*
X125744211Y-87431414D01*
X126084799Y-87572839D01*
X126453583Y-87573161D01*
X126574982Y-87523000D01*
X128812717Y-87523000D01*
X128812717Y-87646000D01*
X128856437Y-87878352D01*
X128993757Y-88091753D01*
X129203283Y-88234917D01*
X129452000Y-88285283D01*
X131152000Y-88285283D01*
X131384352Y-88241563D01*
X131597753Y-88104243D01*
X131740917Y-87894717D01*
X131791283Y-87646000D01*
X131791283Y-86041879D01*
X131842242Y-85965613D01*
X131909001Y-85630000D01*
X131909000Y-85629995D01*
X131909000Y-84887226D01*
X131958839Y-84767201D01*
X131959161Y-84398417D01*
X131909000Y-84277018D01*
X131909000Y-83989283D01*
X132032000Y-83989283D01*
X132264352Y-83945563D01*
X132477753Y-83808243D01*
X132620917Y-83598717D01*
X132655690Y-83427000D01*
X132790774Y-83427000D01*
X132910799Y-83476839D01*
X133279583Y-83477161D01*
X133281117Y-83476527D01*
X133310437Y-83632352D01*
X133447757Y-83845753D01*
X133657283Y-83988917D01*
X133906000Y-84039283D01*
X135906000Y-84039283D01*
X136138352Y-83995563D01*
X136351753Y-83858243D01*
X136494917Y-83648717D01*
X136545283Y-83400000D01*
X136545283Y-81700000D01*
X136508047Y-81502110D01*
X136685778Y-81466757D01*
X136929744Y-81303744D01*
X137333604Y-80899885D01*
X137496617Y-80655918D01*
X137553860Y-80368140D01*
X137553860Y-80279713D01*
X137600690Y-80279713D01*
X137833042Y-80235993D01*
X138046443Y-80098673D01*
X138189607Y-79889147D01*
X138239973Y-79640430D01*
X138239973Y-77851000D01*
X138315000Y-77851000D01*
X138315000Y-81060717D01*
X137906000Y-81060717D01*
X137673648Y-81104437D01*
X137460247Y-81241757D01*
X137317083Y-81451283D01*
X137266717Y-81700000D01*
X137266717Y-83400000D01*
X137310437Y-83632352D01*
X137447757Y-83845753D01*
X137657283Y-83988917D01*
X137906000Y-84039283D01*
X139906000Y-84039283D01*
X140138352Y-83995563D01*
X140351753Y-83858243D01*
X140494917Y-83648717D01*
X140545283Y-83400000D01*
X140545283Y-81700000D01*
X140501563Y-81467648D01*
X140364243Y-81254247D01*
X140154717Y-81111083D01*
X140069000Y-81093725D01*
X140069000Y-77851000D01*
X140970000Y-77851000D01*
X141019410Y-77840994D01*
X141059803Y-77813803D01*
X141784606Y-77089000D01*
X144605511Y-77089000D01*
X145772256Y-78255745D01*
G36*
X118103933Y-54616067D02*
X118339789Y-54773660D01*
X118385948Y-54782842D01*
X118618000Y-54829001D01*
X118618005Y-54829000D01*
X122721394Y-54829000D01*
X123571000Y-55678606D01*
X123571000Y-57605394D01*
X123355407Y-57820987D01*
X123333000Y-57825444D01*
X123333000Y-57435750D01*
X123174250Y-57277000D01*
X121825000Y-57277000D01*
X121825000Y-58426250D01*
X121983750Y-58585000D01*
X122324735Y-58585000D01*
X121947017Y-58962717D01*
X120698000Y-58962717D01*
X120465648Y-59006437D01*
X120252247Y-59143757D01*
X120109083Y-59353283D01*
X120058717Y-59602000D01*
X120058717Y-60833000D01*
X118058937Y-60833000D01*
X118253699Y-60752327D01*
X118432327Y-60573698D01*
X118529000Y-60340309D01*
X118529000Y-59499750D01*
X118370250Y-59341000D01*
X117221000Y-59341000D01*
X117221000Y-59361000D01*
X116967000Y-59361000D01*
X116967000Y-59341000D01*
X115817750Y-59341000D01*
X115659000Y-59499750D01*
X115659000Y-60340309D01*
X115755673Y-60573698D01*
X115934301Y-60752327D01*
X116129063Y-60833000D01*
X114300000Y-60833000D01*
X114250590Y-60843006D01*
X114210197Y-60870197D01*
X113489677Y-61590717D01*
X113030000Y-61590717D01*
X112797648Y-61634437D01*
X112584247Y-61771757D01*
X112441083Y-61981283D01*
X112395000Y-62208850D01*
X112395000Y-62103690D01*
X112298327Y-61870301D01*
X112119698Y-61691673D01*
X111886309Y-61595000D01*
X111537750Y-61595000D01*
X111379000Y-61753750D01*
X111379000Y-63119000D01*
X111399000Y-63119000D01*
X111399000Y-63373000D01*
X111379000Y-63373000D01*
X111379000Y-63393000D01*
X111125000Y-63393000D01*
X111125000Y-63373000D01*
X111105000Y-63373000D01*
X111105000Y-63119000D01*
X111125000Y-63119000D01*
X111125000Y-61753750D01*
X110966250Y-61595000D01*
X110617691Y-61595000D01*
X110384302Y-61691673D01*
X110205673Y-61870301D01*
X110109000Y-62103690D01*
X110109000Y-62207238D01*
X110069563Y-61997648D01*
X109932243Y-61784247D01*
X109722717Y-61641083D01*
X109474000Y-61590717D01*
X108506323Y-61590717D01*
X108039803Y-61124197D01*
X107997789Y-61096334D01*
X107950000Y-61087000D01*
X104446606Y-61087000D01*
X103759000Y-60399394D01*
X103759000Y-59499750D01*
X103975000Y-59499750D01*
X103975000Y-60340309D01*
X104071673Y-60573698D01*
X104250301Y-60752327D01*
X104483690Y-60849000D01*
X105124250Y-60849000D01*
X105283000Y-60690250D01*
X105283000Y-59341000D01*
X105537000Y-59341000D01*
X105537000Y-60690250D01*
X105695750Y-60849000D01*
X106336310Y-60849000D01*
X106569699Y-60752327D01*
X106748327Y-60573698D01*
X106845000Y-60340309D01*
X106845000Y-59499750D01*
X106686250Y-59341000D01*
X105537000Y-59341000D01*
X105283000Y-59341000D01*
X104133750Y-59341000D01*
X103975000Y-59499750D01*
X103759000Y-59499750D01*
X103759000Y-58087691D01*
X103975000Y-58087691D01*
X103975000Y-58928250D01*
X104133750Y-59087000D01*
X105283000Y-59087000D01*
X105283000Y-57737750D01*
X105537000Y-57737750D01*
X105537000Y-59087000D01*
X106686250Y-59087000D01*
X106845000Y-58928250D01*
X106845000Y-58087691D01*
X106748327Y-57854302D01*
X106569699Y-57675673D01*
X106336310Y-57579000D01*
X105695750Y-57579000D01*
X105537000Y-57737750D01*
X105283000Y-57737750D01*
X105124250Y-57579000D01*
X104483690Y-57579000D01*
X104250301Y-57675673D01*
X104071673Y-57854302D01*
X103975000Y-58087691D01*
X103759000Y-58087691D01*
X103759000Y-56927750D01*
X108788200Y-56927750D01*
X108788200Y-57784310D01*
X108884873Y-58017699D01*
X109063502Y-58196327D01*
X109296891Y-58293000D01*
X110966250Y-58293000D01*
X111125000Y-58134250D01*
X111125000Y-56769000D01*
X111379000Y-56769000D01*
X111379000Y-58134250D01*
X111537750Y-58293000D01*
X113207109Y-58293000D01*
X113440498Y-58196327D01*
X113549134Y-58087691D01*
X115659000Y-58087691D01*
X115659000Y-58928250D01*
X115817750Y-59087000D01*
X116967000Y-59087000D01*
X116967000Y-57737750D01*
X117221000Y-57737750D01*
X117221000Y-59087000D01*
X118370250Y-59087000D01*
X118529000Y-58928250D01*
X118529000Y-58087691D01*
X118432327Y-57854302D01*
X118253699Y-57675673D01*
X118020310Y-57579000D01*
X117379750Y-57579000D01*
X117221000Y-57737750D01*
X116967000Y-57737750D01*
X116808250Y-57579000D01*
X116167690Y-57579000D01*
X115934301Y-57675673D01*
X115755673Y-57854302D01*
X115659000Y-58087691D01*
X113549134Y-58087691D01*
X113619127Y-58017699D01*
X113715800Y-57784310D01*
X113715800Y-57435750D01*
X120063000Y-57435750D01*
X120063000Y-58076310D01*
X120159673Y-58309699D01*
X120338302Y-58488327D01*
X120571691Y-58585000D01*
X121412250Y-58585000D01*
X121571000Y-58426250D01*
X121571000Y-57277000D01*
X120221750Y-57277000D01*
X120063000Y-57435750D01*
X113715800Y-57435750D01*
X113715800Y-56927750D01*
X113557050Y-56769000D01*
X111379000Y-56769000D01*
X111125000Y-56769000D01*
X108946950Y-56769000D01*
X108788200Y-56927750D01*
X103759000Y-56927750D01*
X103759000Y-55932606D01*
X104191916Y-55499690D01*
X108788200Y-55499690D01*
X108788200Y-56356250D01*
X108946950Y-56515000D01*
X111125000Y-56515000D01*
X111125000Y-55149750D01*
X111379000Y-55149750D01*
X111379000Y-56515000D01*
X113557050Y-56515000D01*
X113715800Y-56356250D01*
X113715800Y-56223690D01*
X120063000Y-56223690D01*
X120063000Y-56864250D01*
X120221750Y-57023000D01*
X121571000Y-57023000D01*
X121571000Y-55873750D01*
X121825000Y-55873750D01*
X121825000Y-57023000D01*
X123174250Y-57023000D01*
X123333000Y-56864250D01*
X123333000Y-56223690D01*
X123236327Y-55990301D01*
X123057698Y-55811673D01*
X122824309Y-55715000D01*
X121983750Y-55715000D01*
X121825000Y-55873750D01*
X121571000Y-55873750D01*
X121412250Y-55715000D01*
X120571691Y-55715000D01*
X120338302Y-55811673D01*
X120159673Y-55990301D01*
X120063000Y-56223690D01*
X113715800Y-56223690D01*
X113715800Y-55499690D01*
X113619127Y-55266301D01*
X113440498Y-55087673D01*
X113207109Y-54991000D01*
X111537750Y-54991000D01*
X111379000Y-55149750D01*
X111125000Y-55149750D01*
X110966250Y-54991000D01*
X109296891Y-54991000D01*
X109063502Y-55087673D01*
X108884873Y-55266301D01*
X108788200Y-55499690D01*
X104191916Y-55499690D01*
X105716606Y-53975000D01*
X117462866Y-53975000D01*
X118103933Y-54616067D01*
X118103933Y-54616067D01*
G37*
X118103933Y-54616067D02*
X118339789Y-54773660D01*
X118385948Y-54782842D01*
X118618000Y-54829001D01*
X118618005Y-54829000D01*
X122721394Y-54829000D01*
X123571000Y-55678606D01*
X123571000Y-57605394D01*
X123355407Y-57820987D01*
X123333000Y-57825444D01*
X123333000Y-57435750D01*
X123174250Y-57277000D01*
X121825000Y-57277000D01*
X121825000Y-58426250D01*
X121983750Y-58585000D01*
X122324735Y-58585000D01*
X121947017Y-58962717D01*
X120698000Y-58962717D01*
X120465648Y-59006437D01*
X120252247Y-59143757D01*
X120109083Y-59353283D01*
X120058717Y-59602000D01*
X120058717Y-60833000D01*
X118058937Y-60833000D01*
X118253699Y-60752327D01*
X118432327Y-60573698D01*
X118529000Y-60340309D01*
X118529000Y-59499750D01*
X118370250Y-59341000D01*
X117221000Y-59341000D01*
X117221000Y-59361000D01*
X116967000Y-59361000D01*
X116967000Y-59341000D01*
X115817750Y-59341000D01*
X115659000Y-59499750D01*
X115659000Y-60340309D01*
X115755673Y-60573698D01*
X115934301Y-60752327D01*
X116129063Y-60833000D01*
X114300000Y-60833000D01*
X114250590Y-60843006D01*
X114210197Y-60870197D01*
X113489677Y-61590717D01*
X113030000Y-61590717D01*
X112797648Y-61634437D01*
X112584247Y-61771757D01*
X112441083Y-61981283D01*
X112395000Y-62208850D01*
X112395000Y-62103690D01*
X112298327Y-61870301D01*
X112119698Y-61691673D01*
X111886309Y-61595000D01*
X111537750Y-61595000D01*
X111379000Y-61753750D01*
X111379000Y-63119000D01*
X111399000Y-63119000D01*
X111399000Y-63373000D01*
X111379000Y-63373000D01*
X111379000Y-63393000D01*
X111125000Y-63393000D01*
X111125000Y-63373000D01*
X111105000Y-63373000D01*
X111105000Y-63119000D01*
X111125000Y-63119000D01*
X111125000Y-61753750D01*
X110966250Y-61595000D01*
X110617691Y-61595000D01*
X110384302Y-61691673D01*
X110205673Y-61870301D01*
X110109000Y-62103690D01*
X110109000Y-62207238D01*
X110069563Y-61997648D01*
X109932243Y-61784247D01*
X109722717Y-61641083D01*
X109474000Y-61590717D01*
X108506323Y-61590717D01*
X108039803Y-61124197D01*
X107997789Y-61096334D01*
X107950000Y-61087000D01*
X104446606Y-61087000D01*
X103759000Y-60399394D01*
X103759000Y-59499750D01*
X103975000Y-59499750D01*
X103975000Y-60340309D01*
X104071673Y-60573698D01*
X104250301Y-60752327D01*
X104483690Y-60849000D01*
X105124250Y-60849000D01*
X105283000Y-60690250D01*
X105283000Y-59341000D01*
X105537000Y-59341000D01*
X105537000Y-60690250D01*
X105695750Y-60849000D01*
X106336310Y-60849000D01*
X106569699Y-60752327D01*
X106748327Y-60573698D01*
X106845000Y-60340309D01*
X106845000Y-59499750D01*
X106686250Y-59341000D01*
X105537000Y-59341000D01*
X105283000Y-59341000D01*
X104133750Y-59341000D01*
X103975000Y-59499750D01*
X103759000Y-59499750D01*
X103759000Y-58087691D01*
X103975000Y-58087691D01*
X103975000Y-58928250D01*
X104133750Y-59087000D01*
X105283000Y-59087000D01*
X105283000Y-57737750D01*
X105537000Y-57737750D01*
X105537000Y-59087000D01*
X106686250Y-59087000D01*
X106845000Y-58928250D01*
X106845000Y-58087691D01*
X106748327Y-57854302D01*
X106569699Y-57675673D01*
X106336310Y-57579000D01*
X105695750Y-57579000D01*
X105537000Y-57737750D01*
X105283000Y-57737750D01*
X105124250Y-57579000D01*
X104483690Y-57579000D01*
X104250301Y-57675673D01*
X104071673Y-57854302D01*
X103975000Y-58087691D01*
X103759000Y-58087691D01*
X103759000Y-56927750D01*
X108788200Y-56927750D01*
X108788200Y-57784310D01*
X108884873Y-58017699D01*
X109063502Y-58196327D01*
X109296891Y-58293000D01*
X110966250Y-58293000D01*
X111125000Y-58134250D01*
X111125000Y-56769000D01*
X111379000Y-56769000D01*
X111379000Y-58134250D01*
X111537750Y-58293000D01*
X113207109Y-58293000D01*
X113440498Y-58196327D01*
X113549134Y-58087691D01*
X115659000Y-58087691D01*
X115659000Y-58928250D01*
X115817750Y-59087000D01*
X116967000Y-59087000D01*
X116967000Y-57737750D01*
X117221000Y-57737750D01*
X117221000Y-59087000D01*
X118370250Y-59087000D01*
X118529000Y-58928250D01*
X118529000Y-58087691D01*
X118432327Y-57854302D01*
X118253699Y-57675673D01*
X118020310Y-57579000D01*
X117379750Y-57579000D01*
X117221000Y-57737750D01*
X116967000Y-57737750D01*
X116808250Y-57579000D01*
X116167690Y-57579000D01*
X115934301Y-57675673D01*
X115755673Y-57854302D01*
X115659000Y-58087691D01*
X113549134Y-58087691D01*
X113619127Y-58017699D01*
X113715800Y-57784310D01*
X113715800Y-57435750D01*
X120063000Y-57435750D01*
X120063000Y-58076310D01*
X120159673Y-58309699D01*
X120338302Y-58488327D01*
X120571691Y-58585000D01*
X121412250Y-58585000D01*
X121571000Y-58426250D01*
X121571000Y-57277000D01*
X120221750Y-57277000D01*
X120063000Y-57435750D01*
X113715800Y-57435750D01*
X113715800Y-56927750D01*
X113557050Y-56769000D01*
X111379000Y-56769000D01*
X111125000Y-56769000D01*
X108946950Y-56769000D01*
X108788200Y-56927750D01*
X103759000Y-56927750D01*
X103759000Y-55932606D01*
X104191916Y-55499690D01*
X108788200Y-55499690D01*
X108788200Y-56356250D01*
X108946950Y-56515000D01*
X111125000Y-56515000D01*
X111125000Y-55149750D01*
X111379000Y-55149750D01*
X111379000Y-56515000D01*
X113557050Y-56515000D01*
X113715800Y-56356250D01*
X113715800Y-56223690D01*
X120063000Y-56223690D01*
X120063000Y-56864250D01*
X120221750Y-57023000D01*
X121571000Y-57023000D01*
X121571000Y-55873750D01*
X121825000Y-55873750D01*
X121825000Y-57023000D01*
X123174250Y-57023000D01*
X123333000Y-56864250D01*
X123333000Y-56223690D01*
X123236327Y-55990301D01*
X123057698Y-55811673D01*
X122824309Y-55715000D01*
X121983750Y-55715000D01*
X121825000Y-55873750D01*
X121571000Y-55873750D01*
X121412250Y-55715000D01*
X120571691Y-55715000D01*
X120338302Y-55811673D01*
X120159673Y-55990301D01*
X120063000Y-56223690D01*
X113715800Y-56223690D01*
X113715800Y-55499690D01*
X113619127Y-55266301D01*
X113440498Y-55087673D01*
X113207109Y-54991000D01*
X111537750Y-54991000D01*
X111379000Y-55149750D01*
X111125000Y-55149750D01*
X110966250Y-54991000D01*
X109296891Y-54991000D01*
X109063502Y-55087673D01*
X108884873Y-55266301D01*
X108788200Y-55499690D01*
X104191916Y-55499690D01*
X105716606Y-53975000D01*
X117462866Y-53975000D01*
X118103933Y-54616067D01*
M02*
