M48
;DRILL file {KiCad 4.0.2-1.fc23-product} date Wed 14 Dec 2016 11:24:10 GMT
;FORMAT={-:-/ absolute / inch / decimal}
FMAT,2
INCH,TZ
T1C0.016
T2C0.032
T3C0.040
%
G90
G05
M72
T1
X4.11Y-2.21
X4.17Y-3.38
X4.18Y-2.62
X4.21Y-2.65
X4.36Y-2.8
X4.44Y-3.19
X4.45Y-2.71
X4.49Y-3.95
X4.51Y-2.95
X4.52Y-2.23
X4.52Y-3.29
X4.57Y-3.87
X4.66Y-2.7
X4.69Y-2.25
X4.72Y-3.37
X4.7644Y-3.2144
X4.81Y-3.45
X4.86Y-2.53
X4.88Y-2.83
X4.96Y-2.13
X4.96Y-3.5
X4.9713Y-3.4113
X5.1587Y-3.33
X5.17Y-2.13
X5.24Y-3.25
X5.37Y-2.16
X5.5Y-2.72
X5.61Y-2.97
X5.91Y-2.23
X5.94Y-2.26
X5.97Y-2.29
X6.Y-2.32
X6.05Y-2.83
X6.06Y-3.34
X6.1Y-3.13
T2
X5.74Y-2.4339
X5.74Y-2.6261
T3
X3.85Y-2.63
X3.85Y-2.73
X3.85Y-2.83
X3.85Y-2.93
X3.85Y-3.03
X3.85Y-3.13
X3.85Y-3.23
X3.85Y-3.33
X3.95Y-2.63
X3.95Y-2.73
X3.95Y-2.83
X3.95Y-2.93
X3.95Y-3.03
X3.95Y-3.13
X3.95Y-3.23
X3.95Y-3.33
X4.0795Y-1.9575
X4.0795Y-2.0575
X4.1795Y-1.9575
X4.1795Y-2.0575
X4.2795Y-1.9575
X4.2795Y-2.0575
X4.3795Y-1.9575
X4.3795Y-2.0575
X4.4795Y-1.9575
X4.4795Y-2.0575
X4.5795Y-1.9575
X4.5795Y-2.0575
X4.65Y-3.86
X4.65Y-3.96
X4.6795Y-1.9575
X4.6795Y-2.0575
X4.75Y-3.86
X4.75Y-3.96
X4.7795Y-1.9575
X4.7795Y-2.0575
X4.85Y-3.86
X4.85Y-3.96
X4.8795Y-1.9575
X4.8795Y-2.0575
X4.95Y-3.86
X4.95Y-3.96
X4.9795Y-1.9575
X4.9795Y-2.0575
X5.05Y-3.86
X5.05Y-3.96
X5.0795Y-1.9575
X5.0795Y-2.0575
X5.15Y-3.86
X5.15Y-3.96
X5.1795Y-1.9575
X5.1795Y-2.0575
X5.25Y-3.86
X5.25Y-3.96
X5.2795Y-1.9575
X5.2795Y-2.0575
X5.35Y-3.86
X5.35Y-3.96
X5.3795Y-1.9575
X5.3795Y-2.0575
X5.4795Y-1.9575
X5.4795Y-2.0575
X5.5795Y-1.9575
X5.5795Y-2.0575
X5.6795Y-1.9575
X5.6795Y-2.0575
X5.7795Y-1.9575
X5.7795Y-2.0575
X5.8795Y-1.9575
X5.8795Y-2.0575
X5.9795Y-1.9575
X5.9795Y-2.0575
T0
M30
